<ttFont>
    <TTGlyph name=".notdef" xMin="68" yMin="0" xMax="612" yMax="1365">
      <contour>
        <pt x="68" y="0" on="1"/>
        <pt x="68" y="1365" on="1"/>
        <pt x="612" y="1365" on="1"/>
        <pt x="612" y="0" on="1"/>
      </contour>
      <contour>
        <pt x="136" y="68" on="1"/>
        <pt x="544" y="68" on="1"/>
        <pt x="544" y="1297" on="1"/>
        <pt x="136" y="1297" on="1"/>
      </contour>
    </TTGlyph>
    <TTGlyph name="A" xMin="71" yMin="-30" xMax="2205" yMax="1451">
      <contour>
        <pt x="1226" y="540" on="1"/>
        <pt x="1117" y="891" on="0"/>
        <pt x="1083" y="1021" on="1"/>
        <pt x="1027" y="845" on="0"/>
        <pt x="917" y="561" on="0"/>
        <pt x="909" y="540" on="1"/>
      </contour>
      <contour>
        <pt x="759" y="173" on="1"/>
        <pt x="684" y="-15" on="1"/>
        <pt x="633" y="-22" on="0"/>
        <pt x="533" y="-22" on="0"/>
        <pt x="71" y="0" on="1"/>
        <pt x="186" y="241" on="0"/>
        <pt x="711" y="1430" on="1"/>
        <pt x="774" y="1432" on="0"/>
        <pt x="1211" y="1451" on="0"/>
        <pt x="1535" y="1451" on="0"/>
        <pt x="1596" y="1431" on="1"/>
        <pt x="1602" y="1411" on="0"/>
        <pt x="2121" y="205" on="1"/>
        <pt x="2205" y="9" on="1"/>
        <pt x="1569" y="-30" on="0"/>
        <pt x="1544" y="-30" on="0"/>
        <pt x="1427" y="-24" on="1"/>
        <pt x="1382" y="57" on="0"/>
        <pt x="1350" y="165" on="1"/>
        <pt x="1286" y="173" on="0"/>
      </contour>
    </TTGlyph>
    <TTGlyph name="AE" xMin="-52" yMin="-14" xMax="2760" yMax="1444">
      <contour>
        <pt x="2760" y="349" on="1"/>
        <pt x="2746" y="-2" on="1"/>
        <pt x="2746" y="-2" on="0"/>
        <pt x="1128" y="-2" on="1"/>
        <pt x="1151" y="174" on="1"/>
        <pt x="752" y="174" on="1"/>
        <pt x="646" y="-14" on="1"/>
        <pt x="-52" y="23" on="1"/>
        <pt x="9" y="95" on="0"/>
        <pt x="868" y="1374" on="0"/>
        <pt x="911" y="1435" on="1"/>
        <pt x="1314" y="1441" on="1"/>
        <pt x="1314" y="1444" on="1"/>
        <pt x="1957" y="1442" on="1"/>
        <pt x="2721" y="1444" on="1"/>
        <pt x="2710" y="1062" on="1"/>
        <pt x="1866" y="1047" on="1"/>
        <pt x="1863" y="1023" on="0"/>
        <pt x="1856" y="909" on="0"/>
        <pt x="1854" y="880" on="1"/>
        <pt x="2128" y="883" on="0"/>
        <pt x="2262" y="883" on="1"/>
        <pt x="2262" y="883" on="0"/>
        <pt x="2454" y="883" on="1"/>
        <pt x="2433" y="560" on="1"/>
        <pt x="2417" y="556" on="0"/>
        <pt x="2184" y="556" on="1"/>
        <pt x="1854" y="556" on="1"/>
        <pt x="1856" y="349" on="1"/>
      </contour>
      <contour>
        <pt x="1169" y="545" on="1"/>
        <pt x="1187" y="814" on="0"/>
        <pt x="1205" y="1022" on="1"/>
        <pt x="920" y="541" on="1"/>
      </contour>
    </TTGlyph>
    <TTGlyph name="Aacute" xMin="71" yMin="-30" xMax="2205" yMax="2089">
      <component glyphName="acute" x="943" y="439" flags="0x1004"/>
      <component glyphName="A" x="0" y="0" flags="0x1204"/>
    </TTGlyph>
    <TTGlyph name="Abreve" xMin="71" yMin="-30" xMax="2205" yMax="1958">
      <component glyphName="breve" x="780" y="493" flags="0x1004"/>
      <component glyphName="A" x="0" y="0" flags="0x1204"/>
    </TTGlyph>
    <TTGlyph name="Acircumflex" xMin="71" yMin="-30" xMax="2205" yMax="2205">
      <component glyphName="circumflex" x="626" y="402" flags="0x1004"/>
      <component glyphName="A" x="0" y="0" flags="0x1204"/>
    </TTGlyph>
    <TTGlyph name="Adieresis" xMin="71" yMin="-30" xMax="2205" yMax="2004">
      <component glyphName="dieresis" x="584" y="426" flags="0x1004"/>
      <component glyphName="A" x="0" y="0" flags="0x1204"/>
    </TTGlyph>
    <TTGlyph name="Agrave" xMin="71" yMin="-30" xMax="2205" yMax="2119">
      <component glyphName="grave" x="723" y="449" flags="0x1004"/>
      <component glyphName="A" x="0" y="0" flags="0x1204"/>
    </TTGlyph>
    <TTGlyph name="Amacron" xMin="71" yMin="-30" xMax="2205" yMax="1968">
      <component glyphName="macron" x="488" y="1060" flags="0x1004"/>
      <component glyphName="A" x="0" y="0" flags="0x1204"/>
    </TTGlyph>
    <TTGlyph name="Aogonek" xMin="71" yMin="-538" xMax="2205" yMax="1451">
      <component glyphName="ogonek" x="1697" y="50" flags="0x1004"/>
      <component glyphName="A" x="0" y="0" flags="0x1004"/>
    </TTGlyph>
    <TTGlyph name="Aring" xMin="71" yMin="-30" xMax="2205" yMax="2098">
      <component glyphName="ring" x="814" y="361" flags="0x1004"/>
      <component glyphName="A" x="0" y="0" flags="0x1204"/>
    </TTGlyph>
    <TTGlyph name="Atilde" xMin="71" yMin="-30" xMax="2205" yMax="2134">
      <component glyphName="tilde" x="623" y="430" flags="0x1004"/>
      <component glyphName="A" x="0" y="0" flags="0x1204"/>
    </TTGlyph>
    <TTGlyph name="B" xMin="204" yMin="-25" xMax="2235" yMax="1462">
      <contour>
        <pt x="974" y="627" on="1"/>
        <pt x="949" y="281" on="1"/>
        <pt x="1175" y="281" on="0"/>
        <pt x="1452" y="342" on="0"/>
        <pt x="1564" y="414" on="0"/>
        <pt x="1564" y="460" on="1"/>
        <pt x="1564" y="559" on="0"/>
        <pt x="1276" y="627" on="0"/>
      </contour>
      <contour>
        <pt x="1117" y="858" on="1"/>
        <pt x="1509" y="858" on="0"/>
        <pt x="1509" y="1020" on="1"/>
        <pt x="1506" y="1161" on="0"/>
        <pt x="1103" y="1161" on="1"/>
        <pt x="1067" y="1161" on="0"/>
        <pt x="1014" y="1154" on="1"/>
        <pt x="1002" y="1050" on="0"/>
        <pt x="992" y="858" on="1"/>
      </contour>
      <contour>
        <pt x="1867" y="820" on="1"/>
        <pt x="2235" y="761" on="0"/>
        <pt x="2235" y="461" on="1"/>
        <pt x="2235" y="90" on="0"/>
        <pt x="1557" y="2" on="1"/>
        <pt x="1352" y="-24" on="0"/>
        <pt x="908" y="-25" on="0"/>
        <pt x="324" y="-10" on="0"/>
        <pt x="238" y="-4" on="1"/>
        <pt x="204" y="5" on="0"/>
        <pt x="204" y="35" on="1"/>
        <pt x="204" y="43" on="1"/>
        <pt x="223" y="421" on="0"/>
        <pt x="265" y="1022" on="1"/>
        <pt x="297" y="1451" on="1"/>
        <pt x="572" y="1462" on="0"/>
        <pt x="1256" y="1462" on="1"/>
        <pt x="1686" y="1462" on="0"/>
        <pt x="2173" y="1281" on="0"/>
        <pt x="2173" y="1104" on="1"/>
        <pt x="2173" y="1019" on="0"/>
        <pt x="1991" y="850" on="0"/>
      </contour>
    </TTGlyph>
    <TTGlyph name="C" xMin="133" yMin="-45" xMax="1536" yMax="1481">
      <contour>
        <pt x="133" y="704" on="1"/>
        <pt x="133" y="1056" on="0"/>
        <pt x="411" y="1249" on="1"/>
        <pt x="744" y="1481" on="0"/>
        <pt x="1343" y="1481" on="1"/>
        <pt x="1447" y="1481" on="0"/>
        <pt x="1536" y="1471" on="1"/>
        <pt x="1536" y="997" on="1"/>
        <pt x="1405" y="1015" on="0"/>
        <pt x="1100" y="1015" on="0"/>
        <pt x="903" y="869" on="0"/>
        <pt x="903" y="710" on="1"/>
        <pt x="903" y="374" on="0"/>
        <pt x="1262" y="374" on="1"/>
        <pt x="1353" y="374" on="0"/>
        <pt x="1536" y="409" on="1"/>
        <pt x="1536" y="-30" on="1"/>
        <pt x="1400" y="-45" on="0"/>
        <pt x="1258" y="-45" on="1"/>
        <pt x="523" y="-45" on="0"/>
        <pt x="253" y="307" on="1"/>
        <pt x="133" y="463" on="0"/>
      </contour>
    </TTGlyph>
    <TTGlyph name="Cacute" xMin="133" yMin="-45" xMax="1536" yMax="2089">
      <component glyphName="acute" x="818" y="439" flags="0x1004"/>
      <component glyphName="C" x="0" y="0" flags="0x1204"/>
    </TTGlyph>
    <TTGlyph name="Ccaron" xMin="133" yMin="-45" xMax="1536" yMax="2235">
      <component glyphName="caron" x="563" y="399" flags="0x1004"/>
      <component glyphName="C" x="0" y="0" flags="0x1204"/>
    </TTGlyph>
    <TTGlyph name="Ccedilla" xMin="133" yMin="-618" xMax="1536" yMax="1481">
      <component glyphName="cedilla" x="903" y="-8" flags="0x1004"/>
      <component glyphName="C" x="0" y="0" flags="0x1204"/>
    </TTGlyph>
    <TTGlyph name="Ccircumflex" xMin="133" yMin="-45" xMax="1536" yMax="2205">
      <component glyphName="circumflex" x="510" y="402" flags="0x1004"/>
      <component glyphName="C" x="0" y="0" flags="0x1204"/>
    </TTGlyph>
    <TTGlyph name="Cdotaccent" xMin="133" yMin="-45" xMax="1536" yMax="2045">
      <component glyphName="dotaccent" x="773" y="255" flags="0x1004"/>
      <component glyphName="C" x="0" y="0" flags="0x1204"/>
    </TTGlyph>
    <TTGlyph name="D" xMin="153" yMin="-22" xMax="2188" yMax="1461">
      <contour>
        <pt x="955" y="1064" on="1"/>
        <pt x="922" y="360" on="1"/>
        <pt x="1186" y="363" on="0"/>
        <pt x="1292" y="405" on="1"/>
        <pt x="1490" y="482" on="0"/>
        <pt x="1490" y="718" on="1"/>
        <pt x="1490" y="913" on="0"/>
        <pt x="1290" y="1072" on="0"/>
        <pt x="1172" y="1072" on="1"/>
        <pt x="1095" y="1072" on="0"/>
      </contour>
      <contour>
        <pt x="153" y="-22" on="1"/>
        <pt x="172" y="96" on="0"/>
        <pt x="251" y="979" on="0"/>
        <pt x="267" y="1409" on="1"/>
        <pt x="889" y="1461" on="0"/>
        <pt x="1287" y="1461" on="1"/>
        <pt x="1781" y="1461" on="0"/>
        <pt x="2018" y="1230" on="1"/>
        <pt x="2188" y="1064" on="0"/>
        <pt x="2188" y="783" on="1"/>
        <pt x="2188" y="360" on="0"/>
        <pt x="1946" y="178" on="1"/>
        <pt x="1781" y="54" on="0"/>
        <pt x="1148" y="-22" on="0"/>
        <pt x="576" y="-22" on="1"/>
      </contour>
    </TTGlyph>
    <TTGlyph name="Dcaron" xMin="153" yMin="-22" xMax="2188" yMax="2236">
      <component glyphName="caron" x="667" y="400" flags="0x1004"/>
      <component glyphName="D" x="0" y="0" flags="0x1204"/>
    </TTGlyph>
    <TTGlyph name="Dcroat" xMin="47" yMin="-22" xMax="2188" yMax="1461">
      <contour>
        <pt x="166" y="563" on="1"/>
        <pt x="44" y="563" on="0"/>
        <pt x="47" y="591" on="1"/>
        <pt x="84" y="869" on="1"/>
        <pt x="237" y="872" on="1"/>
        <pt x="258" y="1159" on="0"/>
        <pt x="267" y="1409" on="1"/>
        <pt x="889" y="1461" on="0"/>
        <pt x="1287" y="1461" on="1"/>
        <pt x="1781" y="1461" on="0"/>
        <pt x="2018" y="1230" on="1"/>
        <pt x="2188" y="1064" on="0"/>
        <pt x="2188" y="783" on="1"/>
        <pt x="2188" y="360" on="0"/>
        <pt x="1946" y="178" on="1"/>
        <pt x="1781" y="54" on="0"/>
        <pt x="1148" y="-22" on="0"/>
        <pt x="576" y="-22" on="1"/>
        <pt x="153" y="-22" on="1"/>
        <pt x="176" y="117" on="0"/>
        <pt x="214" y="563" on="1"/>
      </contour>
      <contour>
        <pt x="931" y="559" on="1"/>
        <pt x="922" y="360" on="1"/>
        <pt x="1186" y="363" on="0"/>
        <pt x="1292" y="405" on="1"/>
        <pt x="1490" y="482" on="0"/>
        <pt x="1490" y="718" on="1"/>
        <pt x="1490" y="913" on="0"/>
        <pt x="1290" y="1072" on="0"/>
        <pt x="1172" y="1072" on="1"/>
        <pt x="1095" y="1072" on="0"/>
        <pt x="955" y="1064" on="1"/>
        <pt x="946" y="873" on="1"/>
        <pt x="1107" y="873" on="1"/>
        <pt x="1146" y="873" on="0"/>
        <pt x="1164" y="859" on="0"/>
        <pt x="1163" y="844" on="1"/>
        <pt x="1147" y="559" on="1"/>
      </contour>
    </TTGlyph>
    <TTGlyph name="E" xMin="175" yMin="-9" xMax="1966" yMax="1446">
      <contour>
        <pt x="1955" y="-9" on="1"/>
        <pt x="1318" y="-9" on="1"/>
        <pt x="175" y="-1" on="1"/>
        <pt x="192" y="351" on="1"/>
        <pt x="243" y="1410" on="0"/>
        <pt x="243" y="1437" on="1"/>
        <pt x="363" y="1442" on="0"/>
        <pt x="400" y="1442" on="1"/>
        <pt x="1412" y="1442" on="1"/>
        <pt x="1749" y="1442" on="0"/>
        <pt x="1957" y="1446" on="1"/>
        <pt x="1916" y="1069" on="1"/>
        <pt x="1674" y="1047" on="0"/>
        <pt x="952" y="1047" on="1"/>
        <pt x="949" y="1023" on="0"/>
        <pt x="942" y="909" on="0"/>
        <pt x="940" y="880" on="1"/>
        <pt x="1228" y="885" on="0"/>
        <pt x="1342" y="885" on="1"/>
        <pt x="1562" y="879" on="1"/>
        <pt x="1562" y="835" on="0"/>
        <pt x="1535" y="619" on="0"/>
        <pt x="1519" y="560" on="1"/>
        <pt x="1503" y="556" on="0"/>
        <pt x="1270" y="556" on="1"/>
        <pt x="927" y="556" on="1"/>
        <pt x="916" y="361" on="1"/>
        <pt x="1966" y="349" on="1"/>
        <pt x="1966" y="160" on="0"/>
        <pt x="1955" y="-1" on="0"/>
      </contour>
    </TTGlyph>
    <TTGlyph name="Eacute" xMin="175" yMin="-9" xMax="1966" yMax="2089">
      <component glyphName="acute" x="871" y="439" flags="0x1004"/>
      <component glyphName="E" x="0" y="0" flags="0x1204"/>
    </TTGlyph>
    <TTGlyph name="Ecaron" xMin="175" yMin="-9" xMax="1966" yMax="2236">
      <component glyphName="caron" x="572" y="400" flags="0x1004"/>
      <component glyphName="E" x="0" y="0" flags="0x1204"/>
    </TTGlyph>
    <TTGlyph name="Ecircumflex" xMin="175" yMin="-9" xMax="1966" yMax="2205">
      <component glyphName="circumflex" x="554" y="402" flags="0x1004"/>
      <component glyphName="E" x="0" y="0" flags="0x1204"/>
    </TTGlyph>
    <TTGlyph name="Edieresis" xMin="175" yMin="-9" xMax="1966" yMax="2004">
      <component glyphName="dieresis" x="512" y="426" flags="0x1004"/>
      <component glyphName="E" x="0" y="0" flags="0x1204"/>
    </TTGlyph>
    <TTGlyph name="Egrave" xMin="175" yMin="-9" xMax="1966" yMax="2119">
      <component glyphName="grave" x="651" y="449" flags="0x1004"/>
      <component glyphName="E" x="0" y="0" flags="0x1204"/>
    </TTGlyph>
    <TTGlyph name="Emacron" xMin="175" yMin="-9" xMax="1966" yMax="1968">
      <component glyphName="macron" x="416" y="1060" flags="0x1004"/>
      <component glyphName="E" x="0" y="0" flags="0x1204"/>
    </TTGlyph>
    <TTGlyph name="Eogonek" xMin="175" yMin="-576" xMax="1966" yMax="1446">
      <component glyphName="ogonek" x="914" y="12" flags="0x1004"/>
      <component glyphName="E" x="0" y="0" flags="0x1004"/>
    </TTGlyph>
    <TTGlyph name="Eth" xMin="47" yMin="-22" xMax="2188" yMax="1461">
      <contour>
        <pt x="153" y="-22" on="1"/>
        <pt x="173" y="105" on="0"/>
        <pt x="214" y="563" on="1"/>
        <pt x="166" y="563" on="1"/>
        <pt x="69" y="563" on="0"/>
        <pt x="46" y="583" on="0"/>
        <pt x="47" y="591" on="1"/>
        <pt x="84" y="869" on="1"/>
        <pt x="238" y="872" on="1"/>
        <pt x="257" y="1143" on="0"/>
        <pt x="267" y="1409" on="1"/>
        <pt x="889" y="1461" on="0"/>
        <pt x="1287" y="1461" on="1"/>
        <pt x="1781" y="1461" on="0"/>
        <pt x="2018" y="1230" on="1"/>
        <pt x="2188" y="1064" on="0"/>
        <pt x="2188" y="783" on="1"/>
        <pt x="2188" y="360" on="0"/>
        <pt x="1946" y="178" on="1"/>
        <pt x="1781" y="54" on="0"/>
        <pt x="1148" y="-22" on="0"/>
        <pt x="576" y="-22" on="1"/>
      </contour>
      <contour>
        <pt x="931" y="559" on="1"/>
        <pt x="922" y="360" on="1"/>
        <pt x="1186" y="363" on="0"/>
        <pt x="1292" y="405" on="1"/>
        <pt x="1490" y="482" on="0"/>
        <pt x="1490" y="718" on="1"/>
        <pt x="1490" y="913" on="0"/>
        <pt x="1290" y="1072" on="0"/>
        <pt x="1172" y="1072" on="1"/>
        <pt x="1095" y="1072" on="0"/>
        <pt x="955" y="1064" on="1"/>
        <pt x="946" y="873" on="1"/>
        <pt x="1135" y="873" on="1"/>
        <pt x="1146" y="873" on="0"/>
        <pt x="1164" y="859" on="0"/>
        <pt x="1163" y="844" on="1"/>
        <pt x="1147" y="559" on="1"/>
      </contour>
    </TTGlyph>
    <TTGlyph name="Euro" xMin="47" yMin="-45" xMax="1576" yMax="1463">
      <contour>
        <pt x="1576" y="-30" on="1"/>
        <pt x="1441" y="-45" on="0"/>
        <pt x="1126" y="-45" on="0"/>
        <pt x="855" y="-11" on="0"/>
        <pt x="588" y="71" on="0"/>
        <pt x="380" y="197" on="0"/>
        <pt x="225" y="395" on="0"/>
        <pt x="194" y="520" on="1"/>
        <pt x="50" y="520" on="1"/>
        <pt x="60" y="655" on="1"/>
        <pt x="174" y="655" on="1"/>
        <pt x="173" y="670" on="0"/>
        <pt x="173" y="725" on="0"/>
        <pt x="174" y="736" on="1"/>
        <pt x="47" y="736" on="1"/>
        <pt x="58" y="875" on="1"/>
        <pt x="193" y="875" on="1"/>
        <pt x="306" y="1322" on="0"/>
        <pt x="952" y="1430" on="1"/>
        <pt x="1148" y="1462" on="0"/>
        <pt x="1487" y="1463" on="0"/>
        <pt x="1576" y="1453" on="1"/>
        <pt x="1576" y="1047" on="1"/>
        <pt x="1471" y="1063" on="0"/>
        <pt x="1378" y="1063" on="1"/>
        <pt x="1207" y="1063" on="0"/>
        <pt x="994" y="961" on="0"/>
        <pt x="963" y="876" on="1"/>
        <pt x="1272" y="876" on="1"/>
        <pt x="1267" y="741" on="1"/>
        <pt x="1051" y="739" on="0"/>
        <pt x="944" y="739" on="1"/>
        <pt x="943" y="730" on="0"/>
        <pt x="943" y="682" on="0"/>
        <pt x="946" y="656" on="1"/>
        <pt x="1260" y="656" on="1"/>
        <pt x="1263" y="521" on="1"/>
        <pt x="1175" y="519" on="0"/>
        <pt x="967" y="519" on="1"/>
        <pt x="1056" y="364" on="0"/>
        <pt x="1333" y="364" on="1"/>
        <pt x="1447" y="364" on="0"/>
        <pt x="1576" y="389" on="1"/>
      </contour>
    </TTGlyph>
    <TTGlyph name="F" xMin="177" yMin="-6" xMax="1951" yMax="1449">
      <contour>
        <pt x="906" y="0" on="1"/>
        <pt x="906" y="0" on="0"/>
        <pt x="177" y="-6" on="1"/>
        <pt x="178" y="48" on="0"/>
        <pt x="189" y="278" on="0"/>
        <pt x="190" y="324" on="1"/>
        <pt x="210" y="1439" on="1"/>
        <pt x="1178" y="1439" on="1"/>
        <pt x="1816" y="1449" on="1"/>
        <pt x="1903" y="1449" on="0"/>
        <pt x="1951" y="1437" on="1"/>
        <pt x="1951" y="1411" on="0"/>
        <pt x="1932" y="1284" on="0"/>
        <pt x="1929" y="1254" on="1"/>
        <pt x="1910" y="1084" on="1"/>
        <pt x="1833" y="1073" on="0"/>
        <pt x="1755" y="1071" on="1"/>
        <pt x="1755" y="1071" on="0"/>
        <pt x="949" y="1061" on="1"/>
        <pt x="943" y="993" on="0"/>
        <pt x="939" y="834" on="1"/>
        <pt x="1436" y="839" on="0"/>
        <pt x="1575" y="839" on="0"/>
        <pt x="1633" y="827" on="1"/>
        <pt x="1633" y="756" on="0"/>
        <pt x="1588" y="529" on="1"/>
        <pt x="1451" y="515" on="0"/>
        <pt x="1288" y="514" on="1"/>
        <pt x="925" y="512" on="1"/>
      </contour>
    </TTGlyph>
    <TTGlyph name="G" xMin="126" yMin="-45" xMax="2020" yMax="1481">
      <contour>
        <pt x="1884" y="978" on="1"/>
        <pt x="1633" y="1040" on="0"/>
        <pt x="1405" y="1040" on="1"/>
        <pt x="1038" y="1040" on="0"/>
        <pt x="939" y="842" on="1"/>
        <pt x="909" y="782" on="0"/>
        <pt x="909" y="705" on="1"/>
        <pt x="909" y="537" on="0"/>
        <pt x="1087" y="361" on="0"/>
        <pt x="1240" y="361" on="1"/>
        <pt x="1339" y="361" on="0"/>
        <pt x="1472" y="441" on="0"/>
        <pt x="1503" y="501" on="1"/>
        <pt x="1265" y="501" on="1"/>
        <pt x="1278" y="790" on="1"/>
        <pt x="1286" y="789" on="0"/>
        <pt x="1997" y="782" on="0"/>
        <pt x="2020" y="777" on="1"/>
        <pt x="2020" y="0" on="1"/>
        <pt x="1832" y="-10" on="1"/>
        <pt x="1802" y="194" on="1"/>
        <pt x="1715" y="87" on="0"/>
        <pt x="1307" y="-45" on="0"/>
        <pt x="957" y="-45" on="0"/>
        <pt x="665" y="9" on="0"/>
        <pt x="413" y="126" on="0"/>
        <pt x="230" y="295" on="0"/>
        <pt x="126" y="541" on="0"/>
        <pt x="126" y="863" on="0"/>
        <pt x="192" y="1000" on="1"/>
        <pt x="258" y="1137" on="0"/>
        <pt x="370" y="1226" on="1"/>
        <pt x="689" y="1481" on="0"/>
        <pt x="1325" y="1481" on="1"/>
        <pt x="1432" y="1481" on="0"/>
        <pt x="1785" y="1444" on="0"/>
        <pt x="1884" y="1419" on="1"/>
      </contour>
    </TTGlyph>
    <TTGlyph name="Gbreve" xMin="126" yMin="-45" xMax="2020" yMax="1958">
      <component glyphName="breve" x="706" y="493" flags="0x1004"/>
      <component glyphName="G" x="0" y="0" flags="0x1204"/>
    </TTGlyph>
    <TTGlyph name="Gcircumflex" xMin="126" yMin="-45" xMax="2020" yMax="2205">
      <component glyphName="circumflex" x="553" y="402" flags="0x1004"/>
      <component glyphName="G" x="0" y="0" flags="0x1204"/>
    </TTGlyph>
    <TTGlyph name="Gcommaaccent" xMin="126" yMin="-886" xMax="2020" yMax="1481">
      <component glyphName="uni0326" x="732" y="1" flags="0x1004"/>
      <component glyphName="G" x="0" y="0" flags="0x1204"/>
    </TTGlyph>
    <TTGlyph name="Gdotaccent" xMin="126" yMin="-45" xMax="2020" yMax="2045">
      <component glyphName="dotaccent" x="822" y="255" flags="0x1004"/>
      <component glyphName="G" x="0" y="0" flags="0x1204"/>
    </TTGlyph>
    <TTGlyph name="H" xMin="226" yMin="-17" xMax="2237" yMax="1454">
      <contour>
        <pt x="1519" y="1440" on="1"/>
        <pt x="1631" y="1438" on="1"/>
        <pt x="2237" y="1454" on="1"/>
        <pt x="2201" y="717" on="1"/>
        <pt x="2180" y="2" on="1"/>
        <pt x="1462" y="-11" on="1"/>
        <pt x="1462" y="164" on="0"/>
        <pt x="1476" y="432" on="1"/>
        <pt x="942" y="432" on="1"/>
        <pt x="916" y="2" on="1"/>
        <pt x="226" y="-17" on="1"/>
        <pt x="226" y="155" on="0"/>
        <pt x="235" y="402" on="1"/>
        <pt x="256" y="966" on="1"/>
        <pt x="257" y="997" on="0"/>
        <pt x="281" y="1406" on="0"/>
        <pt x="282" y="1444" on="1"/>
        <pt x="438" y="1453" on="0"/>
        <pt x="969" y="1453" on="1"/>
        <pt x="988" y="1453" on="1"/>
        <pt x="950" y="943" on="1"/>
        <pt x="1488" y="943" on="1"/>
      </contour>
    </TTGlyph>
    <TTGlyph name="Hbar" xMin="62" yMin="-17" xMax="2420" yMax="1454">
      <contour>
        <pt x="1498" y="1134" on="1"/>
        <pt x="961" y="1134" on="1"/>
        <pt x="950" y="943" on="1"/>
        <pt x="1488" y="943" on="1"/>
        <pt x="1486" y="953" on="0"/>
      </contour>
      <contour>
        <pt x="1519" y="1440" on="1"/>
        <pt x="1631" y="1438" on="1"/>
        <pt x="2237" y="1454" on="1"/>
        <pt x="2233" y="1384" on="0"/>
        <pt x="2228" y="1315" on="1"/>
        <pt x="2420" y="1315" on="1"/>
        <pt x="2413" y="1138" on="1"/>
        <pt x="2322" y="1137" on="0"/>
        <pt x="2219" y="1137" on="1"/>
        <pt x="2201" y="798" on="0"/>
        <pt x="2201" y="717" on="1"/>
        <pt x="2180" y="2" on="1"/>
        <pt x="1462" y="-11" on="1"/>
        <pt x="1462" y="164" on="0"/>
        <pt x="1476" y="432" on="1"/>
        <pt x="942" y="432" on="1"/>
        <pt x="916" y="2" on="1"/>
        <pt x="226" y="-17" on="1"/>
        <pt x="226" y="160" on="0"/>
        <pt x="235" y="402" on="1"/>
        <pt x="262" y="1133" on="1"/>
        <pt x="62" y="1133" on="1"/>
        <pt x="74" y="1306" on="1"/>
        <pt x="273" y="1306" on="1"/>
        <pt x="277" y="1397" on="0"/>
        <pt x="281" y="1430" on="0"/>
        <pt x="282" y="1444" on="1"/>
        <pt x="438" y="1453" on="0"/>
        <pt x="969" y="1453" on="1"/>
        <pt x="988" y="1453" on="1"/>
        <pt x="974" y="1310" on="1"/>
        <pt x="1509" y="1312" on="1"/>
      </contour>
    </TTGlyph>
    <TTGlyph name="Hcircumflex" xMin="226" yMin="-17" xMax="2237" yMax="2205">
      <component glyphName="circumflex" x="701" y="402" flags="0x1004"/>
      <component glyphName="H" x="0" y="0" flags="0x1204"/>
    </TTGlyph>
    <TTGlyph name="I" xMin="245" yMin="0" xMax="994" yMax="1449">
      <contour>
        <pt x="816" y="1447" on="1"/>
        <pt x="990" y="1449" on="1"/>
        <pt x="994" y="1424" on="0"/>
        <pt x="994" y="1396" on="1"/>
        <pt x="989" y="1262" on="1"/>
        <pt x="962" y="10" on="1"/>
        <pt x="771" y="5" on="1"/>
        <pt x="771" y="5" on="0"/>
        <pt x="248" y="0" on="1"/>
        <pt x="245" y="29" on="0"/>
        <pt x="245" y="74" on="1"/>
        <pt x="245" y="74" on="0"/>
        <pt x="279" y="1434" on="1"/>
        <pt x="500" y="1447" on="0"/>
      </contour>
    </TTGlyph>
    <TTGlyph name="IJ" xMin="245" yMin="-129" xMax="2392" yMax="1452">
      <component glyphName="J" x="1183" y="0" flags="0x1004"/>
      <component glyphName="I" x="0" y="0" flags="0x1004"/>
    </TTGlyph>
    <TTGlyph name="Iacute" xMin="245" yMin="0" xMax="994" yMax="2089">
      <component glyphName="acute" x="289" y="439" flags="0x1004"/>
      <component glyphName="I" x="0" y="0" flags="0x1204"/>
    </TTGlyph>
    <TTGlyph name="Ibreve" xMin="245" yMin="0" xMax="994" yMax="1958">
      <component glyphName="breve" x="245" y="493" flags="0x1004"/>
      <component glyphName="I" x="0" y="0" flags="0x1204"/>
    </TTGlyph>
    <TTGlyph name="Icircumflex" xMin="245" yMin="0" xMax="1044" yMax="2204">
      <component glyphName="circumflex" x="96" y="401" flags="0x1004"/>
      <component glyphName="I" x="0" y="0" flags="0x1204"/>
    </TTGlyph>
    <TTGlyph name="Idieresis" xMin="143" yMin="0" xMax="1155" yMax="2004">
      <component glyphName="dieresis" x="54" y="426" flags="0x1004"/>
      <component glyphName="I" x="0" y="0" flags="0x1204"/>
    </TTGlyph>
    <TTGlyph name="Idotaccent" xMin="245" yMin="0" xMax="994" yMax="2045">
      <component glyphName="dotaccent" x="368" y="255" flags="0x1004"/>
      <component glyphName="I" x="0" y="0" flags="0x1204"/>
    </TTGlyph>
    <TTGlyph name="Igrave" xMin="245" yMin="0" xMax="994" yMax="2119">
      <component glyphName="grave" x="346" y="449" flags="0x1004"/>
      <component glyphName="I" x="0" y="0" flags="0x1204"/>
    </TTGlyph>
    <TTGlyph name="Imacron" xMin="210" yMin="0" xMax="1085" yMax="1968">
      <component glyphName="macron" x="-47" y="1060" flags="0x1004"/>
      <component glyphName="I" x="0" y="0" flags="0x1204"/>
    </TTGlyph>
    <TTGlyph name="Iogonek" xMin="245" yMin="-546" xMax="994" yMax="1449">
      <component glyphName="ogonek" x="280" y="42" flags="0x1004"/>
      <component glyphName="I" x="0" y="0" flags="0x1204"/>
    </TTGlyph>
    <TTGlyph name="Itilde" xMin="151" yMin="0" xMax="1148" yMax="2134">
      <component glyphName="tilde" x="88" y="430" flags="0x1004"/>
      <component glyphName="I" x="0" y="0" flags="0x1204"/>
    </TTGlyph>
    <TTGlyph name="J" xMin="96" yMin="-129" xMax="1209" yMax="1452">
      <contour>
        <pt x="407" y="689" on="1"/>
        <pt x="407" y="1441" on="1"/>
        <pt x="551" y="1447" on="0"/>
        <pt x="1072" y="1447" on="0"/>
        <pt x="1209" y="1452" on="1"/>
        <pt x="1205" y="854" on="1"/>
        <pt x="1187" y="500" on="0"/>
        <pt x="1098" y="301" on="1"/>
        <pt x="1050" y="194" on="0"/>
        <pt x="982" y="120" on="1"/>
        <pt x="790" y="-88" on="0"/>
        <pt x="298" y="-129" on="1"/>
        <pt x="211" y="5" on="0"/>
        <pt x="96" y="236" on="1"/>
        <pt x="261" y="264" on="0"/>
        <pt x="407" y="480" on="0"/>
      </contour>
    </TTGlyph>
    <TTGlyph name="Jcircumflex" xMin="96" yMin="-129" xMax="1209" yMax="2205">
      <component glyphName="circumflex" x="251" y="402" flags="0x1004"/>
      <component glyphName="J" x="0" y="0" flags="0x1204"/>
    </TTGlyph>
    <TTGlyph name="K" xMin="180" yMin="-81" xMax="2293" yMax="1491">
      <contour>
        <pt x="2154" y="1248" on="1"/>
        <pt x="2154" y="1251" on="1"/>
        <pt x="2154" y="1251" on="0"/>
        <pt x="2158" y="1248" on="1"/>
      </contour>
      <contour>
        <pt x="858" y="1450" on="1"/>
        <pt x="955" y="1450" on="1"/>
        <pt x="967" y="1375" on="0"/>
        <pt x="967" y="1183" on="0"/>
        <pt x="951" y="925" on="0"/>
        <pt x="950" y="891" on="1"/>
        <pt x="1365" y="1415" on="1"/>
        <pt x="1430" y="1491" on="1"/>
        <pt x="1778" y="1366" on="0"/>
        <pt x="2154" y="1249" on="1"/>
        <pt x="2154" y="1242" on="1"/>
        <pt x="2034" y="1114" on="0"/>
        <pt x="1692" y="772" on="0"/>
        <pt x="1637" y="716" on="1"/>
        <pt x="2293" y="202" on="1"/>
        <pt x="1738" y="-27" on="1"/>
        <pt x="1632" y="-81" on="1"/>
        <pt x="1459" y="61" on="1"/>
        <pt x="1329" y="170" on="0"/>
        <pt x="998" y="470" on="0"/>
        <pt x="939" y="532" on="1"/>
        <pt x="923" y="76" on="1"/>
        <pt x="923" y="6" on="1"/>
        <pt x="403" y="-10" on="0"/>
        <pt x="186" y="-10" on="1"/>
        <pt x="180" y="76" on="0"/>
        <pt x="180" y="127" on="1"/>
        <pt x="180" y="127" on="0"/>
        <pt x="200" y="789" on="1"/>
        <pt x="221" y="1238" on="0"/>
        <pt x="221" y="1382" on="0"/>
        <pt x="227" y="1428" on="1"/>
        <pt x="272" y="1434" on="0"/>
        <pt x="736" y="1450" on="0"/>
      </contour>
    </TTGlyph>
    <TTGlyph name="Kcommaaccent" xMin="180" yMin="-922" xMax="2293" yMax="1491">
      <component glyphName="uni0326" x="899" y="-35" flags="0x1004"/>
      <component glyphName="K" x="0" y="0" flags="0x1204"/>
    </TTGlyph>
    <TTGlyph name="L" xMin="168" yMin="-6" xMax="1877" yMax="1452">
      <contour>
        <pt x="1829" y="-6" on="1"/>
        <pt x="422" y="-6" on="1"/>
        <pt x="255" y="-6" on="0"/>
        <pt x="168" y="0" on="1"/>
        <pt x="172" y="243" on="1"/>
        <pt x="180" y="570" on="1"/>
        <pt x="182" y="598" on="0"/>
        <pt x="213" y="1317" on="0"/>
        <pt x="221" y="1435" on="1"/>
        <pt x="372" y="1452" on="0"/>
        <pt x="819" y="1452" on="0"/>
        <pt x="965" y="1450" on="1"/>
        <pt x="942" y="950" on="1"/>
        <pt x="940" y="851" on="0"/>
        <pt x="917" y="360" on="1"/>
        <pt x="1688" y="378" on="1"/>
        <pt x="1804" y="378" on="0"/>
        <pt x="1877" y="367" on="1"/>
        <pt x="1877" y="303" on="0"/>
        <pt x="1861" y="200" on="1"/>
      </contour>
    </TTGlyph>
    <TTGlyph name="Lacute" xMin="168" yMin="-6" xMax="1877" yMax="2089">
      <component glyphName="acute" x="818" y="439" flags="0x1004"/>
      <component glyphName="L" x="0" y="0" flags="0x1204"/>
    </TTGlyph>
    <TTGlyph name="Lcaron" xMin="168" yMin="-6" xMax="2598" yMax="1481">
      <component glyphName="comma" x="2028" y="1134" flags="0x1004"/>
      <component glyphName="L" x="0" y="0" flags="0x1004"/>
    </TTGlyph>
    <TTGlyph name="Lcommaaccent" xMin="168" yMin="-848" xMax="1877" yMax="1452">
      <component glyphName="uni0326" x="681" y="39" flags="0x1004"/>
      <component glyphName="L" x="0" y="0" flags="0x1204"/>
    </TTGlyph>
    <TTGlyph name="Ldot" xMin="168" yMin="-6" xMax="1877" yMax="1452">
      <component glyphName="uni2219" x="1144" y="16" flags="0x1004"/>
      <component glyphName="L" x="0" y="0" flags="0x1204"/>
    </TTGlyph>
    <TTGlyph name="Lslash" xMin="34" yMin="-6" xMax="1877" yMax="1452">
      <contour>
        <pt x="1829" y="-6" on="1"/>
        <pt x="419" y="-6" on="1"/>
        <pt x="250" y="-6" on="0"/>
        <pt x="158" y="0" on="1"/>
        <pt x="161" y="40" on="0"/>
        <pt x="176" y="503" on="0"/>
        <pt x="178" y="521" on="1"/>
        <pt x="41" y="486" on="1"/>
        <pt x="34" y="827" on="1"/>
        <pt x="85" y="839" on="0"/>
        <pt x="193" y="865" on="1"/>
        <pt x="212" y="1310" on="0"/>
        <pt x="221" y="1435" on="1"/>
        <pt x="372" y="1452" on="0"/>
        <pt x="819" y="1452" on="0"/>
        <pt x="965" y="1450" on="1"/>
        <pt x="946" y="1047" on="1"/>
        <pt x="1292" y="1131" on="0"/>
        <pt x="1350" y="1145" on="1"/>
        <pt x="1350" y="1111" on="1"/>
        <pt x="1350" y="1086" on="0"/>
        <pt x="1322" y="802" on="0"/>
        <pt x="1314" y="768" on="1"/>
        <pt x="1191" y="738" on="0"/>
        <pt x="992" y="697" on="0"/>
        <pt x="927" y="683" on="1"/>
        <pt x="924" y="642" on="0"/>
        <pt x="908" y="431" on="0"/>
        <pt x="903" y="360" on="1"/>
        <pt x="1688" y="378" on="1"/>
        <pt x="1804" y="378" on="0"/>
        <pt x="1877" y="367" on="1"/>
        <pt x="1877" y="303" on="0"/>
        <pt x="1861" y="200" on="1"/>
      </contour>
    </TTGlyph>
    <TTGlyph name="M" xMin="134" yMin="-9" xMax="2561" yMax="1456">
      <contour>
        <pt x="2561" y="3" on="1"/>
        <pt x="1939" y="-9" on="1"/>
        <pt x="1901" y="372" on="0"/>
        <pt x="1893" y="518" on="1"/>
        <pt x="1884" y="676" on="1"/>
        <pt x="1470" y="21" on="1"/>
        <pt x="1214" y="21" on="0"/>
        <pt x="1177" y="23" on="1"/>
        <pt x="977" y="419" on="0"/>
        <pt x="880" y="635" on="1"/>
        <pt x="807" y="-4" on="1"/>
        <pt x="706" y="-7" on="0"/>
        <pt x="325" y="-7" on="0"/>
        <pt x="134" y="4" on="1"/>
        <pt x="147" y="173" on="1"/>
        <pt x="163" y="338" on="0"/>
        <pt x="220" y="1437" on="1"/>
        <pt x="225" y="1437" on="1"/>
        <pt x="666" y="1437" on="0"/>
        <pt x="973" y="1447" on="1"/>
        <pt x="1009" y="1370" on="1"/>
        <pt x="1331" y="779" on="1"/>
        <pt x="1725" y="1454" on="1"/>
        <pt x="2458" y="1456" on="1"/>
        <pt x="2465" y="1350" on="0"/>
        <pt x="2521" y="580" on="1"/>
        <pt x="2554" y="126" on="1"/>
      </contour>
    </TTGlyph>
    <TTGlyph name="N" xMin="149" yMin="-45" xMax="2224" yMax="1450">
      <contour>
        <pt x="187" y="1431" on="1"/>
        <pt x="1076" y="1450" on="1"/>
        <pt x="1087" y="1437" on="0"/>
        <pt x="1459" y="1022" on="0"/>
        <pt x="1620" y="839" on="1"/>
        <pt x="1620" y="1279" on="1"/>
        <pt x="1622" y="1392" on="0"/>
        <pt x="1626" y="1440" on="1"/>
        <pt x="2222" y="1447" on="1"/>
        <pt x="2224" y="958" on="1"/>
        <pt x="2224" y="777" on="0"/>
        <pt x="2220" y="455" on="1"/>
        <pt x="2217" y="228" on="1"/>
        <pt x="2219" y="62" on="1"/>
        <pt x="2198" y="58" on="0"/>
        <pt x="1947" y="31" on="0"/>
        <pt x="1532" y="-45" on="1"/>
        <pt x="787" y="623" on="1"/>
        <pt x="773" y="76" on="0"/>
        <pt x="773" y="23" on="1"/>
        <pt x="773" y="12" on="1"/>
        <pt x="722" y="11" on="0"/>
        <pt x="271" y="-9" on="0"/>
        <pt x="149" y="-9" on="1"/>
        <pt x="154" y="64" on="0"/>
        <pt x="154" y="279" on="0"/>
        <pt x="187" y="916" on="0"/>
        <pt x="187" y="1077" on="1"/>
      </contour>
    </TTGlyph>
    <TTGlyph name="Nacute" xMin="149" yMin="-45" xMax="2224" yMax="2089">
      <component glyphName="acute" x="989" y="439" flags="0x1004"/>
      <component glyphName="N" x="0" y="0" flags="0x1204"/>
    </TTGlyph>
    <TTGlyph name="Ncaron" xMin="149" yMin="-45" xMax="2224" yMax="2236">
      <component glyphName="caron" x="689" y="400" flags="0x1004"/>
      <component glyphName="N" x="0" y="0" flags="0x1204"/>
    </TTGlyph>
    <TTGlyph name="Ncommaaccent" xMin="149" yMin="-886" xMax="2224" yMax="1450">
      <component glyphName="uni0326" x="850" y="1" flags="0x1004"/>
      <component glyphName="N" x="0" y="0" flags="0x1204"/>
    </TTGlyph>
    <TTGlyph name="Ntilde" xMin="149" yMin="-45" xMax="2224" yMax="2134">
      <component glyphName="tilde" x="669" y="430" flags="0x1004"/>
      <component glyphName="N" x="0" y="0" flags="0x1204"/>
    </TTGlyph>
    <TTGlyph name="O" xMin="126" yMin="-45" xMax="2439" yMax="1481">
      <contour>
        <pt x="1283" y="361" on="1"/>
        <pt x="1459" y="361" on="0"/>
        <pt x="1646" y="551" on="0"/>
        <pt x="1646" y="924" on="0"/>
        <pt x="1456" y="1066" on="0"/>
        <pt x="1122" y="1066" on="0"/>
        <pt x="927" y="881" on="0"/>
        <pt x="927" y="705" on="1"/>
        <pt x="927" y="361" on="0"/>
      </contour>
      <contour>
        <pt x="126" y="689" on="1"/>
        <pt x="126" y="1071" on="0"/>
        <pt x="745" y="1481" on="0"/>
        <pt x="1841" y="1481" on="0"/>
        <pt x="2439" y="1101" on="0"/>
        <pt x="2439" y="753" on="1"/>
        <pt x="2439" y="376" on="0"/>
        <pt x="1805" y="-45" on="0"/>
        <pt x="707" y="-45" on="0"/>
        <pt x="126" y="346" on="0"/>
      </contour>
    </TTGlyph>
    <TTGlyph name="OE" xMin="141" yMin="-3" xMax="3261" yMax="1446">
      <contour>
        <pt x="1662" y="1046" on="1"/>
        <pt x="1420" y="1046" on="1"/>
        <pt x="1190" y="1046" on="0"/>
        <pt x="1083" y="986" on="1"/>
        <pt x="1040" y="961" on="0"/>
        <pt x="1008" y="925" on="1"/>
        <pt x="942" y="850" on="0"/>
        <pt x="942" y="524" on="0"/>
        <pt x="1129" y="336" on="0"/>
        <pt x="1302" y="336" on="1"/>
        <pt x="1546" y="336" on="0"/>
        <pt x="1641" y="342" on="1"/>
      </contour>
      <contour>
        <pt x="1265" y="1439" on="1"/>
        <pt x="3243" y="1446" on="1"/>
        <pt x="3243" y="1376" on="0"/>
        <pt x="3229" y="1100" on="0"/>
        <pt x="3221" y="1036" on="1"/>
        <pt x="3126" y="1035" on="0"/>
        <pt x="2550" y="1033" on="0"/>
        <pt x="2389" y="1031" on="1"/>
        <pt x="2377" y="871" on="1"/>
        <pt x="2727" y="875" on="0"/>
        <pt x="2974" y="875" on="0"/>
        <pt x="3044" y="877" on="1"/>
        <pt x="3044" y="793" on="0"/>
        <pt x="2999" y="545" on="1"/>
        <pt x="2868" y="550" on="0"/>
        <pt x="2610" y="550" on="1"/>
        <pt x="2548" y="550" on="1"/>
        <pt x="2493" y="550" on="0"/>
        <pt x="2365" y="548" on="1"/>
        <pt x="2354" y="350" on="1"/>
        <pt x="3261" y="350" on="1"/>
        <pt x="3261" y="142" on="0"/>
        <pt x="3252" y="-3" on="1"/>
        <pt x="1102" y="1" on="1"/>
        <pt x="776" y="0" on="0"/>
        <pt x="526" y="116" on="1"/>
        <pt x="352" y="196" on="0"/>
        <pt x="141" y="487" on="0"/>
        <pt x="141" y="698" on="1"/>
        <pt x="141" y="1022" on="0"/>
        <pt x="425" y="1220" on="1"/>
        <pt x="741" y="1440" on="0"/>
      </contour>
    </TTGlyph>
    <TTGlyph name="Oacute" xMin="126" yMin="-45" xMax="2439" yMax="2089">
      <component glyphName="acute" x="1070" y="439" flags="0x1004"/>
      <component glyphName="O" x="0" y="0" flags="0x1204"/>
    </TTGlyph>
    <TTGlyph name="Obreve" xMin="126" yMin="-45" xMax="2439" yMax="1958">
      <component glyphName="breve" x="907" y="493" flags="0x1004"/>
      <component glyphName="O" x="0" y="0" flags="0x1204"/>
    </TTGlyph>
    <TTGlyph name="Ocircumflex" xMin="126" yMin="-45" xMax="2439" yMax="2205">
      <component glyphName="circumflex" x="753" y="402" flags="0x1004"/>
      <component glyphName="O" x="0" y="0" flags="0x1204"/>
    </TTGlyph>
    <TTGlyph name="Odieresis" xMin="126" yMin="-45" xMax="2439" yMax="2004">
      <component glyphName="dieresis" x="711" y="426" flags="0x1004"/>
      <component glyphName="O" x="0" y="0" flags="0x1204"/>
    </TTGlyph>
    <TTGlyph name="Ograve" xMin="126" yMin="-45" xMax="2439" yMax="2119">
      <component glyphName="grave" x="850" y="449" flags="0x1004"/>
      <component glyphName="O" x="0" y="0" flags="0x1204"/>
    </TTGlyph>
    <TTGlyph name="Ohungarumlaut" xMin="126" yMin="-45" xMax="2439" yMax="2196">
      <component glyphName="hungarumlaut" x="881" y="491" flags="0x1004"/>
      <component glyphName="O" x="0" y="0" flags="0x1204"/>
    </TTGlyph>
    <TTGlyph name="Omacron" xMin="126" yMin="-45" xMax="2439" yMax="1968">
      <component glyphName="macron" x="615" y="1060" flags="0x1004"/>
      <component glyphName="O" x="0" y="0" flags="0x1204"/>
    </TTGlyph>
    <TTGlyph name="Oslash" xMin="126" yMin="-264" xMax="2439" yMax="1703">
      <contour>
        <pt x="1828" y="1627" on="1"/>
        <pt x="1755" y="1472" on="0"/>
        <pt x="1130" y="137" on="0"/>
        <pt x="957" y="-227" on="0"/>
        <pt x="946" y="-264" on="0"/>
        <pt x="918" y="-264" on="0"/>
        <pt x="905" y="-257" on="1"/>
        <pt x="756" y="-174" on="1"/>
        <pt x="756" y="-155" on="0"/>
        <pt x="822" y="-29" on="0"/>
        <pt x="831" y="-10" on="1"/>
        <pt x="1643" y="1703" on="1"/>
        <pt x="1650" y="1703" on="1"/>
        <pt x="1823" y="1637" on="1"/>
        <pt x="1828" y="1634" on="0"/>
      </contour>
      <contour>
        <pt x="1283" y="361" on="1"/>
        <pt x="1459" y="361" on="0"/>
        <pt x="1646" y="551" on="0"/>
        <pt x="1646" y="924" on="0"/>
        <pt x="1456" y="1066" on="0"/>
        <pt x="1122" y="1066" on="0"/>
        <pt x="927" y="881" on="0"/>
        <pt x="927" y="705" on="1"/>
        <pt x="927" y="361" on="0"/>
      </contour>
      <contour>
        <pt x="126" y="689" on="1"/>
        <pt x="126" y="1071" on="0"/>
        <pt x="745" y="1481" on="0"/>
        <pt x="1841" y="1481" on="0"/>
        <pt x="2439" y="1101" on="0"/>
        <pt x="2439" y="753" on="1"/>
        <pt x="2439" y="376" on="0"/>
        <pt x="1805" y="-45" on="0"/>
        <pt x="707" y="-45" on="0"/>
        <pt x="126" y="346" on="0"/>
      </contour>
    </TTGlyph>
    <TTGlyph name="Otilde" xMin="126" yMin="-45" xMax="2439" yMax="2134">
      <component glyphName="tilde" x="750" y="430" flags="0x1004"/>
      <component glyphName="O" x="0" y="0" flags="0x1204"/>
    </TTGlyph>
    <TTGlyph name="P" xMin="229" yMin="-9" xMax="2177" yMax="1468">
      <contour>
        <pt x="1306" y="441" on="1"/>
        <pt x="940" y="447" on="1"/>
        <pt x="919" y="9" on="1"/>
        <pt x="474" y="-9" on="0"/>
        <pt x="244" y="-9" on="0"/>
        <pt x="229" y="-5" on="1"/>
        <pt x="232" y="31" on="0"/>
        <pt x="234" y="102" on="1"/>
        <pt x="237" y="270" on="1"/>
        <pt x="242" y="410" on="0"/>
        <pt x="265" y="1438" on="1"/>
        <pt x="786" y="1468" on="0"/>
        <pt x="1331" y="1468" on="1"/>
        <pt x="1710" y="1468" on="0"/>
        <pt x="1914" y="1362" on="1"/>
        <pt x="2178" y="1224" on="0"/>
        <pt x="2177" y="939" on="1"/>
        <pt x="2177" y="441" on="0"/>
      </contour>
      <contour>
        <pt x="1463" y="946" on="1"/>
        <pt x="1463" y="1039" on="0"/>
        <pt x="1334" y="1077" on="0"/>
        <pt x="1109" y="1077" on="0"/>
        <pt x="966" y="1062" on="1"/>
        <pt x="952" y="905" on="0"/>
        <pt x="952" y="789" on="1"/>
        <pt x="968" y="783" on="0"/>
        <pt x="1162" y="783" on="1"/>
        <pt x="1463" y="783" on="0"/>
      </contour>
    </TTGlyph>
    <TTGlyph name="Q" xMin="127" yMin="-363" xMax="2437" yMax="1481">
      <contour>
        <pt x="1284" y="361" on="1"/>
        <pt x="1284" y="361" on="0"/>
        <pt x="1288" y="363" on="1"/>
        <pt x="1288" y="363" on="0"/>
        <pt x="1288" y="362" on="1"/>
        <pt x="1288" y="362" on="0"/>
        <pt x="1291" y="362" on="1"/>
        <pt x="1538" y="362" on="0"/>
        <pt x="1604" y="594" on="1"/>
        <pt x="1622" y="656" on="0"/>
        <pt x="1621" y="727" on="1"/>
        <pt x="1621" y="905" on="0"/>
        <pt x="1458" y="1067" on="0"/>
        <pt x="1112" y="1067" on="0"/>
        <pt x="904" y="884" on="0"/>
        <pt x="904" y="528" on="0"/>
        <pt x="1110" y="361" on="0"/>
      </contour>
      <contour>
        <pt x="1621" y="-363" on="1"/>
        <pt x="1611" y="-363" on="0"/>
        <pt x="1402" y="-24" on="0"/>
        <pt x="1398" y="-19" on="1"/>
        <pt x="1234" y="-44" on="0"/>
        <pt x="1096" y="-44" on="1"/>
        <pt x="521" y="-44" on="0"/>
        <pt x="264" y="266" on="1"/>
        <pt x="127" y="431" on="0"/>
        <pt x="127" y="689" on="1"/>
        <pt x="127" y="1076" on="0"/>
        <pt x="738" y="1481" on="0"/>
        <pt x="1274" y="1481" on="1"/>
        <pt x="1614" y="1481" on="0"/>
        <pt x="1912" y="1381" on="1"/>
        <pt x="2262" y="1264" on="0"/>
        <pt x="2382" y="1024" on="1"/>
        <pt x="2426" y="936" on="0"/>
        <pt x="2437" y="795" on="0"/>
        <pt x="2437" y="756" on="1"/>
        <pt x="2437" y="187" on="0"/>
        <pt x="1722" y="43" on="1"/>
        <pt x="1907" y="-217" on="1"/>
      </contour>
    </TTGlyph>
    <TTGlyph name="R" xMin="258" yMin="-86" xMax="2292" yMax="1460">
      <contour>
        <pt x="1477" y="954" on="1"/>
        <pt x="1477" y="1070" on="0"/>
        <pt x="1235" y="1070" on="1"/>
        <pt x="1157" y="1070" on="0"/>
        <pt x="1005" y="1064" on="1"/>
        <pt x="988" y="782" on="1"/>
        <pt x="1030" y="787" on="0"/>
        <pt x="1215" y="803" on="0"/>
        <pt x="1369" y="826" on="0"/>
        <pt x="1477" y="889" on="0"/>
      </contour>
      <contour>
        <pt x="1511" y="-86" on="1"/>
        <pt x="1474" y="-17" on="0"/>
        <pt x="1255" y="435" on="0"/>
        <pt x="1218" y="523" on="1"/>
        <pt x="973" y="506" on="1"/>
        <pt x="953" y="9" on="1"/>
        <pt x="953" y="1" on="0"/>
        <pt x="946" y="0" on="1"/>
        <pt x="642" y="-5" on="0"/>
        <pt x="492" y="-10" on="1"/>
        <pt x="258" y="-18" on="1"/>
        <pt x="258" y="128" on="0"/>
        <pt x="278" y="646" on="1"/>
        <pt x="284" y="811" on="1"/>
        <pt x="314" y="1435" on="1"/>
        <pt x="315" y="1434" on="0"/>
        <pt x="326" y="1436" on="1"/>
        <pt x="498" y="1460" on="0"/>
        <pt x="1398" y="1460" on="0"/>
        <pt x="1514" y="1458" on="1"/>
        <pt x="1631" y="1454" on="0"/>
        <pt x="1744" y="1436" on="1"/>
        <pt x="2188" y="1365" on="0"/>
        <pt x="2188" y="1053" on="1"/>
        <pt x="2188" y="878" on="0"/>
        <pt x="1975" y="677" on="0"/>
        <pt x="1831" y="629" on="1"/>
        <pt x="1895" y="556" on="0"/>
        <pt x="2258" y="61" on="0"/>
        <pt x="2292" y="19" on="1"/>
      </contour>
    </TTGlyph>
    <TTGlyph name="Racute" xMin="258" yMin="-86" xMax="2292" yMax="2089">
      <component glyphName="acute" x="1080" y="439" flags="0x1004"/>
      <component glyphName="R" x="0" y="0" flags="0x1204"/>
    </TTGlyph>
    <TTGlyph name="Rcaron" xMin="258" yMin="-86" xMax="2292" yMax="2236">
      <component glyphName="caron" x="781" y="400" flags="0x1004"/>
      <component glyphName="R" x="0" y="0" flags="0x1204"/>
    </TTGlyph>
    <TTGlyph name="Rcommaaccent" xMin="258" yMin="-927" xMax="2292" yMax="1460">
      <component glyphName="uni0326" x="941" y="-40" flags="0x1004"/>
      <component glyphName="R" x="0" y="0" flags="0x1204"/>
    </TTGlyph>
    <TTGlyph name="S" xMin="164" yMin="-45" xMax="2019" yMax="1481">
      <contour>
        <pt x="1495" y="-14" on="0"/>
        <pt x="1201" y="-45" on="0"/>
        <pt x="819" y="-45" on="0"/>
        <pt x="365" y="24" on="0"/>
        <pt x="165" y="90" on="1"/>
        <pt x="169" y="107" on="0"/>
        <pt x="262" y="465" on="1"/>
        <pt x="262" y="472" on="0"/>
        <pt x="270" y="472" on="1"/>
        <pt x="450" y="427" on="0"/>
        <pt x="546" y="406" on="1"/>
        <pt x="801" y="350" on="0"/>
        <pt x="1091" y="350" on="1"/>
        <pt x="1250" y="350" on="0"/>
        <pt x="1250" y="405" on="1"/>
        <pt x="1250" y="430" on="0"/>
        <pt x="1218" y="451" on="0"/>
        <pt x="1138" y="463" on="0"/>
        <pt x="960" y="490" on="0"/>
        <pt x="866" y="506" on="0"/>
        <pt x="696" y="536" on="0"/>
        <pt x="607" y="560" on="0"/>
        <pt x="468" y="599" on="0"/>
        <pt x="392" y="639" on="0"/>
        <pt x="292" y="695" on="0"/>
        <pt x="266" y="727" on="1"/>
        <pt x="238" y="759" on="0"/>
        <pt x="212" y="799" on="1"/>
        <pt x="164" y="872" on="0"/>
        <pt x="164" y="978" on="1"/>
        <pt x="164" y="1254" on="0"/>
        <pt x="672" y="1481" on="0"/>
        <pt x="1172" y="1481" on="1"/>
        <pt x="1378" y="1481" on="0"/>
        <pt x="1807" y="1395" on="0"/>
        <pt x="1907" y="1346" on="1"/>
        <pt x="1851" y="1134" on="0"/>
        <pt x="1808" y="1004" on="1"/>
        <pt x="1689" y="1037" on="0"/>
        <pt x="1239" y="1102" on="0"/>
        <pt x="890" y="1102" on="0"/>
        <pt x="890" y="1046" on="1"/>
        <pt x="890" y="1014" on="0"/>
        <pt x="979" y="983" on="0"/>
        <pt x="1316" y="928" on="0"/>
        <pt x="1374" y="918" on="1"/>
        <pt x="1806" y="844" on="0"/>
        <pt x="1928" y="700" on="1"/>
        <pt x="2018" y="593" on="0"/>
        <pt x="2019" y="347" on="0"/>
        <pt x="1922" y="173" on="0"/>
        <pt x="1750" y="59" on="0"/>
      </contour>
    </TTGlyph>
    <TTGlyph name="Sacute" xMin="164" yMin="-45" xMax="2019" yMax="2089">
      <component glyphName="acute" x="879" y="439" flags="0x1004"/>
      <component glyphName="S" x="0" y="0" flags="0x1204"/>
    </TTGlyph>
    <TTGlyph name="Scaron" xMin="164" yMin="-45" xMax="2019" yMax="2236">
      <component glyphName="caron" x="579" y="400" flags="0x1004"/>
      <component glyphName="S" x="0" y="0" flags="0x1204"/>
    </TTGlyph>
    <TTGlyph name="Scedilla" xMin="164" yMin="-618" xMax="2019" yMax="1481">
      <component glyphName="cedilla" x="815" y="-8" flags="0x1004"/>
      <component glyphName="S" x="0" y="0" flags="0x1204"/>
    </TTGlyph>
    <TTGlyph name="Scircumflex" xMin="164" yMin="-45" xMax="2019" yMax="2205">
      <component glyphName="circumflex" x="562" y="402" flags="0x1004"/>
      <component glyphName="S" x="0" y="0" flags="0x1204"/>
    </TTGlyph>
    <TTGlyph name="Scommaaccent" xMin="164" yMin="-886" xMax="2019" yMax="1481">
      <component glyphName="uni0326" x="741" y="1" flags="0x1004"/>
      <component glyphName="S" x="0" y="0" flags="0x1204"/>
    </TTGlyph>
    <TTGlyph name="T" xMin="99" yMin="-15" xMax="1921" yMax="1449">
      <contour>
        <pt x="1293" y="4" on="1"/>
        <pt x="1293" y="4" on="0"/>
        <pt x="609" y="-15" on="1"/>
        <pt x="630" y="669" on="1"/>
        <pt x="638" y="917" on="0"/>
        <pt x="645" y="1051" on="1"/>
        <pt x="99" y="1051" on="1"/>
        <pt x="101" y="1093" on="0"/>
        <pt x="127" y="1367" on="0"/>
        <pt x="138" y="1437" on="1"/>
        <pt x="1065" y="1449" on="0"/>
        <pt x="1788" y="1449" on="0"/>
        <pt x="1921" y="1446" on="1"/>
        <pt x="1890" y="1180" on="0"/>
        <pt x="1850" y="1051" on="1"/>
        <pt x="1329" y="1051" on="1"/>
        <pt x="1323" y="835" on="1"/>
        <pt x="1292" y="108" on="0"/>
        <pt x="1292" y="5" on="0"/>
      </contour>
    </TTGlyph>
    <TTGlyph name="Tcaron" xMin="99" yMin="-15" xMax="1921" yMax="2236">
      <component glyphName="caron" x="485" y="400" flags="0x1004"/>
      <component glyphName="T" x="0" y="0" flags="0x1204"/>
    </TTGlyph>
    <TTGlyph name="Thorn" xMin="226" yMin="-353" xMax="1990" yMax="1454">
      <contour>
        <pt x="866" y="-311" on="1"/>
        <pt x="715" y="-326" on="0"/>
        <pt x="307" y="-353" on="0"/>
        <pt x="239" y="-353" on="1"/>
        <pt x="229" y="-353" on="1"/>
        <pt x="226" y="-236" on="0"/>
        <pt x="226" y="-232" on="1"/>
        <pt x="282" y="1418" on="1"/>
        <pt x="817" y="1441" on="1"/>
        <pt x="865" y="1454" on="0"/>
        <pt x="950" y="1454" on="0"/>
        <pt x="947" y="1420" on="1"/>
        <pt x="925" y="1124" on="1"/>
        <pt x="1090" y="1148" on="0"/>
        <pt x="1438" y="1148" on="0"/>
        <pt x="1728" y="1066" on="0"/>
        <pt x="1816" y="992" on="1"/>
        <pt x="1990" y="845" on="0"/>
        <pt x="1990" y="380" on="0"/>
        <pt x="1810" y="230" on="1"/>
        <pt x="1522" y="-10" on="0"/>
        <pt x="880" y="-10" on="1"/>
      </contour>
      <contour>
        <pt x="1359" y="699" on="0"/>
        <pt x="1188" y="831" on="0"/>
        <pt x="920" y="831" on="1"/>
        <pt x="895" y="272" on="1"/>
        <pt x="1212" y="280" on="0"/>
        <pt x="1309" y="413" on="1"/>
        <pt x="1359" y="481" on="0"/>
      </contour>
    </TTGlyph>
    <TTGlyph name="U" xMin="143" yMin="-45" xMax="2316" yMax="1443">
      <contour>
        <pt x="1191" y="-45" on="1"/>
        <pt x="818" y="-45" on="0"/>
        <pt x="612" y="10" on="1"/>
        <pt x="143" y="134" on="0"/>
        <pt x="143" y="592" on="1"/>
        <pt x="149" y="984" on="1"/>
        <pt x="152" y="1074" on="0"/>
        <pt x="159" y="1370" on="0"/>
        <pt x="169" y="1435" on="1"/>
        <pt x="653" y="1437" on="1"/>
        <pt x="962" y="1443" on="1"/>
        <pt x="960" y="1415" on="0"/>
        <pt x="960" y="1309" on="0"/>
        <pt x="959" y="1285" on="1"/>
        <pt x="927" y="611" on="1"/>
        <pt x="927" y="490" on="0"/>
        <pt x="1082" y="358" on="0"/>
        <pt x="1345" y="358" on="0"/>
        <pt x="1510" y="542" on="0"/>
        <pt x="1516" y="710" on="1"/>
        <pt x="1542" y="1424" on="1"/>
        <pt x="1803" y="1432" on="0"/>
        <pt x="2316" y="1439" on="1"/>
        <pt x="2316" y="1249" on="0"/>
        <pt x="2280" y="594" on="0"/>
        <pt x="2267" y="545" on="1"/>
        <pt x="2202" y="308" on="0"/>
        <pt x="1846" y="45" on="0"/>
        <pt x="1416" y="-45" on="0"/>
      </contour>
    </TTGlyph>
    <TTGlyph name="Uacute" xMin="143" yMin="-45" xMax="2316" yMax="2089">
      <component glyphName="acute" x="1009" y="439" flags="0x1004"/>
      <component glyphName="U" x="0" y="0" flags="0x1204"/>
    </TTGlyph>
    <TTGlyph name="Ubreve" xMin="143" yMin="-45" xMax="2316" yMax="1958">
      <component glyphName="breve" x="845" y="493" flags="0x1004"/>
      <component glyphName="U" x="0" y="0" flags="0x1204"/>
    </TTGlyph>
    <TTGlyph name="Ucircumflex" xMin="143" yMin="-45" xMax="2316" yMax="2205">
      <component glyphName="circumflex" x="692" y="402" flags="0x1004"/>
      <component glyphName="U" x="0" y="0" flags="0x1204"/>
    </TTGlyph>
    <TTGlyph name="Udieresis" xMin="143" yMin="-45" xMax="2316" yMax="2004">
      <component glyphName="dieresis" x="649" y="426" flags="0x1004"/>
      <component glyphName="U" x="0" y="0" flags="0x1204"/>
    </TTGlyph>
    <TTGlyph name="Ugrave" xMin="143" yMin="-45" xMax="2316" yMax="2119">
      <component glyphName="grave" x="788" y="449" flags="0x1004"/>
      <component glyphName="U" x="0" y="0" flags="0x1204"/>
    </TTGlyph>
    <TTGlyph name="Uhungarumlaut" xMin="143" yMin="-45" xMax="2316" yMax="2196">
      <component glyphName="hungarumlaut" x="819" y="491" flags="0x1004"/>
      <component glyphName="U" x="0" y="0" flags="0x1204"/>
    </TTGlyph>
    <TTGlyph name="Umacron" xMin="143" yMin="-45" xMax="2316" yMax="1968">
      <component glyphName="macron" x="554" y="1060" flags="0x1004"/>
      <component glyphName="U" x="0" y="0" flags="0x1204"/>
    </TTGlyph>
    <TTGlyph name="Uogonek" xMin="143" yMin="-591" xMax="2316" yMax="1443">
      <component glyphName="ogonek" x="999" y="-3" flags="0x1004"/>
      <component glyphName="U" x="0" y="0" flags="0x1204"/>
    </TTGlyph>
    <TTGlyph name="Uring" xMin="143" yMin="-45" xMax="2316" yMax="2189">
      <component glyphName="ring" x="897" y="452" flags="0x1004"/>
      <component glyphName="U" x="0" y="0" flags="0x1204"/>
    </TTGlyph>
    <TTGlyph name="Utilde" xMin="143" yMin="-45" xMax="2316" yMax="2134">
      <component glyphName="tilde" x="689" y="430" flags="0x1004"/>
      <component glyphName="U" x="0" y="0" flags="0x1204"/>
    </TTGlyph>
    <TTGlyph name="V" xMin="69" yMin="-27" xMax="2034" yMax="1480">
      <contour>
        <pt x="1771" y="1477" on="1"/>
        <pt x="2034" y="1479" on="1"/>
        <pt x="2034" y="1473" on="0"/>
        <pt x="1427" y="204" on="0"/>
        <pt x="1381" y="112" on="1"/>
        <pt x="1329" y="-7" on="1"/>
        <pt x="1283" y="-13" on="0"/>
        <pt x="824" y="-27" on="0"/>
        <pt x="713" y="-27" on="1"/>
        <pt x="625" y="169" on="0"/>
        <pt x="120" y="1330" on="0"/>
        <pt x="113" y="1348" on="1"/>
        <pt x="69" y="1459" on="1"/>
        <pt x="558" y="1480" on="1"/>
        <pt x="815" y="1480" on="1"/>
        <pt x="1091" y="711" on="1"/>
        <pt x="1332" y="1470" on="1"/>
      </contour>
    </TTGlyph>
    <TTGlyph name="W" xMin="96" yMin="-17" xMax="3004" yMax="1470">
      <contour>
        <pt x="1819" y="-17" on="1"/>
        <pt x="1563" y="673" on="1"/>
        <pt x="1407" y="162" on="1"/>
        <pt x="1350" y="-7" on="1"/>
        <pt x="1170" y="-17" on="0"/>
        <pt x="678" y="-17" on="1"/>
        <pt x="179" y="1199" on="1"/>
        <pt x="96" y="1449" on="1"/>
        <pt x="583" y="1464" on="1"/>
        <pt x="843" y="1470" on="1"/>
        <pt x="1076" y="711" on="1"/>
        <pt x="1299" y="1449" on="1"/>
        <pt x="1847" y="1458" on="1"/>
        <pt x="2110" y="761" on="1"/>
        <pt x="2334" y="1451" on="1"/>
        <pt x="3004" y="1458" on="1"/>
        <pt x="2432" y="3" on="1"/>
        <pt x="2378" y="-3" on="0"/>
        <pt x="1927" y="-17" on="0"/>
      </contour>
    </TTGlyph>
    <TTGlyph name="Wacute" xMin="96" yMin="-17" xMax="3004" yMax="2089">
      <component glyphName="acute" x="1319" y="439" flags="0x1004"/>
      <component glyphName="W" x="0" y="0" flags="0x1204"/>
    </TTGlyph>
    <TTGlyph name="Wcircumflex" xMin="96" yMin="-17" xMax="3004" yMax="2205">
      <component glyphName="circumflex" x="1002" y="402" flags="0x1004"/>
      <component glyphName="W" x="0" y="0" flags="0x1204"/>
    </TTGlyph>
    <TTGlyph name="Wdieresis" xMin="96" yMin="-17" xMax="3004" yMax="2004">
      <component glyphName="dieresis" x="960" y="426" flags="0x1004"/>
      <component glyphName="W" x="0" y="0" flags="0x1204"/>
    </TTGlyph>
    <TTGlyph name="Wgrave" xMin="96" yMin="-17" xMax="3004" yMax="2119">
      <component glyphName="grave" x="1099" y="449" flags="0x1004"/>
      <component glyphName="W" x="0" y="0" flags="0x1204"/>
    </TTGlyph>
    <TTGlyph name="X" xMin="124" yMin="-92" xMax="2216" yMax="1492">
      <contour>
        <pt x="2216" y="1350" on="1"/>
        <pt x="1624" y="758" on="0"/>
        <pt x="1595" y="732" on="1"/>
        <pt x="1783" y="565" on="0"/>
        <pt x="2197" y="172" on="1"/>
        <pt x="1783" y="-23" on="1"/>
        <pt x="1607" y="-88" on="1"/>
        <pt x="1162" y="299" on="1"/>
        <pt x="776" y="-92" on="1"/>
        <pt x="164" y="123" on="1"/>
        <pt x="316" y="294" on="1"/>
        <pt x="467" y="467" on="0"/>
        <pt x="725" y="725" on="1"/>
        <pt x="124" y="1329" on="1"/>
        <pt x="130" y="1330" on="0"/>
        <pt x="182" y="1348" on="1"/>
        <pt x="468" y="1444" on="0"/>
        <pt x="790" y="1492" on="1"/>
        <pt x="1159" y="1130" on="1"/>
        <pt x="1489" y="1478" on="1"/>
      </contour>
    </TTGlyph>
    <TTGlyph name="Y" xMin="56" yMin="-10" xMax="2047" yMax="1458">
      <contour>
        <pt x="1336" y="1444" on="1"/>
        <pt x="1354" y="1447" on="0"/>
        <pt x="2047" y="1447" on="0"/>
        <pt x="2047" y="1437" on="0"/>
        <pt x="2039" y="1425" on="1"/>
        <pt x="2024" y="1400" on="1"/>
        <pt x="1398" y="561" on="1"/>
        <pt x="1372" y="8" on="1"/>
        <pt x="1233" y="2" on="1"/>
        <pt x="667" y="-10" on="1"/>
        <pt x="656" y="58" on="0"/>
        <pt x="656" y="513" on="1"/>
        <pt x="56" y="1440" on="1"/>
        <pt x="792" y="1458" on="1"/>
        <pt x="1065" y="1052" on="1"/>
      </contour>
    </TTGlyph>
    <TTGlyph name="Yacute" xMin="56" yMin="-10" xMax="2047" yMax="2089">
      <component glyphName="acute" x="819" y="439" flags="0x1004"/>
      <component glyphName="Y" x="0" y="0" flags="0x1204"/>
    </TTGlyph>
    <TTGlyph name="Ycircumflex" xMin="56" yMin="-10" xMax="2047" yMax="2205">
      <component glyphName="circumflex" x="502" y="402" flags="0x1004"/>
      <component glyphName="Y" x="0" y="0" flags="0x1204"/>
    </TTGlyph>
    <TTGlyph name="Ydieresis" xMin="56" yMin="-10" xMax="2047" yMax="2004">
      <component glyphName="dieresis" x="460" y="426" flags="0x1004"/>
      <component glyphName="Y" x="0" y="0" flags="0x1204"/>
    </TTGlyph>
    <TTGlyph name="Ygrave" xMin="56" yMin="-10" xMax="2047" yMax="2119">
      <component glyphName="grave" x="599" y="449" flags="0x1004"/>
      <component glyphName="Y" x="0" y="0" flags="0x1204"/>
    </TTGlyph>
    <TTGlyph name="Z" xMin="161" yMin="0" xMax="1885" yMax="1450">
      <contour>
        <pt x="1818" y="3" on="1"/>
        <pt x="1381" y="0" on="1"/>
        <pt x="361" y="0" on="1"/>
        <pt x="234" y="0" on="0"/>
        <pt x="161" y="5" on="1"/>
        <pt x="161" y="59" on="1"/>
        <pt x="879" y="996" on="1"/>
        <pt x="301" y="1002" on="0"/>
        <pt x="166" y="1011" on="1"/>
        <pt x="221" y="1443" on="1"/>
        <pt x="381" y="1450" on="0"/>
        <pt x="873" y="1450" on="0"/>
        <pt x="1657" y="1440" on="0"/>
        <pt x="1854" y="1440" on="1"/>
        <pt x="1809" y="1355" on="0"/>
        <pt x="1338" y="616" on="0"/>
        <pt x="1191" y="420" on="1"/>
        <pt x="1494" y="420" on="1"/>
        <pt x="1732" y="426" on="1"/>
        <pt x="1839" y="426" on="0"/>
        <pt x="1885" y="425" on="1"/>
        <pt x="1885" y="394" on="0"/>
        <pt x="1829" y="51" on="0"/>
      </contour>
    </TTGlyph>
    <TTGlyph name="Zacute" xMin="161" yMin="0" xMax="1885" yMax="2089">
      <component glyphName="acute" x="813" y="439" flags="0x1004"/>
      <component glyphName="Z" x="0" y="0" flags="0x1204"/>
    </TTGlyph>
    <TTGlyph name="Zcaron" xMin="161" yMin="0" xMax="1885" yMax="2236">
      <component glyphName="caron" x="527" y="400" flags="0x1004"/>
      <component glyphName="Z" x="0" y="0" flags="0x1204"/>
    </TTGlyph>
    <TTGlyph name="Zdotaccent" xMin="161" yMin="0" xMax="1885" yMax="2045">
      <component glyphName="dotaccent" x="765" y="255" flags="0x1004"/>
      <component glyphName="Z" x="0" y="0" flags="0x1204"/>
    </TTGlyph>
    <TTGlyph name="a" xMin="119" yMin="-37" xMax="1671" yMax="1081">
      <contour>
        <pt x="1168" y="91" on="0"/>
        <pt x="926" y="-37" on="0"/>
        <pt x="634" y="-37" on="0"/>
        <pt x="416" y="24" on="0"/>
        <pt x="231" y="144" on="0"/>
        <pt x="119" y="348" on="0"/>
        <pt x="119" y="619" on="0"/>
        <pt x="220" y="848" on="0"/>
        <pt x="306" y="920" on="1"/>
        <pt x="482" y="1070" on="0"/>
        <pt x="735" y="1070" on="1"/>
        <pt x="910" y="1070" on="0"/>
        <pt x="1132" y="982" on="0"/>
        <pt x="1217" y="868" on="1"/>
        <pt x="1219" y="1081" on="1"/>
        <pt x="1671" y="1043" on="1"/>
        <pt x="1668" y="24" on="1"/>
        <pt x="1292" y="-4" on="1"/>
        <pt x="1231" y="193" on="1"/>
      </contour>
      <contour>
        <pt x="705" y="591" on="0"/>
        <pt x="705" y="404" on="0"/>
        <pt x="819" y="267" on="0"/>
        <pt x="1031" y="267" on="0"/>
        <pt x="1148" y="388" on="0"/>
        <pt x="1148" y="600" on="0"/>
        <pt x="1030" y="726" on="0"/>
        <pt x="821" y="726" on="0"/>
      </contour>
    </TTGlyph>
    <TTGlyph name="aacute" xMin="119" yMin="-37" xMax="1671" yMax="1689">
      <component glyphName="acute" x="683" y="39" flags="0x1004"/>
      <component glyphName="a" x="0" y="0" flags="0x1204"/>
    </TTGlyph>
    <TTGlyph name="abreve" xMin="119" yMin="-37" xMax="1671" yMax="1558">
      <component glyphName="breve" x="519" y="93" flags="0x1004"/>
      <component glyphName="a" x="0" y="0" flags="0x1204"/>
    </TTGlyph>
    <TTGlyph name="acircumflex" xMin="119" yMin="-37" xMax="1671" yMax="1805">
      <component glyphName="circumflex" x="366" y="2" flags="0x1004"/>
      <component glyphName="a" x="0" y="0" flags="0x1204"/>
    </TTGlyph>
    <TTGlyph name="acute" xMin="63" yMin="1207" xMax="670" yMax="1650">
      <contour>
        <pt x="670" y="1552" on="1"/>
        <pt x="241" y="1207" on="0"/>
        <pt x="238" y="1207" on="1"/>
        <pt x="224" y="1207" on="0"/>
        <pt x="63" y="1247" on="1"/>
        <pt x="115" y="1334" on="0"/>
        <pt x="297" y="1610" on="0"/>
        <pt x="326" y="1650" on="1"/>
        <pt x="447" y="1618" on="0"/>
      </contour>
    </TTGlyph>
    <TTGlyph name="adieresis" xMin="119" yMin="-37" xMax="1671" yMax="1604">
      <component glyphName="dieresis" x="323" y="26" flags="0x1004"/>
      <component glyphName="a" x="0" y="0" flags="0x1204"/>
    </TTGlyph>
    <TTGlyph name="ae" xMin="181" yMin="-37" xMax="2482" yMax="1070">
      <contour>
        <pt x="1678" y="625" on="1"/>
        <pt x="2039" y="625" on="1"/>
        <pt x="2034" y="718" on="0"/>
        <pt x="1948" y="796" on="0"/>
        <pt x="1785" y="796" on="0"/>
        <pt x="1688" y="699" on="0"/>
      </contour>
      <contour>
        <pt x="878" y="442" on="0"/>
        <pt x="735" y="367" on="0"/>
        <pt x="735" y="266" on="0"/>
        <pt x="809" y="209" on="0"/>
        <pt x="875" y="209" on="1"/>
        <pt x="1024" y="209" on="0"/>
        <pt x="1190" y="323" on="1"/>
        <pt x="1164" y="379" on="0"/>
        <pt x="1155" y="440" on="1"/>
        <pt x="1053" y="442" on="0"/>
        <pt x="1010" y="442" on="1"/>
      </contour>
      <contour>
        <pt x="1116" y="622" on="1"/>
        <pt x="1063" y="776" on="0"/>
        <pt x="813" y="776" on="1"/>
        <pt x="612" y="776" on="0"/>
        <pt x="325" y="671" on="1"/>
        <pt x="281" y="671" on="1"/>
        <pt x="210" y="939" on="1"/>
        <pt x="316" y="991" on="0"/>
        <pt x="675" y="1070" on="0"/>
        <pt x="1010" y="1070" on="0"/>
        <pt x="1309" y="987" on="0"/>
        <pt x="1377" y="904" on="1"/>
        <pt x="1455" y="987" on="0"/>
        <pt x="1731" y="1070" on="0"/>
        <pt x="1831" y="1070" on="1"/>
        <pt x="2243" y="1070" on="0"/>
        <pt x="2410" y="835" on="1"/>
        <pt x="2482" y="734" on="0"/>
        <pt x="2482" y="587" on="1"/>
        <pt x="2476" y="441" on="1"/>
        <pt x="1665" y="441" on="1"/>
        <pt x="1693" y="350" on="0"/>
        <pt x="1881" y="248" on="0"/>
        <pt x="2200" y="248" on="0"/>
        <pt x="2407" y="337" on="1"/>
        <pt x="2461" y="337" on="1"/>
        <pt x="2452" y="83" on="1"/>
        <pt x="2391" y="35" on="0"/>
        <pt x="2072" y="-37" on="0"/>
        <pt x="1719" y="-37" on="0"/>
        <pt x="1417" y="56" on="0"/>
        <pt x="1315" y="145" on="1"/>
        <pt x="1194" y="40" on="0"/>
        <pt x="894" y="-37" on="0"/>
        <pt x="457" y="-37" on="0"/>
        <pt x="181" y="117" on="0"/>
        <pt x="181" y="437" on="0"/>
        <pt x="515" y="622" on="0"/>
        <pt x="817" y="622" on="1"/>
      </contour>
    </TTGlyph>
    <TTGlyph name="afii10017" xMin="71" yMin="-30" xMax="2205" yMax="1451">
      <component glyphName="A" x="0" y="0" flags="0x1004"/>
    </TTGlyph>
    <TTGlyph name="afii10018" xMin="171" yMin="-52" xMax="2089" yMax="1448">
      <contour>
        <pt x="171" y="-50" on="1"/>
        <pt x="184" y="111" on="1"/>
        <pt x="206" y="406" on="0"/>
        <pt x="306" y="1420" on="1"/>
        <pt x="1206" y="1448" on="0"/>
        <pt x="1821" y="1448" on="0"/>
        <pt x="1921" y="1446" on="1"/>
        <pt x="1890" y="1180" on="0"/>
        <pt x="1850" y="1051" on="1"/>
        <pt x="1012" y="1051" on="1"/>
        <pt x="998" y="905" on="1"/>
        <pt x="1112" y="910" on="0"/>
        <pt x="1226" y="910" on="1"/>
        <pt x="1783" y="910" on="0"/>
        <pt x="1976" y="764" on="1"/>
        <pt x="2089" y="678" on="0"/>
        <pt x="2089" y="540" on="1"/>
        <pt x="2089" y="343" on="0"/>
        <pt x="1964" y="138" on="0"/>
        <pt x="1862" y="83" on="1"/>
        <pt x="1612" y="-52" on="0"/>
        <pt x="1060" y="-52" on="1"/>
      </contour>
      <contour>
        <pt x="931" y="258" on="1"/>
        <pt x="1282" y="258" on="0"/>
        <pt x="1388" y="360" on="1"/>
        <pt x="1426" y="398" on="0"/>
        <pt x="1426" y="450" on="1"/>
        <pt x="1426" y="504" on="0"/>
        <pt x="1397" y="534" on="1"/>
        <pt x="1343" y="590" on="0"/>
        <pt x="1146" y="590" on="1"/>
        <pt x="1074" y="590" on="0"/>
        <pt x="964" y="584" on="1"/>
        <pt x="957" y="501" on="0"/>
        <pt x="934" y="288" on="0"/>
      </contour>
    </TTGlyph>
    <TTGlyph name="afii10019" xMin="178" yMin="-4" xMax="2214" yMax="1468">
      <contour>
        <pt x="964" y="614" on="1"/>
        <pt x="931" y="298" on="1"/>
        <pt x="1219" y="298" on="0"/>
        <pt x="1400" y="332" on="0"/>
        <pt x="1450" y="348" on="1"/>
        <pt x="1552" y="381" on="0"/>
        <pt x="1551" y="449" on="1"/>
        <pt x="1551" y="547" on="0"/>
        <pt x="1280" y="614" on="0"/>
      </contour>
      <contour>
        <pt x="1113" y="845" on="1"/>
        <pt x="1508" y="845" on="0"/>
        <pt x="1508" y="1007" on="1"/>
        <pt x="1508" y="1148" on="0"/>
        <pt x="1106" y="1148" on="1"/>
        <pt x="1026" y="1148" on="1"/>
        <pt x="988" y="845" on="1"/>
      </contour>
      <contour>
        <pt x="1062" y="-4" on="1"/>
        <pt x="178" y="1" on="1"/>
        <pt x="287" y="1268" on="0"/>
        <pt x="305" y="1464" on="1"/>
        <pt x="1266" y="1468" on="1"/>
        <pt x="1846" y="1468" on="0"/>
        <pt x="2063" y="1302" on="1"/>
        <pt x="2174" y="1217" on="0"/>
        <pt x="2174" y="1093" on="1"/>
        <pt x="2174" y="1007" on="0"/>
        <pt x="1987" y="837" on="0"/>
        <pt x="1862" y="807" on="1"/>
        <pt x="2018" y="782" on="0"/>
        <pt x="2214" y="641" on="0"/>
        <pt x="2214" y="433" on="0"/>
        <pt x="2182" y="352" on="1"/>
        <pt x="2111" y="176" on="0"/>
        <pt x="1585" y="-4" on="0"/>
      </contour>
    </TTGlyph>
    <TTGlyph name="afii10020" xMin="227" yMin="-18" xMax="1577" yMax="1453">
      <contour>
        <pt x="1577" y="1451" on="1"/>
        <pt x="1514" y="942" on="1"/>
        <pt x="980" y="942" on="1"/>
        <pt x="926" y="2" on="1"/>
        <pt x="356" y="-18" on="1"/>
        <pt x="227" y="-18" on="1"/>
        <pt x="256" y="966" on="1"/>
        <pt x="272" y="1444" on="1"/>
        <pt x="969" y="1453" on="1"/>
      </contour>
    </TTGlyph>
    <TTGlyph name="afii10021" xMin="-64" yMin="-418" xMax="2237" yMax="1454">
      <contour>
        <pt x="1010" y="414" on="1"/>
        <pt x="1010" y="414" on="0"/>
        <pt x="1449" y="414" on="1"/>
        <pt x="1476" y="844" on="0"/>
        <pt x="1494" y="1062" on="1"/>
        <pt x="1130" y="1062" on="1"/>
      </contour>
      <contour>
        <pt x="2101" y="717" on="1"/>
        <pt x="2091" y="415" on="1"/>
        <pt x="2237" y="415" on="1"/>
        <pt x="2210" y="-415" on="1"/>
        <pt x="1502" y="-408" on="1"/>
        <pt x="1514" y="-7" on="1"/>
        <pt x="690" y="-7" on="1"/>
        <pt x="626" y="-415" on="1"/>
        <pt x="-64" y="-418" on="1"/>
        <pt x="1" y="371" on="1"/>
        <pt x="12" y="385" on="1"/>
        <pt x="59" y="393" on="0"/>
        <pt x="369" y="405" on="1"/>
        <pt x="556" y="1350" on="1"/>
        <pt x="567" y="1433" on="1"/>
        <pt x="579" y="1447" on="1"/>
        <pt x="1209" y="1454" on="1"/>
        <pt x="2137" y="1454" on="1"/>
      </contour>
    </TTGlyph>
    <TTGlyph name="afii10022" xMin="175" yMin="-9" xMax="1966" yMax="1446">
      <component glyphName="E" x="0" y="0" flags="0x1004"/>
    </TTGlyph>
    <TTGlyph name="afii10023" xMin="175" yMin="-9" xMax="1966" yMax="2004">
      <component glyphName="dieresis" x="512" y="426" flags="0x1004"/>
      <component glyphName="afii10022" x="0" y="0" flags="0x1204"/>
    </TTGlyph>
    <TTGlyph name="afii10024" xMin="26" yMin="-61" xMax="2455" yMax="1492">
      <contour>
        <pt x="26" y="1332" on="1"/>
        <pt x="30" y="1333" on="0"/>
        <pt x="62" y="1345" on="1"/>
        <pt x="308" y="1436" on="0"/>
        <pt x="652" y="1492" on="1"/>
        <pt x="1020" y="1100" on="1"/>
        <pt x="1025" y="1218" on="0"/>
        <pt x="1025" y="1393" on="1"/>
        <pt x="1420" y="1440" on="0"/>
        <pt x="1530" y="1454" on="1"/>
        <pt x="1524" y="1313" on="1"/>
        <pt x="1517" y="1072" on="1"/>
        <pt x="1881" y="1473" on="1"/>
        <pt x="2455" y="1348" on="1"/>
        <pt x="2151" y="1031" on="0"/>
        <pt x="1925" y="792" on="0"/>
        <pt x="1871" y="742" on="1"/>
        <pt x="2019" y="609" on="0"/>
        <pt x="2437" y="194" on="1"/>
        <pt x="2103" y="2" on="1"/>
        <pt x="1938" y="-61" on="1"/>
        <pt x="1489" y="404" on="1"/>
        <pt x="1483" y="225" on="1"/>
        <pt x="1485" y="-4" on="1"/>
        <pt x="983" y="-19" on="1"/>
        <pt x="993" y="419" on="1"/>
        <pt x="562" y="-60" on="1"/>
        <pt x="63" y="151" on="1"/>
        <pt x="206" y="309" on="1"/>
        <pt x="436" y="555" on="0"/>
        <pt x="614" y="740" on="1"/>
      </contour>
    </TTGlyph>
    <TTGlyph name="afii10025" xMin="241" yMin="-45" xMax="1553" yMax="1481">
      <contour>
        <pt x="1553" y="447" on="1"/>
        <pt x="1553" y="180" on="0"/>
        <pt x="1324" y="54" on="1"/>
        <pt x="1144" y="-45" on="0"/>
        <pt x="436" y="-45" on="0"/>
        <pt x="251" y="7" on="1"/>
        <pt x="253" y="385" on="1"/>
        <pt x="416" y="372" on="0"/>
        <pt x="514" y="372" on="1"/>
        <pt x="738" y="372" on="0"/>
        <pt x="738" y="489" on="1"/>
        <pt x="738" y="542" on="0"/>
        <pt x="672" y="614" on="0"/>
        <pt x="600" y="614" on="1"/>
        <pt x="380" y="614" on="1"/>
        <pt x="391" y="902" on="1"/>
        <pt x="553" y="902" on="1"/>
        <pt x="721" y="902" on="0"/>
        <pt x="721" y="1035" on="1"/>
        <pt x="721" y="1110" on="0"/>
        <pt x="581" y="1159" on="0"/>
        <pt x="441" y="1159" on="0"/>
        <pt x="241" y="1151" on="1"/>
        <pt x="241" y="1451" on="1"/>
        <pt x="512" y="1481" on="0"/>
        <pt x="718" y="1481" on="1"/>
        <pt x="1116" y="1481" on="0"/>
        <pt x="1524" y="1304" on="0"/>
        <pt x="1524" y="885" on="0"/>
        <pt x="1361" y="809" on="1"/>
        <pt x="1316" y="788" on="0"/>
        <pt x="1264" y="782" on="1"/>
        <pt x="1394" y="762" on="0"/>
        <pt x="1553" y="592" on="0"/>
      </contour>
    </TTGlyph>
    <TTGlyph name="afii10026" xMin="134" yMin="-18" xMax="2236" yMax="1447">
      <contour>
        <pt x="2236" y="1391" on="1"/>
        <pt x="2236" y="1373" on="0"/>
        <pt x="2209" y="495" on="0"/>
        <pt x="2203" y="137" on="1"/>
        <pt x="2196" y="-18" on="1"/>
        <pt x="1848" y="-18" on="0"/>
        <pt x="1578" y="0" on="1"/>
        <pt x="1578" y="4" on="1"/>
        <pt x="1579" y="7" on="0"/>
        <pt x="1579" y="22" on="0"/>
        <pt x="1582" y="122" on="0"/>
        <pt x="1590" y="433" on="0"/>
        <pt x="1595" y="623" on="1"/>
        <pt x="875" y="-15" on="1"/>
        <pt x="134" y="2" on="1"/>
        <pt x="145" y="228" on="1"/>
        <pt x="183" y="1447" on="1"/>
        <pt x="271" y="1447" on="0"/>
        <pt x="354" y="1445" on="1"/>
        <pt x="808" y="1434" on="1"/>
        <pt x="797" y="1279" on="1"/>
        <pt x="774" y="839" on="1"/>
        <pt x="887" y="963" on="0"/>
        <pt x="1351" y="1419" on="0"/>
        <pt x="1361" y="1430" on="1"/>
      </contour>
    </TTGlyph>
    <TTGlyph name="afii10027" xMin="134" yMin="-18" xMax="2236" yMax="1958">
      <component glyphName="breve" x="809" y="493" flags="0x1004"/>
      <component glyphName="afii10026" x="0" y="0" flags="0x1204"/>
    </TTGlyph>
    <TTGlyph name="afii10028" xMin="180" yMin="-81" xMax="2293" yMax="1491">
      <component glyphName="K" x="0" y="0" flags="0x1004"/>
    </TTGlyph>
    <TTGlyph name="afii10029" xMin="-38" yMin="-154" xMax="2233" yMax="1446">
      <contour>
        <pt x="2233" y="1446" on="1"/>
        <pt x="2194" y="563" on="1"/>
        <pt x="2192" y="511" on="0"/>
        <pt x="2190" y="373" on="0"/>
        <pt x="2183" y="143" on="0"/>
        <pt x="2180" y="2" on="1"/>
        <pt x="1739" y="0" on="1"/>
        <pt x="1530" y="-17" on="0"/>
        <pt x="1456" y="-17" on="1"/>
        <pt x="1462" y="101" on="1"/>
        <pt x="1490" y="631" on="0"/>
        <pt x="1514" y="942" on="1"/>
        <pt x="936" y="942" on="1"/>
        <pt x="918" y="495" on="0"/>
        <pt x="878" y="304" on="0"/>
        <pt x="858" y="266" on="1"/>
        <pt x="757" y="71" on="0"/>
        <pt x="400" y="-129" on="0"/>
        <pt x="126" y="-154" on="1"/>
        <pt x="114" y="-132" on="0"/>
        <pt x="0" y="132" on="0"/>
        <pt x="-38" y="217" on="1"/>
        <pt x="103" y="244" on="0"/>
        <pt x="236" y="442" on="0"/>
        <pt x="243" y="632" on="1"/>
        <pt x="256" y="966" on="1"/>
        <pt x="267" y="1165" on="0"/>
        <pt x="286" y="1350" on="1"/>
        <pt x="290" y="1410" on="1"/>
        <pt x="302" y="1424" on="1"/>
        <pt x="354" y="1430" on="0"/>
        <pt x="871" y="1446" on="0"/>
        <pt x="969" y="1446" on="1"/>
      </contour>
    </TTGlyph>
    <TTGlyph name="afii10030" xMin="134" yMin="-9" xMax="2561" yMax="1456">
      <component glyphName="M" x="0" y="0" flags="0x1004"/>
    </TTGlyph>
    <TTGlyph name="afii10031" xMin="226" yMin="-17" xMax="2237" yMax="1454">
      <component glyphName="H" x="0" y="0" flags="0x1004"/>
    </TTGlyph>
    <TTGlyph name="afii10032" xMin="126" yMin="-45" xMax="2439" yMax="1481">
      <component glyphName="O" x="0" y="0" flags="0x1004"/>
    </TTGlyph>
    <TTGlyph name="afii10033" xMin="226" yMin="-21" xMax="2237" yMax="1445">
      <contour>
        <pt x="969" y="1445" on="1"/>
        <pt x="2237" y="1445" on="1"/>
        <pt x="2197" y="639" on="1"/>
        <pt x="2196" y="615" on="0"/>
        <pt x="2194" y="511" on="0"/>
        <pt x="2190" y="373" on="0"/>
        <pt x="2183" y="143" on="0"/>
        <pt x="2180" y="2" on="1"/>
        <pt x="1825" y="-8" on="1"/>
        <pt x="1531" y="-21" on="0"/>
        <pt x="1452" y="-21" on="1"/>
        <pt x="1462" y="101" on="1"/>
        <pt x="1466" y="158" on="0"/>
        <pt x="1509" y="885" on="0"/>
        <pt x="1514" y="942" on="1"/>
        <pt x="980" y="942" on="1"/>
        <pt x="916" y="2" on="1"/>
        <pt x="226" y="-17" on="1"/>
        <pt x="226" y="155" on="0"/>
        <pt x="235" y="402" on="1"/>
        <pt x="256" y="966" on="1"/>
        <pt x="267" y="1165" on="0"/>
        <pt x="286" y="1350" on="1"/>
        <pt x="290" y="1410" on="1"/>
        <pt x="302" y="1424" on="1"/>
        <pt x="353" y="1430" on="0"/>
        <pt x="869" y="1445" on="0"/>
      </contour>
    </TTGlyph>
    <TTGlyph name="afii10034" xMin="229" yMin="-9" xMax="2177" yMax="1468">
      <component glyphName="P" x="0" y="0" flags="0x1004"/>
    </TTGlyph>
    <TTGlyph name="afii10035" xMin="133" yMin="-45" xMax="1536" yMax="1481">
      <component glyphName="C" x="0" y="0" flags="0x1004"/>
    </TTGlyph>
    <TTGlyph name="afii10036" xMin="99" yMin="-15" xMax="1921" yMax="1449">
      <component glyphName="T" x="0" y="0" flags="0x1004"/>
    </TTGlyph>
    <TTGlyph name="afii10037" xMin="37" yMin="0" xMax="1997" yMax="1451">
      <contour>
        <pt x="332" y="0" on="1"/>
        <pt x="677" y="542" on="1"/>
        <pt x="37" y="1415" on="1"/>
        <pt x="41" y="1444" on="1"/>
        <pt x="579" y="1447" on="1"/>
        <pt x="759" y="1451" on="1"/>
        <pt x="1049" y="1027" on="1"/>
        <pt x="1299" y="1445" on="1"/>
        <pt x="1986" y="1448" on="1"/>
        <pt x="1997" y="1428" on="1"/>
        <pt x="1355" y="427" on="0"/>
        <pt x="1089" y="6" on="1"/>
        <pt x="927" y="3" on="1"/>
      </contour>
    </TTGlyph>
    <TTGlyph name="afii10038" xMin="126" yMin="-213" xMax="2439" yMax="1624">
      <contour>
        <pt x="1160" y="1049" on="1"/>
        <pt x="1048" y="1018" on="0"/>
        <pt x="927" y="844" on="0"/>
        <pt x="927" y="705" on="1"/>
        <pt x="927" y="429" on="0"/>
        <pt x="1153" y="375" on="1"/>
      </contour>
      <contour>
        <pt x="1430" y="385" on="1"/>
        <pt x="1646" y="456" on="0"/>
        <pt x="1646" y="742" on="1"/>
        <pt x="1646" y="994" on="0"/>
        <pt x="1440" y="1049" on="1"/>
      </contour>
      <contour>
        <pt x="1146" y="-211" on="1"/>
        <pt x="1148" y="-41" on="1"/>
        <pt x="655" y="-22" on="0"/>
        <pt x="380" y="178" on="1"/>
        <pt x="126" y="363" on="0"/>
        <pt x="126" y="1028" on="0"/>
        <pt x="714" y="1438" on="0"/>
        <pt x="1167" y="1476" on="1"/>
        <pt x="1167" y="1622" on="1"/>
        <pt x="1448" y="1624" on="1"/>
        <pt x="1445" y="1476" on="1"/>
        <pt x="2190" y="1432" on="0"/>
        <pt x="2382" y="1026" on="1"/>
        <pt x="2440" y="904" on="0"/>
        <pt x="2439" y="770" on="1"/>
        <pt x="2440" y="416" on="0"/>
        <pt x="2192" y="216" on="1"/>
        <pt x="1922" y="-2" on="0"/>
        <pt x="1425" y="-38" on="1"/>
        <pt x="1425" y="-213" on="1"/>
      </contour>
    </TTGlyph>
    <TTGlyph name="afii10039" xMin="124" yMin="-92" xMax="2216" yMax="1492">
      <component glyphName="X" x="0" y="0" flags="0x1004"/>
    </TTGlyph>
    <TTGlyph name="afii10040" xMin="287" yMin="-403" xMax="2389" yMax="1450">
      <contour>
        <pt x="2353" y="-379" on="1"/>
        <pt x="1866" y="-403" on="1"/>
        <pt x="1799" y="-403" on="0"/>
        <pt x="1767" y="-395" on="1"/>
        <pt x="1767" y="-316" on="0"/>
        <pt x="1786" y="7" on="1"/>
        <pt x="1588" y="-1" on="0"/>
        <pt x="1495" y="-1" on="1"/>
        <pt x="287" y="-1" on="1"/>
        <pt x="326" y="813" on="1"/>
        <pt x="345" y="1442" on="1"/>
        <pt x="643" y="1446" on="0"/>
        <pt x="1071" y="1446" on="1"/>
        <pt x="1062" y="1351" on="1"/>
        <pt x="1056" y="1287" on="0"/>
        <pt x="1014" y="555" on="0"/>
        <pt x="1010" y="510" on="1"/>
        <pt x="1484" y="510" on="1"/>
        <pt x="1548" y="1450" on="1"/>
        <pt x="2244" y="1439" on="1"/>
        <pt x="2244" y="1227" on="0"/>
        <pt x="2228" y="908" on="1"/>
        <pt x="2207" y="483" on="1"/>
        <pt x="2326" y="483" on="0"/>
        <pt x="2389" y="480" on="1"/>
        <pt x="2351" y="-327" on="1"/>
        <pt x="2351" y="-355" on="0"/>
      </contour>
    </TTGlyph>
    <TTGlyph name="afii10041" xMin="229" yMin="-6" xMax="2127" yMax="1444">
      <contour>
        <pt x="1416" y="417" on="1"/>
        <pt x="870" y="411" on="1"/>
        <pt x="462" y="410" on="0"/>
        <pt x="331" y="564" on="1"/>
        <pt x="229" y="684" on="0"/>
        <pt x="229" y="919" on="1"/>
        <pt x="229" y="1444" on="1"/>
        <pt x="938" y="1444" on="1"/>
        <pt x="943" y="1006" on="1"/>
        <pt x="943" y="964" on="0"/>
        <pt x="951" y="922" on="0"/>
        <pt x="990" y="883" on="0"/>
        <pt x="1080" y="883" on="1"/>
        <pt x="1404" y="889" on="1"/>
        <pt x="1393" y="1441" on="1"/>
        <pt x="2091" y="1434" on="1"/>
        <pt x="2117" y="314" on="0"/>
        <pt x="2119" y="270" on="1"/>
        <pt x="2122" y="98" on="1"/>
        <pt x="2124" y="32" on="0"/>
        <pt x="2127" y="-2" on="1"/>
        <pt x="2112" y="-6" on="0"/>
        <pt x="1932" y="-6" on="0"/>
        <pt x="1437" y="-1" on="1"/>
      </contour>
    </TTGlyph>
    <TTGlyph name="afii10042" xMin="351" yMin="-1" xMax="3193" yMax="1454">
      <contour>
        <pt x="3193" y="1450" on="1"/>
        <pt x="3193" y="1359" on="0"/>
        <pt x="3192" y="1286" on="1"/>
        <pt x="3162" y="486" on="1"/>
        <pt x="3151" y="287" on="0"/>
        <pt x="3132" y="102" on="1"/>
        <pt x="3128" y="42" on="1"/>
        <pt x="3116" y="28" on="1"/>
        <pt x="3064" y="20" on="0"/>
        <pt x="2585" y="-1" on="0"/>
        <pt x="2489" y="-1" on="1"/>
        <pt x="351" y="-1" on="1"/>
        <pt x="395" y="889" on="1"/>
        <pt x="396" y="941" on="0"/>
        <pt x="398" y="1079" on="0"/>
        <pt x="405" y="1309" on="0"/>
        <pt x="408" y="1450" on="1"/>
        <pt x="706" y="1454" on="0"/>
        <pt x="1105" y="1454" on="1"/>
        <pt x="1096" y="1351" on="1"/>
        <pt x="1091" y="1289" on="0"/>
        <pt x="1048" y="561" on="0"/>
        <pt x="1044" y="510" on="1"/>
        <pt x="1454" y="510" on="1"/>
        <pt x="1518" y="1450" on="1"/>
        <pt x="2138" y="1450" on="1"/>
        <pt x="2079" y="510" on="1"/>
        <pt x="2478" y="510" on="1"/>
        <pt x="2542" y="1450" on="1"/>
      </contour>
    </TTGlyph>
    <TTGlyph name="afii10043" xMin="351" yMin="-403" xMax="3433" yMax="1469">
      <contour>
        <pt x="3397" y="-379" on="1"/>
        <pt x="2910" y="-403" on="1"/>
        <pt x="2843" y="-403" on="0"/>
        <pt x="2811" y="-395" on="1"/>
        <pt x="2811" y="-332" on="0"/>
        <pt x="2830" y="10" on="1"/>
        <pt x="2579" y="-1" on="0"/>
        <pt x="2489" y="-1" on="1"/>
        <pt x="351" y="-1" on="1"/>
        <pt x="395" y="889" on="1"/>
        <pt x="396" y="941" on="0"/>
        <pt x="398" y="1079" on="0"/>
        <pt x="405" y="1309" on="0"/>
        <pt x="408" y="1450" on="1"/>
        <pt x="706" y="1454" on="0"/>
        <pt x="1105" y="1454" on="1"/>
        <pt x="1096" y="1351" on="1"/>
        <pt x="1091" y="1289" on="0"/>
        <pt x="1048" y="561" on="0"/>
        <pt x="1044" y="510" on="1"/>
        <pt x="1454" y="510" on="1"/>
        <pt x="1518" y="1450" on="1"/>
        <pt x="2138" y="1469" on="1"/>
        <pt x="2079" y="510" on="1"/>
        <pt x="2478" y="510" on="1"/>
        <pt x="2542" y="1450" on="1"/>
        <pt x="3192" y="1469" on="1"/>
        <pt x="3192" y="1338" on="0"/>
        <pt x="3187" y="1158" on="1"/>
        <pt x="3161" y="470" on="1"/>
        <pt x="3278" y="478" on="0"/>
        <pt x="3333" y="483" on="1"/>
        <pt x="3337" y="483" on="1"/>
        <pt x="3385" y="483" on="0"/>
        <pt x="3433" y="480" on="1"/>
        <pt x="3395" y="-327" on="1"/>
        <pt x="3395" y="-355" on="0"/>
      </contour>
    </TTGlyph>
    <TTGlyph name="afii10044" xMin="1129" yMin="-7" xMax="3266" yMax="1454">
      <contour>
        <pt x="1462" y="-7" on="1"/>
        <pt x="1462" y="101" on="1"/>
        <pt x="1462" y="164" on="0"/>
        <pt x="1475" y="384" on="0"/>
        <pt x="1476" y="432" on="1"/>
        <pt x="1488" y="943" on="1"/>
        <pt x="1493" y="1063" on="1"/>
        <pt x="1129" y="1063" on="1"/>
        <pt x="1131" y="1103" on="0"/>
        <pt x="1157" y="1365" on="0"/>
        <pt x="1168" y="1432" on="1"/>
        <pt x="2237" y="1454" on="1"/>
        <pt x="2215" y="997" on="1"/>
        <pt x="2656" y="1008" on="1"/>
        <pt x="2902" y="1008" on="0"/>
        <pt x="3074" y="896" on="1"/>
        <pt x="3162" y="838" on="0"/>
        <pt x="3266" y="649" on="0"/>
        <pt x="3266" y="529" on="1"/>
        <pt x="3266" y="289" on="0"/>
        <pt x="2882" y="8" on="0"/>
        <pt x="2474" y="4" on="1"/>
      </contour>
      <contour>
        <pt x="2189" y="342" on="1"/>
        <pt x="2233" y="338" on="0"/>
        <pt x="2450" y="338" on="0"/>
        <pt x="2574" y="449" on="0"/>
        <pt x="2574" y="627" on="0"/>
        <pt x="2477" y="730" on="0"/>
        <pt x="2390" y="730" on="1"/>
        <pt x="2206" y="730" on="1"/>
      </contour>
    </TTGlyph>
    <TTGlyph name="afii10045" xMin="250" yMin="0" xMax="3014" yMax="1461">
      <contour>
        <pt x="250" y="0" on="1"/>
        <pt x="250" y="108" on="1"/>
        <pt x="250" y="171" on="0"/>
        <pt x="263" y="391" on="0"/>
        <pt x="264" y="439" on="1"/>
        <pt x="276" y="950" on="1"/>
        <pt x="297" y="1446" on="1"/>
        <pt x="884" y="1456" on="1"/>
        <pt x="945" y="1456" on="0"/>
        <pt x="1025" y="1461" on="1"/>
        <pt x="1003" y="1004" on="1"/>
        <pt x="1442" y="1015" on="1"/>
        <pt x="1755" y="1016" on="0"/>
        <pt x="1927" y="850" on="1"/>
        <pt x="2054" y="728" on="0"/>
        <pt x="2054" y="535" on="1"/>
        <pt x="2054" y="297" on="0"/>
        <pt x="1670" y="15" on="0"/>
        <pt x="1262" y="11" on="1"/>
      </contour>
      <contour>
        <pt x="994" y="737" on="1"/>
        <pt x="977" y="349" on="1"/>
        <pt x="1021" y="345" on="0"/>
        <pt x="1204" y="345" on="0"/>
        <pt x="1254" y="369" on="1"/>
        <pt x="1362" y="421" on="0"/>
        <pt x="1362" y="553" on="1"/>
        <pt x="1362" y="634" on="0"/>
        <pt x="1264" y="737" on="0"/>
        <pt x="1178" y="737" on="1"/>
      </contour>
      <contour>
        <pt x="3014" y="1383" on="1"/>
        <pt x="3009" y="1262" on="1"/>
        <pt x="2981" y="10" on="1"/>
        <pt x="2791" y="5" on="1"/>
        <pt x="2268" y="0" on="1"/>
        <pt x="2265" y="29" on="0"/>
        <pt x="2265" y="74" on="1"/>
        <pt x="2299" y="1434" on="1"/>
        <pt x="2494" y="1447" on="0"/>
        <pt x="2836" y="1447" on="1"/>
        <pt x="3010" y="1449" on="1"/>
        <pt x="3014" y="1418" on="0"/>
      </contour>
    </TTGlyph>
    <TTGlyph name="afii10046" xMin="1462" yMin="-7" xMax="3266" yMax="1454">
      <contour>
        <pt x="1462" y="-7" on="1"/>
        <pt x="1462" y="101" on="1"/>
        <pt x="1462" y="164" on="0"/>
        <pt x="1475" y="384" on="0"/>
        <pt x="1476" y="432" on="1"/>
        <pt x="1488" y="943" on="1"/>
        <pt x="1509" y="1439" on="1"/>
        <pt x="2096" y="1449" on="1"/>
        <pt x="2158" y="1449" on="0"/>
        <pt x="2237" y="1454" on="1"/>
        <pt x="2215" y="997" on="1"/>
        <pt x="2656" y="1008" on="1"/>
        <pt x="2902" y="1008" on="0"/>
        <pt x="3074" y="896" on="1"/>
        <pt x="3162" y="838" on="0"/>
        <pt x="3266" y="649" on="0"/>
        <pt x="3266" y="529" on="1"/>
        <pt x="3266" y="289" on="0"/>
        <pt x="2882" y="8" on="0"/>
        <pt x="2474" y="4" on="1"/>
      </contour>
      <contour>
        <pt x="2206" y="730" on="1"/>
        <pt x="2189" y="342" on="1"/>
        <pt x="2233" y="338" on="0"/>
        <pt x="2450" y="338" on="0"/>
        <pt x="2574" y="449" on="0"/>
        <pt x="2574" y="627" on="0"/>
        <pt x="2477" y="730" on="0"/>
        <pt x="2390" y="730" on="1"/>
      </contour>
    </TTGlyph>
    <TTGlyph name="afii10047" xMin="132" yMin="-45" xMax="1535" yMax="1463">
      <contour>
        <pt x="705" y="-13" on="1"/>
        <pt x="507" y="-45" on="0"/>
        <pt x="221" y="-45" on="0"/>
        <pt x="132" y="-35" on="1"/>
        <pt x="132" y="421" on="1"/>
        <pt x="263" y="403" on="0"/>
        <pt x="400" y="403" on="1"/>
        <pt x="681" y="403" on="0"/>
        <pt x="746" y="589" on="1"/>
        <pt x="261" y="591" on="1"/>
        <pt x="269" y="858" on="1"/>
        <pt x="739" y="863" on="1"/>
        <pt x="667" y="1044" on="0"/>
        <pt x="406" y="1044" on="1"/>
        <pt x="315" y="1044" on="0"/>
        <pt x="132" y="1009" on="1"/>
        <pt x="132" y="1448" on="1"/>
        <pt x="268" y="1463" on="0"/>
        <pt x="410" y="1463" on="1"/>
        <pt x="1145" y="1463" on="0"/>
        <pt x="1415" y="1111" on="1"/>
        <pt x="1535" y="955" on="0"/>
        <pt x="1535" y="716" on="1"/>
        <pt x="1535" y="121" on="0"/>
      </contour>
    </TTGlyph>
    <TTGlyph name="afii10048" xMin="226" yMin="-45" xMax="3302" yMax="1481">
      <contour>
        <pt x="2531" y="-24" on="0"/>
        <pt x="2315" y="-45" on="0"/>
        <pt x="2068" y="-45" on="0"/>
        <pt x="1836" y="-18" on="0"/>
        <pt x="1602" y="50" on="0"/>
        <pt x="1416" y="156" on="0"/>
        <pt x="1267" y="324" on="0"/>
        <pt x="1229" y="432" on="1"/>
        <pt x="922" y="432" on="1"/>
        <pt x="896" y="2" on="1"/>
        <pt x="356" y="-24" on="1"/>
        <pt x="226" y="-17" on="1"/>
        <pt x="226" y="155" on="0"/>
        <pt x="235" y="402" on="1"/>
        <pt x="256" y="966" on="1"/>
        <pt x="267" y="1165" on="0"/>
        <pt x="286" y="1350" on="1"/>
        <pt x="290" y="1410" on="1"/>
        <pt x="302" y="1424" on="1"/>
        <pt x="354" y="1432" on="0"/>
        <pt x="852" y="1453" on="0"/>
        <pt x="949" y="1453" on="1"/>
        <pt x="968" y="1453" on="1"/>
        <pt x="930" y="943" on="1"/>
        <pt x="1232" y="943" on="1"/>
        <pt x="1327" y="1193" on="0"/>
        <pt x="1905" y="1481" on="0"/>
        <pt x="2240" y="1481" on="1"/>
        <pt x="3114" y="1481" on="0"/>
        <pt x="3270" y="978" on="1"/>
        <pt x="3302" y="876" on="0"/>
        <pt x="3301" y="619" on="0"/>
        <pt x="3233" y="396" on="0"/>
        <pt x="3115" y="234" on="0"/>
        <pt x="2946" y="107" on="0"/>
        <pt x="2756" y="27" on="0"/>
      </contour>
      <contour>
        <pt x="1929" y="520" on="0"/>
        <pt x="2080" y="361" on="0"/>
        <pt x="2416" y="361" on="0"/>
        <pt x="2568" y="546" on="0"/>
        <pt x="2568" y="922" on="0"/>
        <pt x="2419" y="1066" on="0"/>
        <pt x="2254" y="1066" on="1"/>
        <pt x="1929" y="1066" on="0"/>
        <pt x="1929" y="705" on="1"/>
      </contour>
    </TTGlyph>
    <TTGlyph name="afii10049" xMin="282" yMin="-13" xMax="2302" yMax="1449">
      <contour>
        <pt x="1342" y="1070" on="1"/>
        <pt x="1092" y="1070" on="0"/>
        <pt x="1092" y="944" on="1"/>
        <pt x="1092" y="897" on="0"/>
        <pt x="1116" y="876" on="1"/>
        <pt x="1140" y="856" on="0"/>
        <pt x="1158" y="846" on="1"/>
        <pt x="1215" y="815" on="0"/>
        <pt x="1520" y="788" on="0"/>
        <pt x="1569" y="782" on="1"/>
        <pt x="1582" y="1064" on="1"/>
        <pt x="1424" y="1070" on="0"/>
      </contour>
      <contour>
        <pt x="2246" y="-11" on="1"/>
        <pt x="1556" y="1" on="1"/>
        <pt x="1550" y="1" on="0"/>
        <pt x="1550" y="32" on="1"/>
        <pt x="1565" y="506" on="1"/>
        <pt x="1321" y="523" on="1"/>
        <pt x="1279" y="442" on="0"/>
        <pt x="1052" y="60" on="0"/>
        <pt x="1005" y="-13" on="1"/>
        <pt x="282" y="9" on="1"/>
        <pt x="347" y="93" on="0"/>
        <pt x="715" y="629" on="1"/>
        <pt x="581" y="675" on="0"/>
        <pt x="385" y="863" on="0"/>
        <pt x="385" y="1002" on="1"/>
        <pt x="384" y="1202" on="0"/>
        <pt x="518" y="1302" on="1"/>
        <pt x="608" y="1370" on="0"/>
        <pt x="700" y="1392" on="1"/>
        <pt x="856" y="1431" on="0"/>
        <pt x="1116" y="1449" on="0"/>
        <pt x="1480" y="1449" on="0"/>
        <pt x="1825" y="1446" on="0"/>
        <pt x="2050" y="1441" on="0"/>
        <pt x="2216" y="1436" on="0"/>
        <pt x="2301" y="1433" on="0"/>
        <pt x="2302" y="1433" on="1"/>
      </contour>
    </TTGlyph>
    <TTGlyph name="afii10050" xMin="226" yMin="-4" xMax="1819" yMax="1839">
      <contour>
        <pt x="972" y="940" on="1"/>
        <pt x="948" y="120" on="1"/>
        <pt x="953" y="-4" on="1"/>
        <pt x="780" y="-4" on="1"/>
        <pt x="576" y="-4" on="0"/>
        <pt x="226" y="0" on="1"/>
        <pt x="241" y="529" on="0"/>
        <pt x="241" y="595" on="1"/>
        <pt x="241" y="715" on="1"/>
        <pt x="275" y="1452" on="1"/>
        <pt x="1251" y="1444" on="1"/>
        <pt x="1272" y="1839" on="1"/>
        <pt x="1819" y="1823" on="1"/>
        <pt x="1809" y="945" on="1"/>
        <pt x="1235" y="940" on="1"/>
      </contour>
    </TTGlyph>
    <TTGlyph name="afii10051" xMin="99" yMin="-469" xMax="2340" yMax="1444">
      <contour>
        <pt x="1293" y="10" on="1"/>
        <pt x="1256" y="7" on="0"/>
        <pt x="689" y="-5" on="0"/>
        <pt x="614" y="-5" on="1"/>
        <pt x="610" y="-5" on="1"/>
        <pt x="630" y="669" on="1"/>
        <pt x="638" y="917" on="0"/>
        <pt x="645" y="1051" on="1"/>
        <pt x="99" y="1051" on="1"/>
        <pt x="101" y="1093" on="0"/>
        <pt x="127" y="1366" on="0"/>
        <pt x="138" y="1435" on="1"/>
        <pt x="1009" y="1444" on="0"/>
        <pt x="1771" y="1444" on="0"/>
        <pt x="1921" y="1441" on="1"/>
        <pt x="1890" y="1179" on="0"/>
        <pt x="1850" y="1051" on="1"/>
        <pt x="1329" y="1051" on="1"/>
        <pt x="1323" y="784" on="1"/>
        <pt x="1504" y="819" on="0"/>
        <pt x="1676" y="819" on="1"/>
        <pt x="2002" y="819" on="0"/>
        <pt x="2340" y="637" on="0"/>
        <pt x="2340" y="422" on="1"/>
        <pt x="2338" y="170" on="1"/>
        <pt x="2326" y="-180" on="0"/>
        <pt x="2193" y="-318" on="1"/>
        <pt x="2103" y="-411" on="0"/>
        <pt x="1848" y="-469" on="0"/>
        <pt x="1611" y="-469" on="0"/>
        <pt x="1463" y="-460" on="1"/>
        <pt x="1476" y="-164" on="1"/>
        <pt x="1541" y="-164" on="0"/>
        <pt x="1626" y="-143" on="0"/>
        <pt x="1664" y="-112" on="1"/>
        <pt x="1739" y="-52" on="0"/>
        <pt x="1749" y="143" on="1"/>
        <pt x="1754" y="345" on="1"/>
        <pt x="1754" y="526" on="0"/>
        <pt x="1508" y="526" on="1"/>
        <pt x="1421" y="526" on="0"/>
        <pt x="1312" y="505" on="1"/>
        <pt x="1291" y="15" on="0"/>
      </contour>
    </TTGlyph>
    <TTGlyph name="afii10052" xMin="227" yMin="-18" xMax="1577" yMax="2089">
      <component glyphName="acute" x="689" y="439" flags="0x1004"/>
      <component glyphName="afii10020" x="0" y="0" flags="0x1204"/>
    </TTGlyph>
    <TTGlyph name="afii10053" xMin="133" yMin="-45" xMax="1536" yMax="1481">
      <contour>
        <pt x="199" y="382" on="0"/>
        <pt x="133" y="588" on="0"/>
        <pt x="133" y="852" on="0"/>
        <pt x="229" y="1088" on="0"/>
        <pt x="316" y="1171" on="1"/>
        <pt x="495" y="1342" on="0"/>
        <pt x="1039" y="1481" on="0"/>
        <pt x="1343" y="1481" on="1"/>
        <pt x="1447" y="1481" on="0"/>
        <pt x="1536" y="1471" on="1"/>
        <pt x="1536" y="1035" on="1"/>
        <pt x="1408" y="1042" on="0"/>
        <pt x="1206" y="1042" on="0"/>
        <pt x="968" y="966" on="0"/>
        <pt x="923" y="848" on="1"/>
        <pt x="1370" y="853" on="1"/>
        <pt x="1377" y="579" on="1"/>
        <pt x="927" y="581" on="1"/>
        <pt x="971" y="458" on="0"/>
        <pt x="1180" y="377" on="0"/>
        <pt x="1312" y="377" on="1"/>
        <pt x="1335" y="377" on="0"/>
        <pt x="1536" y="389" on="1"/>
        <pt x="1536" y="-30" on="1"/>
        <pt x="1401" y="-45" on="0"/>
        <pt x="1116" y="-45" on="0"/>
        <pt x="894" y="-23" on="0"/>
        <pt x="671" y="29" on="0"/>
        <pt x="481" y="108" on="0"/>
        <pt x="315" y="229" on="0"/>
      </contour>
    </TTGlyph>
    <TTGlyph name="afii10054" xMin="164" yMin="-45" xMax="2019" yMax="1481">
      <component glyphName="S" x="0" y="0" flags="0x1004"/>
    </TTGlyph>
    <TTGlyph name="afii10055" xMin="245" yMin="0" xMax="994" yMax="1449">
      <component glyphName="I" x="0" y="0" flags="0x1004"/>
    </TTGlyph>
    <TTGlyph name="afii10056" xMin="196" yMin="0" xMax="1208" yMax="2004">
      <component glyphName="dieresis" x="107" y="426" flags="0x1004"/>
      <component glyphName="afii10055" x="0" y="0" flags="0x1204"/>
    </TTGlyph>
    <TTGlyph name="afii10057" xMin="96" yMin="-129" xMax="1209" yMax="1452">
      <component glyphName="J" x="0" y="0" flags="0x1004"/>
    </TTGlyph>
    <TTGlyph name="afii10058" xMin="-18" yMin="-154" xMax="3046" yMax="1450">
      <contour>
        <pt x="878" y="266" on="1"/>
        <pt x="776" y="71" on="0"/>
        <pt x="420" y="-129" on="0"/>
        <pt x="146" y="-154" on="1"/>
        <pt x="134" y="-132" on="0"/>
        <pt x="20" y="132" on="0"/>
        <pt x="-18" y="217" on="1"/>
        <pt x="121" y="243" on="0"/>
        <pt x="250" y="440" on="0"/>
        <pt x="263" y="632" on="1"/>
        <pt x="286" y="966" on="1"/>
        <pt x="307" y="1440" on="1"/>
        <pt x="2017" y="1450" on="1"/>
        <pt x="1995" y="997" on="1"/>
        <pt x="2435" y="1008" on="1"/>
        <pt x="2754" y="1008" on="0"/>
        <pt x="2926" y="837" on="1"/>
        <pt x="3046" y="718" on="0"/>
        <pt x="3046" y="528" on="1"/>
        <pt x="3046" y="289" on="0"/>
        <pt x="2662" y="8" on="0"/>
        <pt x="2254" y="4" on="1"/>
        <pt x="1242" y="-7" on="1"/>
        <pt x="1242" y="101" on="1"/>
        <pt x="1242" y="193" on="0"/>
        <pt x="1267" y="944" on="0"/>
        <pt x="1273" y="1026" on="1"/>
        <pt x="959" y="1026" on="1"/>
        <pt x="945" y="602" on="0"/>
        <pt x="919" y="415" on="0"/>
        <pt x="898" y="305" on="0"/>
      </contour>
      <contour>
        <pt x="2068" y="338" on="1"/>
        <pt x="2132" y="338" on="1"/>
        <pt x="2230" y="338" on="0"/>
        <pt x="2354" y="449" on="0"/>
        <pt x="2354" y="627" on="0"/>
        <pt x="2257" y="730" on="0"/>
        <pt x="2170" y="730" on="1"/>
        <pt x="1986" y="730" on="1"/>
        <pt x="1969" y="342" on="1"/>
        <pt x="2009" y="338" on="0"/>
      </contour>
    </TTGlyph>
    <TTGlyph name="afii10059" xMin="226" yMin="-16" xMax="3266" yMax="1453">
      <contour>
        <pt x="1462" y="-7" on="1"/>
        <pt x="1462" y="101" on="1"/>
        <pt x="1462" y="253" on="0"/>
        <pt x="1476" y="432" on="1"/>
        <pt x="942" y="432" on="1"/>
        <pt x="916" y="2" on="1"/>
        <pt x="226" y="-16" on="1"/>
        <pt x="226" y="137" on="0"/>
        <pt x="256" y="966" on="1"/>
        <pt x="272" y="1444" on="1"/>
        <pt x="988" y="1453" on="1"/>
        <pt x="950" y="943" on="1"/>
        <pt x="1488" y="943" on="1"/>
        <pt x="1509" y="1429" on="1"/>
        <pt x="1567" y="1437" on="0"/>
        <pt x="1748" y="1440" on="0"/>
        <pt x="2144" y="1448" on="0"/>
        <pt x="2237" y="1449" on="1"/>
        <pt x="2215" y="997" on="1"/>
        <pt x="2656" y="1008" on="1"/>
        <pt x="2902" y="1008" on="0"/>
        <pt x="3074" y="896" on="1"/>
        <pt x="3162" y="838" on="0"/>
        <pt x="3266" y="649" on="0"/>
        <pt x="3266" y="529" on="1"/>
        <pt x="3266" y="289" on="0"/>
        <pt x="2882" y="8" on="0"/>
        <pt x="2474" y="4" on="1"/>
      </contour>
      <contour>
        <pt x="2206" y="730" on="1"/>
        <pt x="2189" y="342" on="1"/>
        <pt x="2233" y="338" on="0"/>
        <pt x="2450" y="338" on="0"/>
        <pt x="2574" y="449" on="0"/>
        <pt x="2574" y="627" on="0"/>
        <pt x="2477" y="730" on="0"/>
        <pt x="2390" y="730" on="1"/>
      </contour>
    </TTGlyph>
    <TTGlyph name="afii10060" xMin="99" yMin="-5" xMax="2366" yMax="1449">
      <contour>
        <pt x="1293" y="10" on="1"/>
        <pt x="1256" y="7" on="0"/>
        <pt x="689" y="-5" on="0"/>
        <pt x="614" y="-5" on="1"/>
        <pt x="610" y="-5" on="1"/>
        <pt x="610" y="-5" on="0"/>
        <pt x="630" y="669" on="1"/>
        <pt x="638" y="917" on="0"/>
        <pt x="645" y="1051" on="1"/>
        <pt x="99" y="1051" on="1"/>
        <pt x="101" y="1093" on="0"/>
        <pt x="127" y="1368" on="0"/>
        <pt x="138" y="1438" on="1"/>
        <pt x="1007" y="1449" on="0"/>
        <pt x="1764" y="1449" on="0"/>
        <pt x="1921" y="1446" on="1"/>
        <pt x="1890" y="1180" on="0"/>
        <pt x="1850" y="1051" on="1"/>
        <pt x="1329" y="1051" on="1"/>
        <pt x="1324" y="803" on="1"/>
        <pt x="1506" y="840" on="0"/>
        <pt x="1706" y="840" on="1"/>
        <pt x="2122" y="840" on="0"/>
        <pt x="2288" y="630" on="1"/>
        <pt x="2365" y="532" on="0"/>
        <pt x="2366" y="399" on="1"/>
        <pt x="2353" y="4" on="1"/>
        <pt x="2339" y="2" on="0"/>
        <pt x="1757" y="-1" on="1"/>
        <pt x="1765" y="306" on="1"/>
        <pt x="1765" y="487" on="0"/>
        <pt x="1519" y="487" on="1"/>
        <pt x="1431" y="487" on="0"/>
        <pt x="1313" y="464" on="1"/>
      </contour>
    </TTGlyph>
    <TTGlyph name="afii10061" xMin="180" yMin="-81" xMax="2293" yMax="2099">
      <component glyphName="acute" x="1038" y="449" flags="0x1004"/>
      <component glyphName="afii10028" x="0" y="0" flags="0x1204"/>
    </TTGlyph>
    <TTGlyph name="afii10062" xMin="37" yMin="0" xMax="1997" yMax="1958">
      <component glyphName="breve" x="623" y="493" flags="0x1004"/>
      <component glyphName="afii10037" x="0" y="0" flags="0x1204"/>
    </TTGlyph>
    <TTGlyph name="afii10065" xMin="119" yMin="-37" xMax="1671" yMax="1081">
      <component glyphName="a" x="0" y="0" flags="0x1004"/>
    </TTGlyph>
    <TTGlyph name="afii10066" xMin="114" yMin="-37" xMax="1591" yMax="1326">
      <contour>
        <pt x="1151" y="1326" on="1"/>
        <pt x="1253" y="960" on="1"/>
        <pt x="1176" y="950" on="0"/>
        <pt x="924" y="859" on="0"/>
        <pt x="853" y="798" on="1"/>
        <pt x="928" y="806" on="0"/>
        <pt x="1129" y="806" on="0"/>
        <pt x="1228" y="784" on="1"/>
        <pt x="1408" y="745" on="0"/>
        <pt x="1591" y="550" on="0"/>
        <pt x="1591" y="434" on="1"/>
        <pt x="1591" y="211" on="0"/>
        <pt x="1195" y="-37" on="0"/>
        <pt x="811" y="-37" on="1"/>
        <pt x="484" y="-36" on="0"/>
        <pt x="296" y="104" on="1"/>
        <pt x="201" y="175" on="0"/>
        <pt x="114" y="357" on="0"/>
        <pt x="114" y="430" on="1"/>
        <pt x="114" y="580" on="0"/>
        <pt x="174" y="714" on="1"/>
        <pt x="283" y="956" on="0"/>
        <pt x="569" y="1122" on="1"/>
        <pt x="826" y="1272" on="0"/>
      </contour>
      <contour>
        <pt x="713" y="390" on="1"/>
        <pt x="713" y="208" on="0"/>
        <pt x="862" y="208" on="1"/>
        <pt x="1020" y="208" on="0"/>
        <pt x="1020" y="424" on="1"/>
        <pt x="1020" y="519" on="0"/>
        <pt x="951" y="614" on="0"/>
        <pt x="871" y="614" on="1"/>
        <pt x="750" y="614" on="0"/>
        <pt x="720" y="469" on="1"/>
        <pt x="712" y="432" on="0"/>
      </contour>
    </TTGlyph>
    <TTGlyph name="afii10067" xMin="130" yMin="-4" xMax="1656" yMax="1026">
      <contour>
        <pt x="1046" y="1026" on="1"/>
        <pt x="1634" y="1026" on="0"/>
        <pt x="1634" y="761" on="1"/>
        <pt x="1634" y="673" on="0"/>
        <pt x="1517" y="564" on="0"/>
        <pt x="1419" y="544" on="1"/>
        <pt x="1523" y="527" on="0"/>
        <pt x="1656" y="402" on="0"/>
        <pt x="1656" y="308" on="1"/>
        <pt x="1656" y="214" on="0"/>
        <pt x="1572" y="140" on="1"/>
        <pt x="1409" y="-4" on="0"/>
        <pt x="1018" y="-4" on="1"/>
        <pt x="191" y="-4" on="1"/>
        <pt x="153" y="-4" on="0"/>
        <pt x="130" y="10" on="1"/>
        <pt x="156" y="492" on="1"/>
        <pt x="154" y="492" on="1"/>
        <pt x="187" y="1009" on="1"/>
      </contour>
      <contour>
        <pt x="910" y="613" on="1"/>
        <pt x="1030" y="613" on="0"/>
        <pt x="1111" y="670" on="0"/>
        <pt x="1111" y="780" on="0"/>
        <pt x="1026" y="821" on="0"/>
        <pt x="941" y="821" on="1"/>
        <pt x="733" y="821" on="1"/>
        <pt x="720" y="613" on="1"/>
      </contour>
      <contour>
        <pt x="894" y="210" on="1"/>
        <pt x="1048" y="210" on="0"/>
        <pt x="1080" y="260" on="1"/>
        <pt x="1094" y="282" on="0"/>
        <pt x="1094" y="328" on="1"/>
        <pt x="1094" y="418" on="0"/>
        <pt x="923" y="419" on="1"/>
        <pt x="714" y="419" on="1"/>
        <pt x="706" y="210" on="1"/>
      </contour>
    </TTGlyph>
    <TTGlyph name="afii10068" xMin="131" yMin="-10" xMax="1265" yMax="1023">
      <contour>
        <pt x="138" y="278" on="1"/>
        <pt x="140" y="316" on="1"/>
        <pt x="150" y="560" on="0"/>
        <pt x="183" y="992" on="1"/>
        <pt x="193" y="1002" on="1"/>
        <pt x="234" y="1008" on="0"/>
        <pt x="651" y="1023" on="0"/>
        <pt x="732" y="1023" on="1"/>
        <pt x="1265" y="1023" on="1"/>
        <pt x="1251" y="703" on="0"/>
        <pt x="1246" y="661" on="1"/>
        <pt x="741" y="661" on="1"/>
        <pt x="689" y="-5" on="1"/>
        <pt x="237" y="-10" on="1"/>
        <pt x="131" y="-6" on="1"/>
        <pt x="131" y="110" on="0"/>
      </contour>
    </TTGlyph>
    <TTGlyph name="afii10069" xMin="-23" yMin="-273" xMax="1817" yMax="1029">
      <contour>
        <pt x="1817" y="308" on="1"/>
        <pt x="1805" y="-78" on="0"/>
        <pt x="1796" y="-273" on="1"/>
        <pt x="1481" y="-269" on="1"/>
        <pt x="1238" y="-271" on="1"/>
        <pt x="1255" y="0" on="1"/>
        <pt x="729" y="0" on="1"/>
        <pt x="729" y="-3" on="1"/>
        <pt x="568" y="-5" on="1"/>
        <pt x="540" y="-263" on="1"/>
        <pt x="-23" y="-268" on="1"/>
        <pt x="25" y="287" on="1"/>
        <pt x="36" y="297" on="1"/>
        <pt x="255" y="297" on="1"/>
        <pt x="265" y="378" on="0"/>
        <pt x="324" y="822" on="0"/>
        <pt x="345" y="1007" on="1"/>
        <pt x="356" y="1017" on="1"/>
        <pt x="1149" y="1023" on="1"/>
        <pt x="1697" y="1029" on="1"/>
        <pt x="1683" y="500" on="1"/>
        <pt x="1676" y="308" on="1"/>
      </contour>
      <contour>
        <pt x="774" y="301" on="1"/>
        <pt x="1149" y="301" on="1"/>
        <pt x="1165" y="691" on="1"/>
        <pt x="828" y="691" on="1"/>
      </contour>
    </TTGlyph>
    <TTGlyph name="afii10070" xMin="114" yMin="-36" xMax="1490" yMax="1070">
      <component glyphName="e" x="0" y="0" flags="0x1004"/>
    </TTGlyph>
    <TTGlyph name="afii10071" xMin="114" yMin="-36" xMax="1490" yMax="1593">
      <component glyphName="dieresis" x="224" y="15" flags="0x1004"/>
      <component glyphName="afii10070" x="0" y="0" flags="0x1204"/>
    </TTGlyph>
    <TTGlyph name="afii10072" xMin="27" yMin="-23" xMax="1957" yMax="1018">
      <contour>
        <pt x="819" y="-21" on="1"/>
        <pt x="823" y="272" on="1"/>
        <pt x="550" y="-9" on="1"/>
        <pt x="513" y="-11" on="0"/>
        <pt x="487" y="-11" on="1"/>
        <pt x="27" y="-2" on="1"/>
        <pt x="133" y="104" on="1"/>
        <pt x="533" y="489" on="1"/>
        <pt x="110" y="1018" on="1"/>
        <pt x="620" y="1007" on="1"/>
        <pt x="829" y="725" on="1"/>
        <pt x="833" y="1009" on="1"/>
        <pt x="1151" y="1011" on="1"/>
        <pt x="1144" y="718" on="1"/>
        <pt x="1375" y="1017" on="1"/>
        <pt x="1408" y="1018" on="0"/>
        <pt x="1459" y="1018" on="1"/>
        <pt x="1919" y="1008" on="1"/>
        <pt x="1443" y="541" on="1"/>
        <pt x="1957" y="19" on="1"/>
        <pt x="1385" y="-10" on="1"/>
        <pt x="1134" y="267" on="1"/>
        <pt x="1128" y="-23" on="1"/>
      </contour>
    </TTGlyph>
    <TTGlyph name="afii10073" xMin="169" yMin="-37" xMax="1252" yMax="1070">
      <contour>
        <pt x="590" y="1070" on="1"/>
        <pt x="1228" y="1070" on="0"/>
        <pt x="1228" y="804" on="1"/>
        <pt x="1228" y="665" on="0"/>
        <pt x="1013" y="564" on="1"/>
        <pt x="1252" y="486" on="0"/>
        <pt x="1252" y="306" on="1"/>
        <pt x="1252" y="156" on="0"/>
        <pt x="934" y="-37" on="0"/>
        <pt x="643" y="-37" on="1"/>
        <pt x="513" y="-37" on="0"/>
        <pt x="257" y="6" on="0"/>
        <pt x="177" y="37" on="1"/>
        <pt x="179" y="287" on="1"/>
        <pt x="337" y="251" on="0"/>
        <pt x="460" y="251" on="1"/>
        <pt x="516" y="251" on="0"/>
        <pt x="579" y="309" on="0"/>
        <pt x="579" y="387" on="0"/>
        <pt x="519" y="441" on="0"/>
        <pt x="465" y="441" on="1"/>
        <pt x="284" y="441" on="1"/>
        <pt x="309" y="652" on="1"/>
        <pt x="427" y="652" on="1"/>
        <pt x="495" y="652" on="0"/>
        <pt x="565" y="709" on="0"/>
        <pt x="565" y="790" on="0"/>
        <pt x="501" y="849" on="0"/>
        <pt x="449" y="849" on="1"/>
        <pt x="328" y="849" on="0"/>
        <pt x="169" y="813" on="1"/>
        <pt x="169" y="1034" on="1"/>
        <pt x="416" y="1070" on="0"/>
      </contour>
    </TTGlyph>
    <TTGlyph name="afii10074" xMin="131" yMin="4" xMax="1687" yMax="1034">
      <contour>
        <pt x="643" y="411" on="1"/>
        <pt x="726" y="522" on="0"/>
        <pt x="1153" y="1017" on="1"/>
        <pt x="1687" y="1023" on="1"/>
        <pt x="1649" y="82" on="1"/>
        <pt x="1649" y="25" on="0"/>
        <pt x="1651" y="4" on="1"/>
        <pt x="1105" y="4" on="1"/>
        <pt x="1105" y="95" on="0"/>
        <pt x="1119" y="398" on="1"/>
        <pt x="772" y="9" on="1"/>
        <pt x="668" y="5" on="0"/>
        <pt x="394" y="5" on="0"/>
        <pt x="213" y="11" on="1"/>
        <pt x="131" y="13" on="1"/>
        <pt x="131" y="117" on="1"/>
        <pt x="167" y="1028" on="1"/>
        <pt x="315" y="1034" on="0"/>
        <pt x="573" y="1034" on="0"/>
        <pt x="673" y="1026" on="1"/>
        <pt x="668" y="936" on="1"/>
        <pt x="648" y="498" on="0"/>
      </contour>
    </TTGlyph>
    <TTGlyph name="afii10075" xMin="131" yMin="4" xMax="1687" yMax="1547">
      <component glyphName="breve" x="526" y="82" flags="0x1004"/>
      <component glyphName="afii10074" x="0" y="0" flags="0x1204"/>
    </TTGlyph>
    <TTGlyph name="afii10076" xMin="130" yMin="-18" xMax="1762" yMax="995">
      <contour>
        <pt x="1146" y="-18" on="1"/>
        <pt x="833" y="331" on="1"/>
        <pt x="718" y="241" on="1"/>
        <pt x="713" y="-2" on="1"/>
        <pt x="130" y="-11" on="1"/>
        <pt x="165" y="995" on="1"/>
        <pt x="336" y="995" on="1"/>
        <pt x="753" y="990" on="1"/>
        <pt x="738" y="638" on="1"/>
        <pt x="1047" y="978" on="1"/>
        <pt x="1599" y="989" on="1"/>
        <pt x="1642" y="989" on="0"/>
        <pt x="1720" y="987" on="1"/>
        <pt x="1384" y="630" on="1"/>
        <pt x="1263" y="509" on="1"/>
        <pt x="1449" y="311" on="0"/>
        <pt x="1762" y="7" on="1"/>
      </contour>
    </TTGlyph>
    <TTGlyph name="afii10077" xMin="64" yMin="-37" xMax="1762" yMax="1029">
      <contour>
        <pt x="294" y="-37" on="1"/>
        <pt x="212" y="-37" on="0"/>
        <pt x="64" y="-28" on="1"/>
        <pt x="77" y="267" on="1"/>
        <pt x="141" y="267" on="0"/>
        <pt x="227" y="288" on="0"/>
        <pt x="266" y="320" on="1"/>
        <pt x="342" y="382" on="0"/>
        <pt x="360" y="574" on="1"/>
        <pt x="400" y="1011" on="1"/>
        <pt x="411" y="1021" on="1"/>
        <pt x="1234" y="1023" on="1"/>
        <pt x="1762" y="1029" on="1"/>
        <pt x="1748" y="500" on="1"/>
        <pt x="1729" y="-13" on="1"/>
        <pt x="1424" y="-9" on="1"/>
        <pt x="1161" y="-11" on="1"/>
        <pt x="1184" y="653" on="1"/>
        <pt x="901" y="653" on="1"/>
        <pt x="885" y="495" on="1"/>
        <pt x="847" y="182" on="0"/>
        <pt x="589" y="-37" on="0"/>
      </contour>
    </TTGlyph>
    <TTGlyph name="afii10078" xMin="129" yMin="-9" xMax="2127" yMax="1029">
      <contour>
        <pt x="129" y="-6" on="1"/>
        <pt x="200" y="1021" on="1"/>
        <pt x="200" y="1021" on="0"/>
        <pt x="862" y="1021" on="1"/>
        <pt x="1147" y="521" on="1"/>
        <pt x="1472" y="1029" on="1"/>
        <pt x="2057" y="1016" on="1"/>
        <pt x="2127" y="1" on="1"/>
        <pt x="1961" y="-9" on="0"/>
        <pt x="1617" y="-9" on="1"/>
        <pt x="1589" y="349" on="1"/>
        <pt x="1577" y="481" on="1"/>
        <pt x="1231" y="7" on="1"/>
        <pt x="1168" y="3" on="1"/>
        <pt x="988" y="3" on="1"/>
        <pt x="804" y="298" on="0"/>
        <pt x="724" y="453" on="1"/>
        <pt x="684" y="-5" on="1"/>
        <pt x="611" y="-9" on="0"/>
        <pt x="506" y="-9" on="1"/>
      </contour>
    </TTGlyph>
    <TTGlyph name="afii10079" xMin="131" yMin="-12" xMax="1876" yMax="1030">
      <contour>
        <pt x="139" y="293" on="1"/>
        <pt x="157" y="684" on="1"/>
        <pt x="184" y="1030" on="1"/>
        <pt x="779" y="1022" on="1"/>
        <pt x="762" y="668" on="1"/>
        <pt x="1230" y="668" on="1"/>
        <pt x="1248" y="1011" on="1"/>
        <pt x="1391" y="1011" on="1"/>
        <pt x="1876" y="1023" on="1"/>
        <pt x="1822" y="-4" on="1"/>
        <pt x="1206" y="-12" on="1"/>
        <pt x="1210" y="314" on="1"/>
        <pt x="754" y="314" on="1"/>
        <pt x="731" y="0" on="1"/>
        <pt x="131" y="2" on="1"/>
        <pt x="131" y="97" on="0"/>
      </contour>
    </TTGlyph>
    <TTGlyph name="afii10080" xMin="114" yMin="-37" xMax="1687" yMax="1070">
      <component glyphName="o" x="0" y="0" flags="0x1004"/>
    </TTGlyph>
    <TTGlyph name="afii10081" xMin="131" yMin="-13" xMax="1723" yMax="1029">
      <contour>
        <pt x="694" y="-3" on="1"/>
        <pt x="131" y="-8" on="1"/>
        <pt x="167" y="964" on="1"/>
        <pt x="171" y="1007" on="1"/>
        <pt x="182" y="1017" on="1"/>
        <pt x="1155" y="1023" on="1"/>
        <pt x="1723" y="1029" on="1"/>
        <pt x="1709" y="500" on="1"/>
        <pt x="1690" y="-13" on="1"/>
        <pt x="1375" y="-9" on="1"/>
        <pt x="1112" y="-11" on="1"/>
        <pt x="1141" y="651" on="1"/>
        <pt x="734" y="651" on="1"/>
      </contour>
    </TTGlyph>
    <TTGlyph name="afii10082" xMin="133" yMin="-353" xMax="1807" yMax="1070">
      <component glyphName="p" x="0" y="0" flags="0x1004"/>
    </TTGlyph>
    <TTGlyph name="afii10083" xMin="119" yMin="-37" xMax="1488" yMax="1070">
      <component glyphName="c" x="0" y="0" flags="0x1004"/>
    </TTGlyph>
    <TTGlyph name="afii10084" xMin="71" yMin="-8" xMax="1418" yMax="1023">
      <contour>
        <pt x="977" y="-3" on="1"/>
        <pt x="414" y="-8" on="1"/>
        <pt x="439" y="656" on="1"/>
        <pt x="71" y="656" on="1"/>
        <pt x="92" y="981" on="1"/>
        <pt x="92" y="1007" on="1"/>
        <pt x="103" y="1017" on="1"/>
        <pt x="1395" y="1023" on="1"/>
        <pt x="1418" y="1013" on="1"/>
        <pt x="1393" y="651" on="1"/>
        <pt x="1017" y="651" on="1"/>
      </contour>
    </TTGlyph>
    <TTGlyph name="afii10085" xMin="71" yMin="-664" xMax="1673" yMax="1027">
      <component glyphName="y" x="0" y="0" flags="0x1004"/>
    </TTGlyph>
    <TTGlyph name="afii10086" xMin="114" yMin="-410" xMax="2009" yMax="1311">
      <contour>
        <pt x="1210" y="-410" on="1"/>
        <pt x="854" y="-406" on="1"/>
        <pt x="867" y="-37" on="1"/>
        <pt x="572" y="-13" on="0"/>
        <pt x="273" y="99" on="0"/>
        <pt x="114" y="303" on="0"/>
        <pt x="114" y="469" on="1"/>
        <pt x="114" y="832" on="0"/>
        <pt x="437" y="970" on="1"/>
        <pt x="618" y="1047" on="0"/>
        <pt x="910" y="1069" on="1"/>
        <pt x="921" y="1306" on="1"/>
        <pt x="1278" y="1311" on="1"/>
        <pt x="1268" y="1065" on="1"/>
        <pt x="1842" y="1016" on="0"/>
        <pt x="1972" y="719" on="1"/>
        <pt x="2008" y="637" on="0"/>
        <pt x="2009" y="468" on="0"/>
        <pt x="1987" y="387" on="1"/>
        <pt x="1912" y="104" on="0"/>
        <pt x="1570" y="14" on="1"/>
        <pt x="1430" y="-23" on="0"/>
        <pt x="1220" y="-36" on="1"/>
      </contour>
      <contour>
        <pt x="1242" y="237" on="1"/>
        <pt x="1465" y="245" on="0"/>
        <pt x="1465" y="530" on="1"/>
        <pt x="1465" y="774" on="0"/>
        <pt x="1262" y="774" on="1"/>
        <pt x="1260" y="774" on="0"/>
        <pt x="1259" y="774" on="1"/>
      </contour>
      <contour>
        <pt x="874" y="234" on="1"/>
        <pt x="886" y="771" on="1"/>
        <pt x="808" y="771" on="0"/>
        <pt x="754" y="728" on="1"/>
        <pt x="654" y="648" on="0"/>
        <pt x="654" y="362" on="0"/>
        <pt x="755" y="234" on="0"/>
        <pt x="871" y="234" on="1"/>
        <pt x="872" y="234" on="0"/>
      </contour>
    </TTGlyph>
    <TTGlyph name="afii10087" xMin="97" yMin="-19" xMax="1784" yMax="1044">
      <component glyphName="x" x="0" y="0" flags="0x1004"/>
    </TTGlyph>
    <TTGlyph name="afii10088" xMin="131" yMin="-384" xMax="1973" yMax="1029">
      <contour>
        <pt x="1819" y="500" on="1"/>
        <pt x="1803" y="78" on="1"/>
        <pt x="1910" y="78" on="1"/>
        <pt x="1973" y="75" on="1"/>
        <pt x="1973" y="-307" on="1"/>
        <pt x="1969" y="-384" on="1"/>
        <pt x="1573" y="-384" on="1"/>
        <pt x="1571" y="-346" on="0"/>
        <pt x="1571" y="-245" on="1"/>
        <pt x="1571" y="-10" on="1"/>
        <pt x="1182" y="-10" on="1"/>
        <pt x="271" y="-16" on="1"/>
        <pt x="131" y="-12" on="1"/>
        <pt x="167" y="964" on="1"/>
        <pt x="171" y="1007" on="1"/>
        <pt x="182" y="1017" on="1"/>
        <pt x="275" y="1029" on="0"/>
        <pt x="763" y="1029" on="1"/>
        <pt x="781" y="1029" on="1"/>
        <pt x="751" y="355" on="1"/>
        <pt x="1192" y="355" on="1"/>
        <pt x="1225" y="1017" on="1"/>
        <pt x="1833" y="1029" on="1"/>
      </contour>
    </TTGlyph>
    <TTGlyph name="afii10089" xMin="166" yMin="-13" xMax="1793" yMax="1029">
      <contour>
        <pt x="1154" y="265" on="1"/>
        <pt x="1029" y="263" on="0"/>
        <pt x="891" y="263" on="1"/>
        <pt x="752" y="263" on="0"/>
        <pt x="608" y="281" on="1"/>
        <pt x="404" y="307" on="0"/>
        <pt x="302" y="400" on="1"/>
        <pt x="166" y="523" on="0"/>
        <pt x="166" y="882" on="1"/>
        <pt x="166" y="936" on="0"/>
        <pt x="167" y="964" on="1"/>
        <pt x="171" y="1019" on="1"/>
        <pt x="182" y="1029" on="1"/>
        <pt x="781" y="1018" on="1"/>
        <pt x="779" y="974" on="0"/>
        <pt x="779" y="919" on="1"/>
        <pt x="779" y="791" on="0"/>
        <pt x="867" y="647" on="0"/>
        <pt x="1020" y="647" on="1"/>
        <pt x="1154" y="647" on="0"/>
        <pt x="1167" y="650" on="1"/>
        <pt x="1185" y="1019" on="1"/>
        <pt x="1793" y="1019" on="1"/>
        <pt x="1779" y="500" on="1"/>
        <pt x="1760" y="-13" on="1"/>
        <pt x="1405" y="-9" on="1"/>
        <pt x="1142" y="-11" on="1"/>
      </contour>
    </TTGlyph>
    <TTGlyph name="afii10090" xMin="131" yMin="-16" xMax="2724" yMax="1029">
      <contour>
        <pt x="2710" y="500" on="1"/>
        <pt x="2691" y="-13" on="1"/>
        <pt x="2376" y="-9" on="1"/>
        <pt x="1262" y="-16" on="1"/>
        <pt x="131" y="-12" on="1"/>
        <pt x="167" y="964" on="1"/>
        <pt x="171" y="1013" on="1"/>
        <pt x="182" y="1023" on="1"/>
        <pt x="741" y="1025" on="1"/>
        <pt x="711" y="355" on="1"/>
        <pt x="1135" y="355" on="1"/>
        <pt x="1158" y="1024" on="1"/>
        <pt x="1505" y="1024" on="1"/>
        <pt x="1733" y="1029" on="1"/>
        <pt x="1719" y="500" on="1"/>
        <pt x="1712" y="355" on="1"/>
        <pt x="2123" y="355" on="1"/>
        <pt x="2156" y="1017" on="1"/>
        <pt x="2724" y="1029" on="1"/>
      </contour>
    </TTGlyph>
    <TTGlyph name="afii10091" xMin="131" yMin="-288" xMax="2860" yMax="1029">
      <contour>
        <pt x="2860" y="81" on="1"/>
        <pt x="2860" y="-211" on="1"/>
        <pt x="2856" y="-288" on="1"/>
        <pt x="2460" y="-288" on="1"/>
        <pt x="2458" y="-250" on="0"/>
        <pt x="2458" y="-149" on="1"/>
        <pt x="2458" y="-10" on="1"/>
        <pt x="1262" y="-16" on="1"/>
        <pt x="131" y="-12" on="1"/>
        <pt x="167" y="964" on="1"/>
        <pt x="171" y="1013" on="1"/>
        <pt x="182" y="1023" on="1"/>
        <pt x="741" y="1025" on="1"/>
        <pt x="711" y="355" on="1"/>
        <pt x="1135" y="355" on="1"/>
        <pt x="1158" y="1024" on="1"/>
        <pt x="1505" y="1024" on="1"/>
        <pt x="1733" y="1029" on="1"/>
        <pt x="1719" y="500" on="1"/>
        <pt x="1712" y="355" on="1"/>
        <pt x="2123" y="355" on="1"/>
        <pt x="2156" y="1017" on="1"/>
        <pt x="2724" y="1029" on="1"/>
        <pt x="2710" y="500" on="1"/>
        <pt x="2695" y="84" on="1"/>
        <pt x="2797" y="84" on="1"/>
      </contour>
    </TTGlyph>
    <TTGlyph name="afii10092" xMin="41" yMin="-5" xMax="1849" yMax="1027">
      <contour>
        <pt x="1177" y="-5" on="1"/>
        <pt x="361" y="-2" on="1"/>
        <pt x="321" y="-2" on="0"/>
        <pt x="295" y="18" on="1"/>
        <pt x="295" y="94" on="0"/>
        <pt x="296" y="137" on="1"/>
        <pt x="318" y="692" on="1"/>
        <pt x="185" y="692" on="1"/>
        <pt x="41" y="694" on="1"/>
        <pt x="56" y="1027" on="1"/>
        <pt x="730" y="1027" on="1"/>
        <pt x="823" y="1027" on="0"/>
        <pt x="864" y="1018" on="1"/>
        <pt x="864" y="921" on="1"/>
        <pt x="862" y="827" on="1"/>
        <pt x="1213" y="827" on="1"/>
        <pt x="1506" y="827" on="0"/>
        <pt x="1656" y="742" on="1"/>
        <pt x="1844" y="636" on="0"/>
        <pt x="1849" y="409" on="1"/>
        <pt x="1849" y="399" on="1"/>
        <pt x="1850" y="146" on="0"/>
        <pt x="1572" y="50" on="1"/>
        <pt x="1414" y="-5" on="0"/>
      </contour>
      <contour>
        <pt x="853" y="252" on="1"/>
        <pt x="1023" y="250" on="1"/>
        <pt x="1179" y="250" on="0"/>
        <pt x="1271" y="332" on="0"/>
        <pt x="1271" y="415" on="1"/>
        <pt x="1271" y="424" on="1"/>
        <pt x="1268" y="502" on="0"/>
        <pt x="1193" y="547" on="0"/>
        <pt x="1149" y="548" on="1"/>
        <pt x="857" y="548" on="1"/>
      </contour>
    </TTGlyph>
    <TTGlyph name="afii10093" xMin="131" yMin="-5" xMax="2512" yMax="1037">
      <contour>
        <pt x="859" y="250" on="1"/>
        <pt x="1018" y="250" on="0"/>
        <pt x="1107" y="332" on="0"/>
        <pt x="1107" y="463" on="0"/>
        <pt x="1090" y="497" on="0"/>
        <pt x="1082" y="515" on="0"/>
        <pt x="1057" y="529" on="0"/>
        <pt x="1045" y="538" on="0"/>
        <pt x="1008" y="543" on="0"/>
        <pt x="992" y="548" on="0"/>
        <pt x="968" y="548" on="1"/>
        <pt x="693" y="548" on="1"/>
        <pt x="689" y="252" on="1"/>
      </contour>
      <contour>
        <pt x="1013" y="-5" on="1"/>
        <pt x="197" y="-2" on="1"/>
        <pt x="157" y="-2" on="0"/>
        <pt x="131" y="18" on="1"/>
        <pt x="131" y="94" on="0"/>
        <pt x="132" y="137" on="1"/>
        <pt x="167" y="1027" on="1"/>
        <pt x="566" y="1037" on="1"/>
        <pt x="650" y="1037" on="0"/>
        <pt x="700" y="1026" on="1"/>
        <pt x="700" y="921" on="1"/>
        <pt x="698" y="827" on="1"/>
        <pt x="1049" y="827" on="1"/>
        <pt x="1342" y="827" on="0"/>
        <pt x="1492" y="742" on="1"/>
        <pt x="1686" y="632" on="0"/>
        <pt x="1685" y="148" on="0"/>
        <pt x="1411" y="52" on="1"/>
        <pt x="1250" y="-4" on="0"/>
      </contour>
      <contour>
        <pt x="2416" y="1026" on="1"/>
        <pt x="2464" y="1026" on="0"/>
        <pt x="2512" y="1023" on="1"/>
        <pt x="2496" y="12" on="1"/>
        <pt x="2019" y="-1" on="1"/>
        <pt x="1954" y="-1" on="0"/>
        <pt x="1921" y="9" on="1"/>
        <pt x="1936" y="1020" on="1"/>
      </contour>
    </TTGlyph>
    <TTGlyph name="afii10094" xMin="164" yMin="-5" xMax="1718" yMax="1029">
      <contour>
        <pt x="892" y="250" on="1"/>
        <pt x="1015" y="250" on="0"/>
        <pt x="1103" y="284" on="0"/>
        <pt x="1141" y="353" on="0"/>
        <pt x="1141" y="426" on="0"/>
        <pt x="1135" y="464" on="0"/>
        <pt x="1123" y="488" on="0"/>
        <pt x="1115" y="506" on="0"/>
        <pt x="1090" y="520" on="0"/>
        <pt x="1078" y="529" on="0"/>
        <pt x="1041" y="534" on="0"/>
        <pt x="1025" y="538" on="0"/>
        <pt x="1001" y="539" on="1"/>
        <pt x="726" y="539" on="1"/>
        <pt x="722" y="252" on="1"/>
      </contour>
      <contour>
        <pt x="1046" y="-5" on="1"/>
        <pt x="230" y="-2" on="1"/>
        <pt x="190" y="-2" on="0"/>
        <pt x="164" y="18" on="1"/>
        <pt x="164" y="94" on="0"/>
        <pt x="165" y="137" on="1"/>
        <pt x="193" y="939" on="1"/>
        <pt x="199" y="1027" on="1"/>
        <pt x="599" y="1029" on="1"/>
        <pt x="683" y="1029" on="0"/>
        <pt x="733" y="1018" on="1"/>
        <pt x="733" y="921" on="1"/>
        <pt x="731" y="818" on="1"/>
        <pt x="1082" y="818" on="1"/>
        <pt x="1436" y="818" on="0"/>
        <pt x="1588" y="697" on="1"/>
        <pt x="1718" y="594" on="0"/>
        <pt x="1718" y="399" on="1"/>
        <pt x="1718" y="148" on="0"/>
        <pt x="1444" y="52" on="1"/>
        <pt x="1283" y="-4" on="0"/>
      </contour>
    </TTGlyph>
    <TTGlyph name="afii10095" xMin="139" yMin="-37" xMax="1508" yMax="1070">
      <contour>
        <pt x="157" y="1027" on="1"/>
        <pt x="370" y="1070" on="0"/>
        <pt x="748" y="1070" on="0"/>
        <pt x="999" y="1036" on="0"/>
        <pt x="1234" y="955" on="0"/>
        <pt x="1405" y="833" on="0"/>
        <pt x="1456" y="739" on="1"/>
        <pt x="1508" y="644" on="0"/>
        <pt x="1508" y="534" on="1"/>
        <pt x="1508" y="316" on="0"/>
        <pt x="1378" y="190" on="1"/>
        <pt x="1145" y="-38" on="0"/>
        <pt x="618" y="-37" on="1"/>
        <pt x="381" y="-37" on="0"/>
        <pt x="139" y="14" on="1"/>
        <pt x="164" y="305" on="1"/>
        <pt x="366" y="270" on="0"/>
        <pt x="673" y="270" on="0"/>
        <pt x="844" y="343" on="0"/>
        <pt x="845" y="414" on="1"/>
        <pt x="278" y="414" on="1"/>
        <pt x="278" y="616" on="1"/>
        <pt x="852" y="616" on="1"/>
        <pt x="838" y="694" on="0"/>
        <pt x="649" y="777" on="0"/>
        <pt x="361" y="777" on="0"/>
        <pt x="204" y="752" on="1"/>
      </contour>
    </TTGlyph>
    <TTGlyph name="afii10096" xMin="131" yMin="-37" xMax="2270" yMax="1071">
      <contour>
        <pt x="1569" y="-37" on="1"/>
        <pt x="1001" y="-37" on="0"/>
        <pt x="897" y="314" on="1"/>
        <pt x="706" y="314" on="1"/>
        <pt x="685" y="0" on="1"/>
        <pt x="131" y="2" on="1"/>
        <pt x="131" y="102" on="0"/>
        <pt x="155" y="684" on="1"/>
        <pt x="175" y="1030" on="1"/>
        <pt x="729" y="1022" on="1"/>
        <pt x="713" y="668" on="1"/>
        <pt x="894" y="668" on="1"/>
        <pt x="998" y="1071" on="0"/>
        <pt x="1622" y="1071" on="1"/>
        <pt x="1921" y="1071" on="0"/>
        <pt x="2270" y="784" on="0"/>
        <pt x="2270" y="526" on="1"/>
        <pt x="2270" y="80" on="0"/>
        <pt x="1850" y="-10" on="1"/>
        <pt x="1725" y="-36" on="0"/>
      </contour>
      <contour>
        <pt x="1771" y="522" on="1"/>
        <pt x="1771" y="773" on="0"/>
        <pt x="1579" y="773" on="1"/>
        <pt x="1430" y="772" on="0"/>
        <pt x="1394" y="598" on="1"/>
        <pt x="1384" y="552" on="0"/>
        <pt x="1385" y="500" on="1"/>
        <pt x="1385" y="368" on="0"/>
        <pt x="1476" y="237" on="0"/>
        <pt x="1695" y="237" on="0"/>
        <pt x="1771" y="394" on="0"/>
      </contour>
    </TTGlyph>
    <TTGlyph name="afii10097" xMin="142" yMin="-9" xMax="1655" yMax="1028">
      <contour>
        <pt x="1085" y="792" on="1"/>
        <pt x="983" y="797" on="0"/>
        <pt x="901" y="797" on="1"/>
        <pt x="710" y="797" on="0"/>
        <pt x="704" y="713" on="1"/>
        <pt x="704" y="708" on="0"/>
        <pt x="704" y="703" on="1"/>
        <pt x="704" y="647" on="0"/>
        <pt x="785" y="595" on="0"/>
        <pt x="984" y="587" on="0"/>
        <pt x="1085" y="587" on="1"/>
      </contour>
      <contour>
        <pt x="753" y="-5" on="1"/>
        <pt x="697" y="-5" on="0"/>
        <pt x="176" y="2" on="0"/>
        <pt x="157" y="2" on="1"/>
        <pt x="389" y="435" on="1"/>
        <pt x="274" y="472" on="0"/>
        <pt x="142" y="614" on="0"/>
        <pt x="142" y="709" on="1"/>
        <pt x="142" y="894" on="0"/>
        <pt x="316" y="964" on="1"/>
        <pt x="456" y="1020" on="0"/>
        <pt x="700" y="1026" on="1"/>
        <pt x="764" y="1028" on="0"/>
        <pt x="855" y="1028" on="1"/>
        <pt x="1655" y="1019" on="1"/>
        <pt x="1643" y="445" on="1"/>
        <pt x="1637" y="109" on="0"/>
        <pt x="1631" y="-9" on="1"/>
        <pt x="1085" y="0" on="1"/>
        <pt x="1080" y="0" on="0"/>
        <pt x="1080" y="6" on="1"/>
        <pt x="1085" y="357" on="1"/>
        <pt x="890" y="361" on="1"/>
        <pt x="762" y="23" on="0"/>
      </contour>
    </TTGlyph>
    <TTGlyph name="afii10098" xMin="136" yMin="-7" xMax="1503" yMax="1312">
      <contour>
        <pt x="291" y="1031" on="1"/>
        <pt x="1090" y="1027" on="1"/>
        <pt x="1106" y="1312" on="1"/>
        <pt x="1503" y="1312" on="1"/>
        <pt x="1493" y="666" on="1"/>
        <pt x="752" y="666" on="1"/>
        <pt x="746" y="-7" on="1"/>
        <pt x="728" y="-7" on="1"/>
        <pt x="241" y="-7" on="0"/>
        <pt x="148" y="4" on="1"/>
        <pt x="136" y="14" on="1"/>
        <pt x="151" y="1027" on="1"/>
      </contour>
    </TTGlyph>
    <TTGlyph name="afii10099" xMin="29" yMin="-516" xMax="1792" yMax="1464">
      <contour>
        <pt x="163" y="1464" on="1"/>
        <pt x="752" y="1464" on="1"/>
        <pt x="752" y="1368" on="1"/>
        <pt x="754" y="1368" on="1"/>
        <pt x="1041" y="1372" on="0"/>
        <pt x="1171" y="1372" on="1"/>
        <pt x="1171" y="1353" on="0"/>
        <pt x="1161" y="1246" on="1"/>
        <pt x="1152" y="1150" on="1"/>
        <pt x="751" y="1150" on="1"/>
        <pt x="748" y="983" on="1"/>
        <pt x="748" y="983" on="0"/>
        <pt x="1145" y="984" on="1"/>
        <pt x="1446" y="971" on="0"/>
        <pt x="1792" y="761" on="0"/>
        <pt x="1792" y="527" on="1"/>
        <pt x="1790" y="143" on="1"/>
        <pt x="1778" y="-207" on="0"/>
        <pt x="1645" y="-352" on="1"/>
        <pt x="1556" y="-449" on="0"/>
        <pt x="1299" y="-516" on="0"/>
        <pt x="1115" y="-516" on="1"/>
        <pt x="1064" y="-516" on="0"/>
        <pt x="915" y="-507" on="1"/>
        <pt x="928" y="-191" on="1"/>
        <pt x="993" y="-191" on="0"/>
        <pt x="1078" y="-170" on="0"/>
        <pt x="1116" y="-139" on="1"/>
        <pt x="1191" y="-79" on="0"/>
        <pt x="1201" y="116" on="1"/>
        <pt x="1206" y="450" on="1"/>
        <pt x="1206" y="631" on="0"/>
        <pt x="960" y="631" on="1"/>
        <pt x="780" y="631" on="0"/>
        <pt x="754" y="626" on="1"/>
        <pt x="738" y="1" on="1"/>
        <pt x="261" y="-7" on="1"/>
        <pt x="131" y="-7" on="1"/>
        <pt x="131" y="96" on="1"/>
        <pt x="156" y="1150" on="1"/>
        <pt x="29" y="1150" on="1"/>
        <pt x="36" y="1366" on="1"/>
        <pt x="161" y="1366" on="1"/>
      </contour>
    </TTGlyph>
    <TTGlyph name="afii10100" xMin="131" yMin="-10" xMax="1265" yMax="1678">
      <component glyphName="acute" x="480" y="28" flags="0x1004"/>
      <component glyphName="afii10068" x="0" y="0" flags="0x1204"/>
    </TTGlyph>
    <TTGlyph name="afii10101" xMin="114" yMin="-35" xMax="1483" yMax="1074">
      <contour>
        <pt x="1465" y="1027" on="1"/>
        <pt x="1418" y="752" on="1"/>
        <pt x="1261" y="777" on="0"/>
        <pt x="973" y="777" on="0"/>
        <pt x="784" y="694" on="0"/>
        <pt x="770" y="616" on="1"/>
        <pt x="1344" y="616" on="1"/>
        <pt x="1344" y="414" on="1"/>
        <pt x="777" y="414" on="1"/>
        <pt x="778" y="344" on="0"/>
        <pt x="950" y="272" on="0"/>
        <pt x="1256" y="272" on="0"/>
        <pt x="1458" y="307" on="1"/>
        <pt x="1483" y="16" on="1"/>
        <pt x="1241" y="-35" on="0"/>
        <pt x="1004" y="-35" on="1"/>
        <pt x="476" y="-34" on="0"/>
        <pt x="244" y="192" on="1"/>
        <pt x="114" y="319" on="0"/>
        <pt x="114" y="528" on="1"/>
        <pt x="114" y="646" on="0"/>
        <pt x="166" y="740" on="1"/>
        <pt x="260" y="913" on="0"/>
        <pt x="725" y="1074" on="0"/>
        <pt x="1248" y="1074" on="0"/>
      </contour>
    </TTGlyph>
    <TTGlyph name="afii10102" xMin="125" yMin="-37" xMax="1447" yMax="1070">
      <component glyphName="s" x="0" y="0" flags="0x1004"/>
    </TTGlyph>
    <TTGlyph name="afii10103" xMin="157" yMin="1" xMax="846" yMax="1605">
      <component glyphName="i" x="0" y="0" flags="0x1004"/>
    </TTGlyph>
    <TTGlyph name="afii10104" xMin="-20" yMin="-1" xMax="992" yMax="1593">
      <component glyphName="dieresis" x="-109" y="15" flags="0x1004"/>
      <component glyphName="dotlessi" x="0" y="0" flags="0x1204"/>
    </TTGlyph>
    <TTGlyph name="afii10105" xMin="-63" yMin="-448" xMax="1026" yMax="1606">
      <component glyphName="j" x="0" y="0" flags="0x1004"/>
    </TTGlyph>
    <TTGlyph name="afii10106" xMin="54" yMin="-21" xMax="2643" yMax="1027">
      <contour>
        <pt x="54" y="-12" on="1"/>
        <pt x="57" y="308" on="1"/>
        <pt x="134" y="304" on="0"/>
        <pt x="182" y="304" on="1"/>
        <pt x="289" y="304" on="0"/>
        <pt x="428" y="416" on="0"/>
        <pt x="438" y="611" on="1"/>
        <pt x="452" y="964" on="1"/>
        <pt x="452" y="1023" on="1"/>
        <pt x="1788" y="1027" on="1"/>
        <pt x="1788" y="921" on="1"/>
        <pt x="1786" y="827" on="1"/>
        <pt x="2037" y="827" on="1"/>
        <pt x="2383" y="828" on="0"/>
        <pt x="2528" y="700" on="1"/>
        <pt x="2643" y="599" on="0"/>
        <pt x="2643" y="409" on="1"/>
        <pt x="2643" y="181" on="0"/>
        <pt x="2311" y="-5" on="0"/>
        <pt x="2033" y="-5" on="1"/>
        <pt x="1219" y="-2" on="1"/>
        <pt x="1239" y="694" on="1"/>
        <pt x="964" y="694" on="1"/>
        <pt x="959" y="530" on="1"/>
        <pt x="943" y="223" on="0"/>
        <pt x="661" y="-21" on="0"/>
        <pt x="352" y="-21" on="1"/>
        <pt x="202" y="-21" on="0"/>
      </contour>
      <contour>
        <pt x="1857" y="250" on="1"/>
        <pt x="2016" y="250" on="0"/>
        <pt x="2105" y="332" on="0"/>
        <pt x="2105" y="463" on="0"/>
        <pt x="2088" y="497" on="0"/>
        <pt x="2080" y="515" on="0"/>
        <pt x="2055" y="529" on="0"/>
        <pt x="2043" y="538" on="0"/>
        <pt x="2006" y="543" on="0"/>
        <pt x="1990" y="548" on="0"/>
        <pt x="1966" y="548" on="1"/>
        <pt x="1781" y="548" on="1"/>
        <pt x="1777" y="252" on="1"/>
      </contour>
    </TTGlyph>
    <TTGlyph name="afii10107" xMin="131" yMin="-5" xMax="2547" yMax="1030">
      <contour>
        <pt x="1741" y="250" on="1"/>
        <pt x="1858" y="250" on="0"/>
        <pt x="1949" y="287" on="0"/>
        <pt x="1990" y="357" on="0"/>
        <pt x="1990" y="407" on="0"/>
        <pt x="1987" y="488" on="0"/>
        <pt x="1927" y="548" on="0"/>
        <pt x="1823" y="548" on="1"/>
        <pt x="1655" y="548" on="1"/>
        <pt x="1651" y="252" on="1"/>
      </contour>
      <contour>
        <pt x="1911" y="827" on="1"/>
        <pt x="2547" y="827" on="0"/>
        <pt x="2547" y="399" on="1"/>
        <pt x="2547" y="148" on="0"/>
        <pt x="2273" y="52" on="1"/>
        <pt x="2112" y="-4" on="0"/>
        <pt x="1875" y="-5" on="1"/>
        <pt x="1094" y="-2" on="1"/>
        <pt x="1103" y="314" on="1"/>
        <pt x="728" y="314" on="1"/>
        <pt x="718" y="0" on="1"/>
        <pt x="131" y="2" on="1"/>
        <pt x="158" y="1030" on="1"/>
        <pt x="747" y="1022" on="1"/>
        <pt x="736" y="668" on="1"/>
        <pt x="1114" y="668" on="1"/>
        <pt x="1122" y="939" on="1"/>
        <pt x="1128" y="1027" on="1"/>
        <pt x="1662" y="1029" on="1"/>
        <pt x="1662" y="921" on="1"/>
        <pt x="1660" y="827" on="1"/>
      </contour>
    </TTGlyph>
    <TTGlyph name="afii10108" xMin="29" yMin="-7" xMax="1806" yMax="1464">
      <contour>
        <pt x="1683" y="2" on="1"/>
        <pt x="1198" y="-1" on="1"/>
        <pt x="1206" y="468" on="1"/>
        <pt x="1206" y="649" on="0"/>
        <pt x="960" y="649" on="1"/>
        <pt x="872" y="649" on="0"/>
        <pt x="754" y="626" on="1"/>
        <pt x="738" y="1" on="1"/>
        <pt x="261" y="-7" on="1"/>
        <pt x="131" y="-7" on="1"/>
        <pt x="131" y="96" on="1"/>
        <pt x="158" y="1150" on="1"/>
        <pt x="29" y="1150" on="1"/>
        <pt x="36" y="1366" on="1"/>
        <pt x="163" y="1366" on="1"/>
        <pt x="166" y="1464" on="1"/>
        <pt x="755" y="1464" on="1"/>
        <pt x="755" y="1368" on="1"/>
        <pt x="1085" y="1372" on="0"/>
        <pt x="1123" y="1372" on="1"/>
        <pt x="1171" y="1372" on="1"/>
        <pt x="1171" y="1363" on="0"/>
        <pt x="1161" y="1246" on="1"/>
        <pt x="1152" y="1150" on="1"/>
        <pt x="751" y="1150" on="1"/>
        <pt x="747" y="961" on="1"/>
        <pt x="944" y="1002" on="0"/>
        <pt x="1145" y="1002" on="1"/>
        <pt x="1452" y="1002" on="0"/>
        <pt x="1806" y="761" on="0"/>
        <pt x="1806" y="545" on="1"/>
        <pt x="1794" y="11" on="1"/>
        <pt x="1768" y="8" on="0"/>
      </contour>
    </TTGlyph>
    <TTGlyph name="afii10109" xMin="130" yMin="-18" xMax="1762" yMax="1678">
      <component glyphName="acute" x="740" y="28" flags="0x1004"/>
      <component glyphName="afii10076" x="0" y="0" flags="0x1204"/>
    </TTGlyph>
    <TTGlyph name="afii10110" xMin="71" yMin="-664" xMax="1673" yMax="1547">
      <component glyphName="breve" x="478" y="82" flags="0x1004"/>
      <component glyphName="afii10085" x="0" y="0" flags="0x1204"/>
    </TTGlyph>
    <TTGlyph name="afii10145" xMin="227" yMin="-414" xMax="2238" yMax="1438">
      <contour>
        <pt x="757" y="1438" on="1"/>
        <pt x="1002" y="1434" on="1"/>
        <pt x="996" y="1302" on="1"/>
        <pt x="966" y="674" on="0"/>
        <pt x="950" y="461" on="1"/>
        <pt x="1484" y="461" on="1"/>
        <pt x="1548" y="1431" on="1"/>
        <pt x="2108" y="1426" on="1"/>
        <pt x="2238" y="1420" on="1"/>
        <pt x="2220" y="947" on="1"/>
        <pt x="2174" y="-7" on="1"/>
        <pt x="2162" y="-21" on="1"/>
        <pt x="2110" y="-29" on="0"/>
        <pt x="1594" y="-50" on="0"/>
        <pt x="1495" y="-50" on="1"/>
        <pt x="1474" y="-401" on="1"/>
        <pt x="1427" y="-404" on="0"/>
        <pt x="1058" y="-412" on="0"/>
        <pt x="921" y="-416" on="0"/>
        <pt x="888" y="-410" on="1"/>
        <pt x="913" y="-50" on="1"/>
        <pt x="686" y="-51" on="0"/>
        <pt x="251" y="-51" on="1"/>
        <pt x="227" y="-51" on="1"/>
        <pt x="227" y="-47" on="0"/>
        <pt x="227" y="47" on="0"/>
        <pt x="271" y="1174" on="0"/>
        <pt x="284" y="1431" on="1"/>
      </contour>
    </TTGlyph>
    <TTGlyph name="afii10193" xMin="131" yMin="-366" xMax="1766" yMax="1016">
      <contour>
        <pt x="1155" y="362" on="1"/>
        <pt x="1169" y="726" on="0"/>
        <pt x="1169" y="951" on="1"/>
        <pt x="1169" y="1009" on="1"/>
        <pt x="1236" y="1016" on="0"/>
        <pt x="1296" y="1016" on="1"/>
        <pt x="1766" y="1014" on="1"/>
        <pt x="1766" y="988" on="0"/>
        <pt x="1739" y="296" on="0"/>
        <pt x="1730" y="1" on="1"/>
        <pt x="1366" y="-3" on="1"/>
        <pt x="1202" y="-3" on="1"/>
        <pt x="1195" y="-252" on="0"/>
        <pt x="1195" y="-354" on="0"/>
        <pt x="1196" y="-361" on="1"/>
        <pt x="709" y="-366" on="1"/>
        <pt x="643" y="-366" on="0"/>
        <pt x="610" y="-356" on="1"/>
        <pt x="610" y="-312" on="0"/>
        <pt x="624" y="-2" on="1"/>
        <pt x="131" y="-2" on="1"/>
        <pt x="131" y="274" on="0"/>
        <pt x="172" y="957" on="0"/>
        <pt x="175" y="1007" on="1"/>
        <pt x="769" y="1010" on="1"/>
        <pt x="762" y="875" on="0"/>
        <pt x="741" y="362" on="1"/>
      </contour>
    </TTGlyph>
    <TTGlyph name="afii61352" xMin="149" yMin="-45" xMax="4055" yMax="1450">
      <component glyphName="o" x="2368" y="0" flags="0x1004"/>
      <component glyphName="N" x="0" y="0" flags="0x1004"/>
    </TTGlyph>
    <TTGlyph name="agrave" xMin="119" yMin="-37" xMax="1671" yMax="1719">
      <component glyphName="grave" x="462" y="49" flags="0x1004"/>
      <component glyphName="a" x="0" y="0" flags="0x1204"/>
    </TTGlyph>
    <TTGlyph name="amacron" xMin="119" yMin="-37" xMax="1671" yMax="1568">
      <component glyphName="macron" x="228" y="660" flags="0x1004"/>
      <component glyphName="a" x="0" y="0" flags="0x1204"/>
    </TTGlyph>
    <TTGlyph name="ampersand" xMin="245" yMin="-63" xMax="2002" yMax="1481">
      <contour>
        <pt x="898" y="1205" on="0"/>
        <pt x="825" y="1141" on="0"/>
        <pt x="825" y="1037" on="0"/>
        <pt x="885" y="949" on="0"/>
        <pt x="934" y="922" on="1"/>
        <pt x="996" y="949" on="0"/>
        <pt x="1069" y="1048" on="0"/>
        <pt x="1069" y="1147" on="0"/>
        <pt x="997" y="1205" on="0"/>
      </contour>
      <contour>
        <pt x="738" y="408" on="1"/>
        <pt x="738" y="278" on="0"/>
        <pt x="921" y="278" on="1"/>
        <pt x="1010" y="278" on="0"/>
        <pt x="1088" y="335" on="1"/>
        <pt x="820" y="540" on="1"/>
        <pt x="738" y="477" on="0"/>
      </contour>
      <contour>
        <pt x="577" y="776" on="1"/>
        <pt x="396" y="905" on="0"/>
        <pt x="396" y="1096" on="1"/>
        <pt x="396" y="1250" on="0"/>
        <pt x="536" y="1362" on="1"/>
        <pt x="604" y="1416" on="0"/>
        <pt x="816" y="1481" on="0"/>
        <pt x="944" y="1481" on="1"/>
        <pt x="1172" y="1481" on="0"/>
        <pt x="1447" y="1268" on="0"/>
        <pt x="1447" y="1116" on="1"/>
        <pt x="1447" y="1008" on="0"/>
        <pt x="1314" y="797" on="0"/>
        <pt x="1182" y="714" on="1"/>
        <pt x="1417" y="562" on="1"/>
        <pt x="1489" y="615" on="0"/>
        <pt x="1599" y="733" on="0"/>
        <pt x="1695" y="841" on="0"/>
        <pt x="1698" y="844" on="1"/>
        <pt x="2002" y="627" on="1"/>
        <pt x="1730" y="352" on="1"/>
        <pt x="1891" y="234" on="1"/>
        <pt x="1833" y="175" on="1"/>
        <pt x="1648" y="-13" on="0"/>
        <pt x="1611" y="-63" on="1"/>
        <pt x="1389" y="91" on="1"/>
        <pt x="1310" y="37" on="0"/>
        <pt x="1003" y="-45" on="0"/>
        <pt x="853" y="-45" on="1"/>
        <pt x="567" y="-45" on="0"/>
        <pt x="245" y="182" on="0"/>
        <pt x="245" y="347" on="1"/>
        <pt x="245" y="464" on="0"/>
        <pt x="414" y="692" on="0"/>
      </contour>
    </TTGlyph>
    <TTGlyph name="aogonek" xMin="119" yMin="-549" xMax="1671" yMax="1081">
      <component glyphName="ogonek" x="1154" y="39" flags="0x1004"/>
      <component glyphName="a" x="0" y="0" flags="0x1004"/>
    </TTGlyph>
    <TTGlyph name="approxequal" xMin="64" yMin="169" xMax="1192" yMax="1095">
      <contour>
        <pt x="1049" y="528" on="1"/>
        <pt x="1192" y="293" on="1"/>
        <pt x="1065" y="169" on="0"/>
        <pt x="918" y="169" on="1"/>
        <pt x="830" y="169" on="0"/>
        <pt x="458" y="290" on="0"/>
        <pt x="376" y="290" on="1"/>
        <pt x="250" y="290" on="0"/>
        <pt x="180" y="189" on="1"/>
        <pt x="64" y="416" on="1"/>
        <pt x="186" y="585" on="0"/>
        <pt x="341" y="585" on="1"/>
        <pt x="398" y="585" on="0"/>
        <pt x="602" y="519" on="0"/>
        <pt x="819" y="453" on="0"/>
        <pt x="891" y="453" on="1"/>
        <pt x="1000" y="453" on="0"/>
      </contour>
      <contour>
        <pt x="1049" y="1038" on="1"/>
        <pt x="1192" y="803" on="1"/>
        <pt x="1065" y="679" on="0"/>
        <pt x="918" y="679" on="1"/>
        <pt x="830" y="679" on="0"/>
        <pt x="458" y="800" on="0"/>
        <pt x="376" y="800" on="1"/>
        <pt x="250" y="800" on="0"/>
        <pt x="180" y="699" on="1"/>
        <pt x="64" y="926" on="1"/>
        <pt x="186" y="1095" on="0"/>
        <pt x="341" y="1095" on="1"/>
        <pt x="398" y="1095" on="0"/>
        <pt x="602" y="1029" on="0"/>
        <pt x="819" y="963" on="0"/>
        <pt x="891" y="963" on="1"/>
        <pt x="1000" y="963" on="0"/>
      </contour>
    </TTGlyph>
    <TTGlyph name="aring" xMin="119" yMin="-37" xMax="1671" yMax="1789">
      <component glyphName="ring" x="571" y="52" flags="0x1004"/>
      <component glyphName="a" x="0" y="0" flags="0x1204"/>
    </TTGlyph>
    <TTGlyph name="asciicircum" xMin="64" yMin="88" xMax="1160" yMax="972">
      <contour>
        <pt x="754" y="92" on="1"/>
        <pt x="702" y="263" on="0"/>
        <pt x="632" y="528" on="1"/>
        <pt x="401" y="88" on="1"/>
        <pt x="394" y="88" on="0"/>
        <pt x="122" y="163" on="0"/>
        <pt x="64" y="176" on="1"/>
        <pt x="116" y="271" on="0"/>
        <pt x="437" y="884" on="0"/>
        <pt x="496" y="972" on="1"/>
        <pt x="873" y="960" on="1"/>
        <pt x="1135" y="214" on="1"/>
        <pt x="1160" y="135" on="1"/>
      </contour>
    </TTGlyph>
    <TTGlyph name="asciitilde" xMin="114" yMin="521" xMax="1130" yMax="899">
      <contour>
        <pt x="830" y="758" on="1"/>
        <pt x="895" y="758" on="0"/>
        <pt x="895" y="845" on="1"/>
        <pt x="1130" y="837" on="1"/>
        <pt x="1130" y="669" on="0"/>
        <pt x="1012" y="572" on="1"/>
        <pt x="950" y="521" on="0"/>
        <pt x="805" y="521" on="0"/>
        <pt x="635" y="589" on="0"/>
        <pt x="476" y="657" on="0"/>
        <pt x="429" y="657" on="1"/>
        <pt x="348" y="657" on="0"/>
        <pt x="348" y="569" on="1"/>
        <pt x="114" y="562" on="1"/>
        <pt x="114" y="708" on="0"/>
        <pt x="275" y="899" on="0"/>
        <pt x="510" y="899" on="0"/>
        <pt x="777" y="767" on="0"/>
        <pt x="818" y="758" on="0"/>
      </contour>
    </TTGlyph>
    <TTGlyph name="asterisk" xMin="72" yMin="122" xMax="1384" yMax="1463">
      <contour>
        <pt x="418" y="778" on="1"/>
        <pt x="72" y="1015" on="0"/>
        <pt x="72" y="1035" on="0"/>
        <pt x="168" y="1179" on="0"/>
        <pt x="180" y="1199" on="1"/>
        <pt x="235" y="1291" on="0"/>
        <pt x="289" y="1291" on="0"/>
        <pt x="550" y="1086" on="1"/>
        <pt x="600" y="1447" on="1"/>
        <pt x="600" y="1450" on="0"/>
        <pt x="604" y="1460" on="1"/>
        <pt x="654" y="1462" on="0"/>
        <pt x="961" y="1462" on="0"/>
        <pt x="966" y="1463" on="1"/>
        <pt x="986" y="1463" on="0"/>
        <pt x="982" y="1431" on="1"/>
        <pt x="935" y="1101" on="1"/>
        <pt x="987" y="1145" on="0"/>
        <pt x="1093" y="1235" on="0"/>
        <pt x="1178" y="1303" on="0"/>
        <pt x="1195" y="1303" on="0"/>
        <pt x="1196" y="1302" on="1"/>
        <pt x="1199" y="1302" on="1"/>
        <pt x="1200" y="1303" on="0"/>
        <pt x="1204" y="1303" on="0"/>
        <pt x="1384" y="1047" on="0"/>
        <pt x="1384" y="1041" on="1"/>
        <pt x="1384" y="1039" on="1"/>
        <pt x="1384" y="1029" on="0"/>
        <pt x="1286" y="954" on="0"/>
        <pt x="1037" y="778" on="1"/>
        <pt x="1367" y="507" on="1"/>
        <pt x="1367" y="506" on="0"/>
        <pt x="1355" y="487" on="0"/>
        <pt x="1347" y="461" on="1"/>
        <pt x="1303" y="401" on="0"/>
        <pt x="1203" y="266" on="1"/>
        <pt x="1191" y="251" on="0"/>
        <pt x="1171" y="251" on="1"/>
        <pt x="886" y="438" on="1"/>
        <pt x="882" y="417" on="0"/>
        <pt x="845" y="248" on="0"/>
        <pt x="837" y="159" on="0"/>
        <pt x="833" y="149" on="0"/>
        <pt x="822" y="149" on="1"/>
        <pt x="829" y="147" on="0"/>
        <pt x="829" y="138" on="1"/>
        <pt x="829" y="122" on="0"/>
        <pt x="805" y="122" on="1"/>
        <pt x="514" y="137" on="1"/>
        <pt x="480" y="137" on="0"/>
        <pt x="480" y="212" on="0"/>
        <pt x="487" y="295" on="0"/>
        <pt x="499" y="400" on="0"/>
        <pt x="502" y="429" on="1"/>
        <pt x="485" y="419" on="0"/>
        <pt x="295" y="300" on="0"/>
        <pt x="253" y="300" on="0"/>
        <pt x="214" y="345" on="0"/>
        <pt x="115" y="451" on="0"/>
        <pt x="109" y="461" on="1"/>
        <pt x="102" y="486" on="0"/>
        <pt x="90" y="506" on="0"/>
        <pt x="90" y="507" on="1"/>
      </contour>
    </TTGlyph>
    <TTGlyph name="at" xMin="132" yMin="-163" xMax="1833" yMax="1481">
      <contour>
        <pt x="1407" y="234" on="1"/>
        <pt x="1155" y="234" on="0"/>
        <pt x="1102" y="435" on="1"/>
        <pt x="1072" y="357" on="0"/>
        <pt x="941" y="269" on="0"/>
        <pt x="885" y="269" on="1"/>
        <pt x="761" y="269" on="0"/>
        <pt x="588" y="436" on="0"/>
        <pt x="588" y="590" on="1"/>
        <pt x="588" y="612" on="1"/>
        <pt x="597" y="809" on="0"/>
        <pt x="828" y="1064" on="0"/>
        <pt x="985" y="1064" on="1"/>
        <pt x="1032" y="1064" on="0"/>
        <pt x="1121" y="1012" on="0"/>
        <pt x="1138" y="970" on="1"/>
        <pt x="1177" y="1056" on="1"/>
        <pt x="1395" y="1046" on="1"/>
        <pt x="1329" y="564" on="1"/>
        <pt x="1328" y="557" on="0"/>
        <pt x="1328" y="447" on="0"/>
        <pt x="1389" y="380" on="0"/>
        <pt x="1432" y="380" on="1"/>
        <pt x="1504" y="380" on="0"/>
        <pt x="1614" y="564" on="0"/>
        <pt x="1614" y="751" on="1"/>
        <pt x="1614" y="1004" on="0"/>
        <pt x="1335" y="1284" on="0"/>
        <pt x="1080" y="1284" on="1"/>
        <pt x="925" y="1284" on="0"/>
        <pt x="662" y="1170" on="0"/>
        <pt x="574" y="1074" on="1"/>
        <pt x="388" y="870" on="0"/>
        <pt x="388" y="582" on="1"/>
        <pt x="388" y="420" on="0"/>
        <pt x="565" y="160" on="0"/>
        <pt x="881" y="13" on="0"/>
        <pt x="1080" y="13" on="1"/>
        <pt x="1022" y="-163" on="1"/>
        <pt x="835" y="-164" on="0"/>
        <pt x="682" y="-118" on="1"/>
        <pt x="408" y="-36" on="0"/>
        <pt x="260" y="178" on="1"/>
        <pt x="132" y="363" on="0"/>
        <pt x="132" y="592" on="1"/>
        <pt x="132" y="749" on="0"/>
        <pt x="184" y="890" on="1"/>
        <pt x="282" y="1155" on="0"/>
        <pt x="793" y="1481" on="0"/>
        <pt x="1109" y="1481" on="1"/>
        <pt x="1321" y="1481" on="0"/>
        <pt x="1650" y="1301" on="0"/>
        <pt x="1833" y="968" on="0"/>
        <pt x="1833" y="750" on="1"/>
        <pt x="1833" y="608" on="0"/>
        <pt x="1730" y="373" on="0"/>
        <pt x="1530" y="234" on="0"/>
      </contour>
      <contour>
        <pt x="1060" y="493" on="1"/>
        <pt x="1106" y="837" on="1"/>
        <pt x="1090" y="852" on="0"/>
        <pt x="1012" y="882" on="0"/>
        <pt x="985" y="882" on="1"/>
        <pt x="909" y="882" on="0"/>
        <pt x="803" y="716" on="0"/>
        <pt x="803" y="632" on="1"/>
        <pt x="803" y="456" on="0"/>
        <pt x="941" y="455" on="1"/>
        <pt x="962" y="455" on="0"/>
        <pt x="1037" y="477" on="0"/>
      </contour>
    </TTGlyph>
    <TTGlyph name="atilde" xMin="119" yMin="-37" xMax="1671" yMax="1734">
      <component glyphName="tilde" x="363" y="30" flags="0x1004"/>
      <component glyphName="a" x="0" y="0" flags="0x1204"/>
    </TTGlyph>
    <TTGlyph name="b" xMin="143" yMin="-37" xMax="1798" yMax="1449">
      <contour>
        <pt x="762" y="1438" on="1"/>
        <pt x="760" y="1341" on="1"/>
        <pt x="760" y="1298" on="0"/>
        <pt x="743" y="970" on="0"/>
        <pt x="742" y="943" on="1"/>
        <pt x="825" y="1000" on="0"/>
        <pt x="1048" y="1070" on="0"/>
        <pt x="1156" y="1070" on="1"/>
        <pt x="1485" y="1070" on="0"/>
        <pt x="1673" y="868" on="1"/>
        <pt x="1798" y="733" on="0"/>
        <pt x="1798" y="528" on="1"/>
        <pt x="1798" y="414" on="0"/>
        <pt x="1685" y="204" on="0"/>
        <pt x="1498" y="53" on="0"/>
        <pt x="1243" y="-37" on="0"/>
        <pt x="935" y="-37" on="0"/>
        <pt x="637" y="81" on="0"/>
        <pt x="548" y="190" on="1"/>
        <pt x="548" y="194" on="1"/>
        <pt x="544" y="182" on="0"/>
        <pt x="444" y="26" on="0"/>
        <pt x="431" y="20" on="0"/>
        <pt x="223" y="-14" on="0"/>
        <pt x="167" y="-14" on="0"/>
        <pt x="143" y="6" on="1"/>
        <pt x="196" y="1269" on="1"/>
        <pt x="196" y="1403" on="1"/>
        <pt x="541" y="1449" on="0"/>
        <pt x="712" y="1449" on="0"/>
      </contour>
      <contour>
        <pt x="1069" y="254" on="0"/>
        <pt x="1201" y="406" on="0"/>
        <pt x="1201" y="609" on="0"/>
        <pt x="1074" y="754" on="0"/>
        <pt x="960" y="754" on="1"/>
        <pt x="884" y="754" on="0"/>
        <pt x="828" y="716" on="1"/>
        <pt x="722" y="644" on="0"/>
        <pt x="722" y="503" on="1"/>
        <pt x="722" y="402" on="0"/>
        <pt x="844" y="254" on="0"/>
      </contour>
    </TTGlyph>
    <TTGlyph name="backslash" xMin="99" yMin="-168" xMax="1325" yMax="1634">
      <contour>
        <pt x="624" y="1634" on="1"/>
        <pt x="751" y="1292" on="0"/>
        <pt x="1255" y="65" on="1"/>
        <pt x="1325" y="-119" on="1"/>
        <pt x="822" y="-168" on="1"/>
        <pt x="800" y="-128" on="0"/>
        <pt x="763" y="-24" on="0"/>
        <pt x="757" y="-10" on="1"/>
        <pt x="239" y="1244" on="1"/>
        <pt x="204" y="1330" on="0"/>
        <pt x="171" y="1403" on="1"/>
        <pt x="99" y="1588" on="1"/>
      </contour>
    </TTGlyph>
    <TTGlyph name="bar" xMin="121" yMin="-109" xMax="612" yMax="1532">
      <contour>
        <pt x="121" y="-91" on="1"/>
        <pt x="250" y="1263" on="0"/>
        <pt x="269" y="1532" on="1"/>
        <pt x="612" y="1516" on="1"/>
        <pt x="462" y="-109" on="1"/>
        <pt x="121" y="-97" on="1"/>
      </contour>
    </TTGlyph>
    <TTGlyph name="braceleft" xMin="164" yMin="-142" xMax="1072" yMax="1563">
      <contour>
        <pt x="648" y="761" on="1"/>
        <pt x="865" y="692" on="0"/>
        <pt x="865" y="479" on="1"/>
        <pt x="865" y="197" on="0"/>
        <pt x="949" y="88" on="0"/>
        <pt x="1040" y="88" on="1"/>
        <pt x="1031" y="-111" on="1"/>
        <pt x="897" y="-142" on="0"/>
        <pt x="781" y="-142" on="1"/>
        <pt x="568" y="-142" on="0"/>
        <pt x="332" y="72" on="0"/>
        <pt x="332" y="278" on="1"/>
        <pt x="332" y="301" on="1"/>
        <pt x="332" y="435" on="0"/>
        <pt x="315" y="488" on="1"/>
        <pt x="282" y="592" on="0"/>
        <pt x="164" y="592" on="1"/>
        <pt x="164" y="890" on="1"/>
        <pt x="278" y="890" on="0"/>
        <pt x="314" y="975" on="1"/>
        <pt x="339" y="1035" on="0"/>
        <pt x="352" y="1226" on="0"/>
        <pt x="358" y="1282" on="1"/>
        <pt x="371" y="1401" on="0"/>
        <pt x="514" y="1563" on="0"/>
        <pt x="699" y="1563" on="1"/>
        <pt x="724" y="1563" on="0"/>
        <pt x="1034" y="1557" on="0"/>
        <pt x="1039" y="1556" on="1"/>
        <pt x="1072" y="1302" on="1"/>
        <pt x="910" y="1302" on="0"/>
        <pt x="868" y="1199" on="1"/>
        <pt x="844" y="1140" on="0"/>
        <pt x="827" y="927" on="0"/>
        <pt x="801" y="831" on="0"/>
        <pt x="719" y="766" on="0"/>
      </contour>
    </TTGlyph>
    <TTGlyph name="braceright" xMin="115" yMin="-135" xMax="1023" yMax="1563">
      <contour>
        <pt x="156" y="1548" on="1"/>
        <pt x="173" y="1552" on="0"/>
        <pt x="458" y="1563" on="0"/>
        <pt x="531" y="1563" on="1"/>
        <pt x="814" y="1563" on="0"/>
        <pt x="845" y="1331" on="1"/>
        <pt x="855" y="1260" on="0"/>
        <pt x="855" y="1159" on="1"/>
        <pt x="855" y="1136" on="1"/>
        <pt x="855" y="1002" on="0"/>
        <pt x="872" y="949" on="1"/>
        <pt x="905" y="845" on="0"/>
        <pt x="1023" y="845" on="1"/>
        <pt x="1023" y="547" on="1"/>
        <pt x="915" y="546" on="0"/>
        <pt x="876" y="460" on="1"/>
        <pt x="853" y="409" on="0"/>
        <pt x="815" y="206" on="0"/>
        <pt x="800" y="150" on="1"/>
        <pt x="768" y="29" on="0"/>
        <pt x="569" y="-135" on="0"/>
        <pt x="350" y="-135" on="1"/>
        <pt x="259" y="-135" on="0"/>
        <pt x="148" y="-119" on="1"/>
        <pt x="115" y="135" on="1"/>
        <pt x="278" y="135" on="0"/>
        <pt x="311" y="237" on="1"/>
        <pt x="326" y="283" on="0"/>
        <pt x="332" y="395" on="0"/>
        <pt x="337" y="511" on="0"/>
        <pt x="365" y="611" on="0"/>
        <pt x="458" y="685" on="0"/>
        <pt x="539" y="696" on="1"/>
        <pt x="419" y="712" on="0"/>
        <pt x="322" y="840" on="0"/>
        <pt x="322" y="1068" on="0"/>
        <pt x="320" y="1110" on="1"/>
        <pt x="315" y="1250" on="0"/>
        <pt x="284" y="1290" on="1"/>
        <pt x="238" y="1350" on="0"/>
        <pt x="147" y="1349" on="1"/>
      </contour>
    </TTGlyph>
    <TTGlyph name="bracketleft" xMin="161" yMin="-171" xMax="1360" yMax="1601">
      <contour>
        <pt x="893" y="-171" on="1"/>
        <pt x="455" y="-171" on="0"/>
        <pt x="167" y="-156" on="1"/>
        <pt x="161" y="-112" on="0"/>
        <pt x="161" y="67" on="0"/>
        <pt x="181" y="675" on="0"/>
        <pt x="184" y="832" on="1"/>
        <pt x="199" y="1599" on="1"/>
        <pt x="384" y="1601" on="1"/>
        <pt x="1360" y="1601" on="1"/>
        <pt x="1349" y="1236" on="1"/>
        <pt x="936" y="1226" on="1"/>
        <pt x="935" y="1177" on="0"/>
        <pt x="913" y="785" on="0"/>
        <pt x="911" y="671" on="1"/>
        <pt x="901" y="201" on="1"/>
        <pt x="1013" y="201" on="1"/>
        <pt x="1201" y="201" on="0"/>
        <pt x="1291" y="197" on="1"/>
        <pt x="1291" y="9" on="0"/>
        <pt x="1285" y="-169" on="1"/>
      </contour>
    </TTGlyph>
    <TTGlyph name="bracketright" xMin="128" yMin="-167" xMax="1314" yMax="1604">
      <contour>
        <pt x="296" y="-167" on="1"/>
        <pt x="130" y="-165" on="1"/>
        <pt x="128" y="29" on="1"/>
        <pt x="133" y="196" on="1"/>
        <pt x="545" y="214" on="1"/>
        <pt x="546" y="343" on="0"/>
        <pt x="570" y="1095" on="0"/>
        <pt x="573" y="1239" on="1"/>
        <pt x="182" y="1241" on="1"/>
        <pt x="182" y="1604" on="1"/>
        <pt x="1307" y="1604" on="1"/>
        <pt x="1314" y="1550" on="0"/>
        <pt x="1314" y="1329" on="0"/>
        <pt x="1291" y="713" on="0"/>
        <pt x="1288" y="596" on="1"/>
        <pt x="1269" y="-160" on="1"/>
      </contour>
    </TTGlyph>
    <TTGlyph name="breve" xMin="74" yMin="1151" xMax="738" yMax="1465">
      <contour>
        <pt x="285" y="1465" on="1"/>
        <pt x="282" y="1434" on="1"/>
        <pt x="282" y="1397" on="0"/>
        <pt x="338" y="1339" on="0"/>
        <pt x="466" y="1339" on="0"/>
        <pt x="529" y="1398" on="0"/>
        <pt x="529" y="1463" on="1"/>
        <pt x="738" y="1465" on="1"/>
        <pt x="738" y="1311" on="0"/>
        <pt x="541" y="1151" on="0"/>
        <pt x="254" y="1151" on="0"/>
        <pt x="74" y="1288" on="0"/>
        <pt x="74" y="1394" on="1"/>
        <pt x="74" y="1429" on="0"/>
        <pt x="84" y="1465" on="1"/>
      </contour>
    </TTGlyph>
    <TTGlyph name="brokenbar" xMin="129" yMin="-15" xMax="535" yMax="1577">
      <contour>
        <pt x="129" y="-15" on="1"/>
        <pt x="154" y="612" on="1"/>
        <pt x="154" y="668" on="1"/>
        <pt x="505" y="668" on="1"/>
        <pt x="485" y="-13" on="1"/>
        <pt x="447" y="-15" on="1"/>
      </contour>
      <contour>
        <pt x="159" y="894" on="1"/>
        <pt x="184" y="1521" on="1"/>
        <pt x="184" y="1577" on="1"/>
        <pt x="535" y="1577" on="1"/>
        <pt x="515" y="896" on="1"/>
        <pt x="477" y="894" on="1"/>
      </contour>
    </TTGlyph>
    <TTGlyph name="bullet" xMin="91" yMin="299" xMax="927" yMax="1106">
      <contour>
        <pt x="91" y="531" on="0"/>
        <pt x="91" y="808" on="0"/>
        <pt x="219" y="1002" on="0"/>
        <pt x="431" y="1106" on="0"/>
        <pt x="717" y="1106" on="0"/>
        <pt x="927" y="895" on="0"/>
        <pt x="927" y="740" on="1"/>
        <pt x="927" y="539" on="0"/>
        <pt x="666" y="299" on="0"/>
        <pt x="289" y="299" on="0"/>
      </contour>
    </TTGlyph>
    <TTGlyph name="c" xMin="119" yMin="-37" xMax="1488" yMax="1070">
      <contour>
        <pt x="1190" y="718" on="1"/>
        <pt x="742" y="718" on="0"/>
        <pt x="742" y="521" on="1"/>
        <pt x="742" y="415" on="0"/>
        <pt x="921" y="300" on="0"/>
        <pt x="1268" y="300" on="0"/>
        <pt x="1433" y="328" on="1"/>
        <pt x="1440" y="13" on="1"/>
        <pt x="1250" y="-37" on="0"/>
        <pt x="802" y="-37" on="0"/>
        <pt x="498" y="32" on="0"/>
        <pt x="412" y="74" on="1"/>
        <pt x="326" y="116" on="0"/>
        <pt x="260" y="172" on="1"/>
        <pt x="118" y="292" on="0"/>
        <pt x="119" y="492" on="1"/>
        <pt x="119" y="616" on="0"/>
        <pt x="168" y="716" on="1"/>
        <pt x="258" y="899" on="0"/>
        <pt x="706" y="1070" on="0"/>
        <pt x="1246" y="1070" on="0"/>
        <pt x="1488" y="1010" on="1"/>
        <pt x="1463" y="689" on="1"/>
        <pt x="1310" y="718" on="0"/>
      </contour>
    </TTGlyph>
    <TTGlyph name="cacute" xMin="119" yMin="-37" xMax="1488" yMax="1678">
      <component glyphName="acute" x="580" y="28" flags="0x1004"/>
      <component glyphName="c" x="0" y="0" flags="0x1204"/>
    </TTGlyph>
    <TTGlyph name="caron" xMin="131" yMin="1245" xMax="960" yMax="1836">
      <contour>
        <pt x="131" y="1677" on="1"/>
        <pt x="134" y="1691" on="1"/>
        <pt x="134" y="1714" on="0"/>
        <pt x="363" y="1836" on="0"/>
        <pt x="385" y="1836" on="1"/>
        <pt x="387" y="1836" on="0"/>
        <pt x="399" y="1812" on="1"/>
        <pt x="521" y="1558" on="1"/>
        <pt x="729" y="1827" on="0"/>
        <pt x="733" y="1833" on="1"/>
        <pt x="733" y="1836" on="1"/>
        <pt x="753" y="1836" on="0"/>
        <pt x="799" y="1808" on="0"/>
        <pt x="960" y="1722" on="0"/>
        <pt x="960" y="1703" on="1"/>
        <pt x="960" y="1689" on="1"/>
        <pt x="960" y="1683" on="0"/>
        <pt x="815" y="1522" on="0"/>
        <pt x="580" y="1249" on="1"/>
        <pt x="576" y="1245" on="0"/>
        <pt x="571" y="1245" on="1"/>
        <pt x="408" y="1245" on="1"/>
        <pt x="406" y="1246" on="0"/>
        <pt x="131" y="1655" on="0"/>
      </contour>
    </TTGlyph>
    <TTGlyph name="ccaron" xMin="119" yMin="-37" xMax="1488" yMax="1825">
      <component glyphName="caron" x="431" y="-11" flags="0x1004"/>
      <component glyphName="c" x="0" y="0" flags="0x1204"/>
    </TTGlyph>
    <TTGlyph name="ccedilla" xMin="119" yMin="-612" xMax="1488" yMax="1070">
      <component glyphName="cedilla" x="801" y="-2" flags="0x1004"/>
      <component glyphName="c" x="0" y="0" flags="0x1204"/>
    </TTGlyph>
    <TTGlyph name="ccircumflex" xMin="119" yMin="-37" xMax="1488" yMax="1794">
      <component glyphName="circumflex" x="377" y="-9" flags="0x1004"/>
      <component glyphName="c" x="0" y="0" flags="0x1204"/>
    </TTGlyph>
    <TTGlyph name="cdotaccent" xMin="119" yMin="-37" xMax="1488" yMax="1634">
      <component glyphName="dotaccent" x="688" y="-156" flags="0x1004"/>
      <component glyphName="c" x="0" y="0" flags="0x1204"/>
    </TTGlyph>
    <TTGlyph name="cedilla" xMin="21" yMin="-610" xMax="531" yMax="-17">
      <contour>
        <pt x="337" y="-156" on="1"/>
        <pt x="531" y="-156" on="0"/>
        <pt x="531" y="-365" on="1"/>
        <pt x="531" y="-484" on="0"/>
        <pt x="371" y="-610" on="0"/>
        <pt x="124" y="-610" on="0"/>
        <pt x="21" y="-537" on="1"/>
        <pt x="61" y="-394" on="1"/>
        <pt x="150" y="-448" on="0"/>
        <pt x="266" y="-448" on="0"/>
        <pt x="320" y="-394" on="0"/>
        <pt x="320" y="-362" on="1"/>
        <pt x="320" y="-297" on="0"/>
        <pt x="250" y="-287" on="1"/>
        <pt x="91" y="-266" on="1"/>
        <pt x="154" y="-17" on="1"/>
        <pt x="333" y="-17" on="1"/>
        <pt x="285" y="-159" on="1"/>
        <pt x="312" y="-156" on="0"/>
      </contour>
    </TTGlyph>
    <TTGlyph name="cent" xMin="119" yMin="-245" xMax="1488" yMax="1244">
      <contour>
        <pt x="932" y="-242" on="1"/>
        <pt x="1082" y="-245" on="1"/>
        <pt x="1095" y="-36" on="1"/>
        <pt x="1280" y="-29" on="0"/>
        <pt x="1440" y="13" on="1"/>
        <pt x="1433" y="328" on="1"/>
        <pt x="1278" y="302" on="0"/>
        <pt x="1116" y="300" on="1"/>
        <pt x="1142" y="718" on="1"/>
        <pt x="1165" y="718" on="0"/>
        <pt x="1309" y="718" on="0"/>
        <pt x="1463" y="689" on="1"/>
        <pt x="1488" y="1010" on="1"/>
        <pt x="1332" y="1049" on="0"/>
        <pt x="1164" y="1062" on="1"/>
        <pt x="1175" y="1244" on="1"/>
        <pt x="1018" y="1244" on="1"/>
        <pt x="1008" y="1070" on="1"/>
        <pt x="992" y="1070" on="0"/>
        <pt x="976" y="1070" on="1"/>
        <pt x="706" y="1070" on="0"/>
        <pt x="482" y="984" on="1"/>
        <pt x="258" y="898" on="0"/>
        <pt x="168" y="716" on="1"/>
        <pt x="119" y="616" on="0"/>
        <pt x="119" y="492" on="1"/>
        <pt x="118" y="292" on="0"/>
        <pt x="260" y="172" on="1"/>
        <pt x="487" y="-21" on="0"/>
        <pt x="944" y="-36" on="1"/>
      </contour>
      <contour>
        <pt x="964" y="310" on="1"/>
        <pt x="884" y="324" on="0"/>
        <pt x="832" y="358" on="1"/>
        <pt x="742" y="416" on="0"/>
        <pt x="742" y="521" on="1"/>
        <pt x="742" y="665" on="0"/>
        <pt x="987" y="706" on="1"/>
      </contour>
    </TTGlyph>
    <TTGlyph name="circumflex" xMin="165" yMin="1241" xMax="948" yMax="1803">
      <contour>
        <pt x="165" y="1369" on="1"/>
        <pt x="165" y="1382" on="1"/>
        <pt x="165" y="1387" on="0"/>
        <pt x="228" y="1457" on="1"/>
        <pt x="292" y="1527" on="0"/>
        <pt x="524" y="1798" on="1"/>
        <pt x="529" y="1803" on="0"/>
        <pt x="536" y="1803" on="0"/>
        <pt x="538" y="1801" on="1"/>
        <pt x="686" y="1801" on="1"/>
        <pt x="688" y="1801" on="0"/>
        <pt x="948" y="1406" on="0"/>
        <pt x="948" y="1386" on="0"/>
        <pt x="945" y="1382" on="1"/>
        <pt x="945" y="1380" on="1"/>
        <pt x="945" y="1365" on="0"/>
        <pt x="835" y="1297" on="0"/>
        <pt x="718" y="1241" on="0"/>
        <pt x="707" y="1241" on="1"/>
        <pt x="580" y="1506" on="1"/>
        <pt x="384" y="1252" on="0"/>
        <pt x="380" y="1246" on="1"/>
        <pt x="380" y="1243" on="1"/>
        <pt x="361" y="1243" on="0"/>
        <pt x="317" y="1270" on="0"/>
        <pt x="165" y="1349" on="0"/>
      </contour>
    </TTGlyph>
    <TTGlyph name="colon" xMin="199" yMin="-1" xMax="643" yMax="1112">
      <contour>
        <pt x="643" y="415" on="1"/>
        <pt x="637" y="4" on="1"/>
        <pt x="468" y="-1" on="0"/>
        <pt x="261" y="-1" on="1"/>
        <pt x="201" y="-1" on="1"/>
        <pt x="199" y="71" on="1"/>
        <pt x="199" y="411" on="1"/>
      </contour>
      <contour>
        <pt x="643" y="1112" on="1"/>
        <pt x="637" y="701" on="1"/>
        <pt x="468" y="696" on="0"/>
        <pt x="261" y="696" on="1"/>
        <pt x="201" y="696" on="1"/>
        <pt x="199" y="768" on="1"/>
        <pt x="199" y="1108" on="1"/>
      </contour>
    </TTGlyph>
    <TTGlyph name="comma" xMin="104" yMin="-331" xMax="570" yMax="347">
      <contour>
        <pt x="168" y="-331" on="1"/>
        <pt x="128" y="-331" on="0"/>
        <pt x="104" y="-324" on="1"/>
        <pt x="120" y="-171" on="1"/>
        <pt x="240" y="-155" on="0"/>
        <pt x="267" y="-13" on="1"/>
        <pt x="128" y="-13" on="1"/>
        <pt x="161" y="347" on="1"/>
        <pt x="570" y="347" on="1"/>
        <pt x="549" y="18" on="1"/>
        <pt x="536" y="-185" on="0"/>
        <pt x="356" y="-281" on="1"/>
        <pt x="262" y="-331" on="0"/>
      </contour>
    </TTGlyph>
    <TTGlyph name="copyright" xMin="158" yMin="-55" xMax="1910" yMax="1493">
      <contour>
        <pt x="1333" y="1119" on="1"/>
        <pt x="1359" y="899" on="1"/>
        <pt x="1335" y="899" on="1"/>
        <pt x="1329" y="905" on="0"/>
        <pt x="1301" y="919" on="0"/>
        <pt x="1276" y="933" on="0"/>
        <pt x="1255" y="942" on="0"/>
        <pt x="1240" y="948" on="1"/>
        <pt x="1181" y="974" on="0"/>
        <pt x="1000" y="974" on="0"/>
        <pt x="887" y="822" on="0"/>
        <pt x="887" y="579" on="0"/>
        <pt x="1043" y="450" on="0"/>
        <pt x="1232" y="450" on="0"/>
        <pt x="1307" y="493" on="1"/>
        <pt x="1322" y="493" on="1"/>
        <pt x="1331" y="359" on="0"/>
        <pt x="1331" y="322" on="0"/>
        <pt x="1330" y="322" on="1"/>
        <pt x="1212" y="246" on="0"/>
        <pt x="1072" y="246" on="1"/>
        <pt x="892" y="246" on="0"/>
        <pt x="752" y="360" on="1"/>
        <pt x="591" y="491" on="0"/>
        <pt x="592" y="726" on="1"/>
        <pt x="592" y="832" on="0"/>
        <pt x="700" y="1048" on="0"/>
        <pt x="923" y="1186" on="0"/>
        <pt x="1239" y="1196" on="0"/>
      </contour>
      <contour>
        <pt x="983" y="108" on="1"/>
        <pt x="1181" y="108" on="0"/>
        <pt x="1504" y="261" on="0"/>
        <pt x="1693" y="546" on="0"/>
        <pt x="1693" y="890" on="0"/>
        <pt x="1537" y="1154" on="0"/>
        <pt x="1258" y="1306" on="0"/>
        <pt x="893" y="1306" on="0"/>
        <pt x="575" y="1160" on="0"/>
        <pt x="383" y="884" on="0"/>
        <pt x="383" y="709" on="1"/>
        <pt x="384" y="461" on="0"/>
        <pt x="546" y="287" on="1"/>
        <pt x="622" y="205" on="0"/>
        <pt x="849" y="108" on="0"/>
      </contour>
      <contour>
        <pt x="1108" y="1493" on="1"/>
        <pt x="1270" y="1493" on="0"/>
        <pt x="1573" y="1378" on="0"/>
        <pt x="1787" y="1180" on="0"/>
        <pt x="1910" y="904" on="0"/>
        <pt x="1910" y="606" on="0"/>
        <pt x="1862" y="480" on="1"/>
        <pt x="1772" y="240" on="0"/>
        <pt x="1287" y="-55" on="0"/>
        <pt x="960" y="-55" on="1"/>
        <pt x="536" y="-54" on="0"/>
        <pt x="302" y="266" on="1"/>
        <pt x="158" y="462" on="0"/>
        <pt x="158" y="997" on="0"/>
        <pt x="342" y="1194" on="1"/>
        <pt x="622" y="1493" on="0"/>
      </contour>
    </TTGlyph>
    <TTGlyph name="currency" xMin="163" yMin="244" xMax="1276" yMax="1404">
      <contour>
        <pt x="921" y="624" on="0"/>
        <pt x="983" y="755" on="0"/>
        <pt x="983" y="945" on="0"/>
        <pt x="841" y="1110" on="0"/>
        <pt x="579" y="1110" on="0"/>
        <pt x="426" y="931" on="0"/>
        <pt x="426" y="698" on="0"/>
        <pt x="567" y="536" on="0"/>
        <pt x="695" y="536" on="1"/>
        <pt x="787" y="536" on="0"/>
      </contour>
      <contour>
        <pt x="458" y="390" on="1"/>
        <pt x="340" y="244" on="1"/>
        <pt x="166" y="395" on="1"/>
        <pt x="281" y="528" on="1"/>
        <pt x="183" y="658" on="0"/>
        <pt x="183" y="974" on="0"/>
        <pt x="290" y="1105" on="1"/>
        <pt x="163" y="1247" on="1"/>
        <pt x="352" y="1394" on="1"/>
        <pt x="482" y="1247" on="1"/>
        <pt x="589" y="1297" on="0"/>
        <pt x="844" y="1297" on="0"/>
        <pt x="952" y="1243" on="1"/>
        <pt x="1097" y="1404" on="1"/>
        <pt x="1276" y="1253" on="1"/>
        <pt x="1131" y="1087" on="1"/>
        <pt x="1223" y="984" on="0"/>
        <pt x="1223" y="662" on="0"/>
        <pt x="1133" y="555" on="1"/>
        <pt x="1262" y="438" on="1"/>
        <pt x="1123" y="268" on="1"/>
        <pt x="963" y="408" on="1"/>
        <pt x="852" y="337" on="0"/>
        <pt x="549" y="337" on="0"/>
      </contour>
    </TTGlyph>
    <TTGlyph name="d" xMin="119" yMin="-37" xMax="1752" yMax="1445">
      <contour>
        <pt x="1214" y="942" on="1"/>
        <pt x="1219" y="1213" on="0"/>
        <pt x="1232" y="1425" on="1"/>
        <pt x="1263" y="1426" on="0"/>
        <pt x="1714" y="1445" on="0"/>
        <pt x="1749" y="1445" on="1"/>
        <pt x="1752" y="1445" on="1"/>
        <pt x="1752" y="38" on="1"/>
        <pt x="1742" y="33" on="0"/>
        <pt x="1694" y="25" on="1"/>
        <pt x="1580" y="6" on="1"/>
        <pt x="1514" y="-5" on="0"/>
        <pt x="1475" y="-15" on="1"/>
        <pt x="1362" y="183" on="0"/>
        <pt x="1344" y="220" on="1"/>
        <pt x="1200" y="30" on="0"/>
        <pt x="980" y="-17" on="1"/>
        <pt x="886" y="-37" on="0"/>
        <pt x="586" y="-37" on="0"/>
        <pt x="291" y="92" on="0"/>
        <pt x="205" y="212" on="1"/>
        <pt x="119" y="332" on="0"/>
        <pt x="119" y="464" on="1"/>
        <pt x="119" y="812" on="0"/>
        <pt x="415" y="971" on="1"/>
        <pt x="599" y="1070" on="0"/>
        <pt x="820" y="1070" on="1"/>
        <pt x="929" y="1070" on="0"/>
        <pt x="1138" y="999" on="0"/>
      </contour>
      <contour>
        <pt x="1056" y="254" on="0"/>
        <pt x="1188" y="406" on="0"/>
        <pt x="1188" y="609" on="0"/>
        <pt x="1061" y="754" on="0"/>
        <pt x="947" y="754" on="1"/>
        <pt x="872" y="754" on="0"/>
        <pt x="816" y="716" on="1"/>
        <pt x="710" y="644" on="0"/>
        <pt x="709" y="503" on="1"/>
        <pt x="709" y="402" on="0"/>
        <pt x="831" y="254" on="0"/>
      </contour>
    </TTGlyph>
    <TTGlyph name="dagger" xMin="91" yMin="0" xMax="1117" yMax="1465">
      <contour>
        <pt x="842" y="1028" on="1"/>
        <pt x="1117" y="1031" on="1"/>
        <pt x="1108" y="759" on="1"/>
        <pt x="1108" y="759" on="0"/>
        <pt x="833" y="759" on="1"/>
        <pt x="803" y="0" on="1"/>
        <pt x="342" y="4" on="1"/>
        <pt x="371" y="757" on="1"/>
        <pt x="91" y="757" on="1"/>
        <pt x="98" y="1024" on="1"/>
        <pt x="380" y="1024" on="1"/>
        <pt x="398" y="1462" on="1"/>
        <pt x="861" y="1465" on="1"/>
      </contour>
    </TTGlyph>
    <TTGlyph name="daggerdbl" xMin="87" yMin="0" xMax="1131" yMax="1465">
      <contour>
        <pt x="839" y="561" on="1"/>
        <pt x="1113" y="564" on="1"/>
        <pt x="1104" y="292" on="1"/>
        <pt x="978" y="291" on="0"/>
        <pt x="829" y="291" on="1"/>
        <pt x="817" y="0" on="1"/>
        <pt x="356" y="4" on="1"/>
        <pt x="366" y="290" on="1"/>
        <pt x="87" y="290" on="1"/>
        <pt x="94" y="557" on="1"/>
        <pt x="377" y="557" on="1"/>
        <pt x="385" y="757" on="1"/>
        <pt x="105" y="757" on="1"/>
        <pt x="112" y="1024" on="1"/>
        <pt x="394" y="1024" on="1"/>
        <pt x="412" y="1462" on="1"/>
        <pt x="875" y="1465" on="1"/>
        <pt x="856" y="1028" on="1"/>
        <pt x="1131" y="1031" on="1"/>
        <pt x="1122" y="759" on="1"/>
        <pt x="1122" y="759" on="0"/>
        <pt x="847" y="759" on="1"/>
      </contour>
    </TTGlyph>
    <TTGlyph name="dcaron" xMin="119" yMin="-37" xMax="2481" yMax="1445">
      <component glyphName="comma" x="1911" y="1098" flags="0x1004"/>
      <component glyphName="d" x="0" y="0" flags="0x1004"/>
    </TTGlyph>
    <TTGlyph name="dcroat" xMin="119" yMin="-37" xMax="1896" yMax="1445">
      <component glyphName="macron" x="565" y="791" scalex="1.17517089844" scaley="0.568725585938" flags="0x1004"/>
      <component glyphName="d" x="0" y="0" flags="0x1004"/>
    </TTGlyph>
    <TTGlyph name="degree" xMin="131" yMin="558" xMax="1050" yMax="1448">
      <contour>
        <pt x="758" y="1016" on="1"/>
        <pt x="758" y="1214" on="0"/>
        <pt x="606" y="1214" on="1"/>
        <pt x="521" y="1214" on="0"/>
        <pt x="411" y="1081" on="0"/>
        <pt x="411" y="994" on="1"/>
        <pt x="412" y="851" on="0"/>
        <pt x="498" y="809" on="1"/>
        <pt x="524" y="796" on="0"/>
        <pt x="557" y="796" on="1"/>
        <pt x="654" y="796" on="0"/>
        <pt x="758" y="932" on="0"/>
      </contour>
      <contour>
        <pt x="587" y="558" on="1"/>
        <pt x="389" y="558" on="0"/>
        <pt x="131" y="790" on="0"/>
        <pt x="131" y="990" on="1"/>
        <pt x="131" y="1113" on="0"/>
        <pt x="257" y="1323" on="0"/>
        <pt x="481" y="1448" on="0"/>
        <pt x="616" y="1448" on="1"/>
        <pt x="802" y="1448" on="0"/>
        <pt x="1050" y="1219" on="0"/>
        <pt x="1050" y="850" on="0"/>
        <pt x="926" y="708" on="1"/>
        <pt x="868" y="640" on="0"/>
        <pt x="691" y="558" on="0"/>
      </contour>
    </TTGlyph>
    <TTGlyph name="dieresis" xMin="89" yMin="1218" xMax="1101" yMax="1578">
      <contour>
        <pt x="1101" y="1219" on="1"/>
        <pt x="721" y="1219" on="1"/>
        <pt x="729" y="1576" on="1"/>
        <pt x="1101" y="1576" on="1"/>
      </contour>
      <contour>
        <pt x="93" y="1218" on="1"/>
        <pt x="89" y="1218" on="0"/>
        <pt x="89" y="1225" on="1"/>
        <pt x="102" y="1576" on="1"/>
        <pt x="475" y="1578" on="1"/>
        <pt x="470" y="1220" on="1"/>
      </contour>
    </TTGlyph>
    <TTGlyph name="divide" xMin="96" yMin="-78" xMax="1333" yMax="1327">
      <contour>
        <pt x="117" y="803" on="1"/>
        <pt x="1333" y="806" on="1"/>
        <pt x="1331" y="530" on="1"/>
        <pt x="96" y="527" on="1"/>
      </contour>
      <contour>
        <pt x="545" y="-78" on="1"/>
        <pt x="545" y="-38" on="1"/>
        <pt x="561" y="328" on="1"/>
        <pt x="976" y="328" on="1"/>
        <pt x="955" y="-76" on="1"/>
      </contour>
      <contour>
        <pt x="963" y="929" on="1"/>
        <pt x="624" y="926" on="0"/>
        <pt x="566" y="926" on="0"/>
        <pt x="566" y="933" on="1"/>
        <pt x="581" y="1327" on="1"/>
        <pt x="996" y="1327" on="1"/>
      </contour>
    </TTGlyph>
    <TTGlyph name="dollar" xMin="122" yMin="-162" xMax="1510" yMax="1593">
      <contour>
        <pt x="1029" y="-152" on="1"/>
        <pt x="817" y="-162" on="1"/>
        <pt x="836" y="119" on="1"/>
        <pt x="673" y="85" on="1"/>
        <pt x="651" y="-157" on="1"/>
        <pt x="491" y="-161" on="0"/>
        <pt x="433" y="-161" on="1"/>
        <pt x="450" y="54" on="1"/>
        <pt x="290" y="27" on="0"/>
        <pt x="122" y="27" on="1"/>
        <pt x="165" y="326" on="1"/>
        <pt x="315" y="335" on="0"/>
        <pt x="413" y="375" on="0"/>
        <pt x="448" y="426" on="0"/>
        <pt x="448" y="504" on="0"/>
        <pt x="386" y="616" on="0"/>
        <pt x="313" y="735" on="0"/>
        <pt x="251" y="898" on="0"/>
        <pt x="251" y="958" on="1"/>
        <pt x="251" y="1069" on="0"/>
        <pt x="365" y="1241" on="0"/>
        <pt x="544" y="1305" on="1"/>
        <pt x="562" y="1550" on="1"/>
        <pt x="795" y="1570" on="1"/>
        <pt x="774" y="1357" on="1"/>
        <pt x="952" y="1376" on="1"/>
        <pt x="981" y="1582" on="1"/>
        <pt x="1212" y="1593" on="1"/>
        <pt x="1190" y="1385" on="1"/>
        <pt x="1336" y="1385" on="0"/>
        <pt x="1469" y="1365" on="1"/>
        <pt x="1510" y="1065" on="1"/>
        <pt x="1508" y="1065" on="0"/>
        <pt x="1404" y="1081" on="0"/>
        <pt x="1338" y="1081" on="1"/>
        <pt x="1153" y="1081" on="0"/>
        <pt x="1153" y="980" on="1"/>
        <pt x="1154" y="908" on="0"/>
        <pt x="1266" y="818" on="1"/>
        <pt x="1312" y="780" on="0"/>
        <pt x="1405" y="697" on="0"/>
        <pt x="1471" y="571" on="0"/>
        <pt x="1471" y="496" on="1"/>
        <pt x="1471" y="387" on="0"/>
        <pt x="1248" y="216" on="0"/>
        <pt x="1059" y="161" on="1"/>
      </contour>
    </TTGlyph>
    <TTGlyph name="dotaccent" xMin="73" yMin="1389" xMax="503" yMax="1790">
      <contour>
        <pt x="73" y="1396" on="1"/>
        <pt x="73" y="1400" on="1"/>
        <pt x="88" y="1759" on="0"/>
        <pt x="100" y="1788" on="0"/>
        <pt x="117" y="1788" on="1"/>
        <pt x="256" y="1788" on="0"/>
        <pt x="482" y="1790" on="1"/>
        <pt x="505" y="1790" on="0"/>
        <pt x="503" y="1766" on="1"/>
        <pt x="475" y="1452" on="1"/>
        <pt x="470" y="1405" on="0"/>
        <pt x="456" y="1393" on="0"/>
        <pt x="445" y="1392" on="1"/>
        <pt x="341" y="1389" on="0"/>
        <pt x="84" y="1389" on="1"/>
        <pt x="73" y="1389" on="0"/>
      </contour>
    </TTGlyph>
    <TTGlyph name="dotlessi" xMin="157" yMin="-1" xMax="779" yMax="1031">
      <contour>
        <pt x="205" y="1020" on="1"/>
        <pt x="369" y="1031" on="0"/>
        <pt x="654" y="1031" on="0"/>
        <pt x="779" y="1023" on="1"/>
        <pt x="737" y="1" on="1"/>
        <pt x="681" y="-1" on="0"/>
        <pt x="421" y="-1" on="0"/>
        <pt x="157" y="4" on="1"/>
        <pt x="157" y="26" on="0"/>
        <pt x="170" y="315" on="0"/>
        <pt x="192" y="882" on="0"/>
      </contour>
    </TTGlyph>
    <TTGlyph name="e" xMin="114" yMin="-36" xMax="1490" yMax="1070">
      <contour>
        <pt x="1048" y="626" on="1"/>
        <pt x="1047" y="720" on="0"/>
        <pt x="962" y="798" on="0"/>
        <pt x="799" y="798" on="0"/>
        <pt x="699" y="701" on="0"/>
        <pt x="687" y="628" on="1"/>
      </contour>
      <contour>
        <pt x="1378" y="35" on="0"/>
        <pt x="1060" y="-36" on="0"/>
        <pt x="761" y="-36" on="0"/>
        <pt x="553" y="-8" on="0"/>
        <pt x="349" y="65" on="0"/>
        <pt x="204" y="178" on="0"/>
        <pt x="114" y="359" on="0"/>
        <pt x="114" y="612" on="0"/>
        <pt x="206" y="824" on="0"/>
        <pt x="279" y="889" on="1"/>
        <pt x="482" y="1070" on="0"/>
        <pt x="867" y="1070" on="1"/>
        <pt x="1050" y="1070" on="0"/>
        <pt x="1215" y="1000" on="1"/>
        <pt x="1380" y="928" on="0"/>
        <pt x="1450" y="784" on="1"/>
        <pt x="1490" y="703" on="0"/>
        <pt x="1490" y="605" on="1"/>
        <pt x="1478" y="440" on="1"/>
        <pt x="667" y="444" on="1"/>
        <pt x="691" y="353" on="0"/>
        <pt x="876" y="249" on="0"/>
        <pt x="1196" y="249" on="0"/>
        <pt x="1405" y="336" on="1"/>
        <pt x="1459" y="336" on="1"/>
        <pt x="1440" y="82" on="1"/>
      </contour>
    </TTGlyph>
    <TTGlyph name="eacute" xMin="114" yMin="-36" xMax="1490" yMax="1678">
      <component glyphName="acute" x="584" y="28" flags="0x1004"/>
      <component glyphName="e" x="0" y="0" flags="0x1204"/>
    </TTGlyph>
    <TTGlyph name="ecaron" xMin="114" yMin="-36" xMax="1490" yMax="1825">
      <component glyphName="caron" x="284" y="-11" flags="0x1004"/>
      <component glyphName="e" x="0" y="0" flags="0x1204"/>
    </TTGlyph>
    <TTGlyph name="ecircumflex" xMin="114" yMin="-36" xMax="1490" yMax="1794">
      <component glyphName="circumflex" x="267" y="-9" flags="0x1004"/>
      <component glyphName="e" x="0" y="0" flags="0x1204"/>
    </TTGlyph>
    <TTGlyph name="edieresis" xMin="114" yMin="-36" xMax="1490" yMax="1593">
      <component glyphName="dieresis" x="224" y="15" flags="0x1004"/>
      <component glyphName="e" x="0" y="0" flags="0x1204"/>
    </TTGlyph>
    <TTGlyph name="egrave" xMin="114" yMin="-36" xMax="1490" yMax="1708">
      <component glyphName="grave" x="363" y="38" flags="0x1004"/>
      <component glyphName="e" x="0" y="0" flags="0x1204"/>
    </TTGlyph>
    <TTGlyph name="eight" xMin="198" yMin="-45" xMax="1951" yMax="1481">
      <contour>
        <pt x="1272" y="1149" on="0"/>
        <pt x="1176" y="1226" on="0"/>
        <pt x="1049" y="1226" on="0"/>
        <pt x="959" y="1148" on="0"/>
        <pt x="959" y="1012" on="0"/>
        <pt x="1054" y="940" on="0"/>
        <pt x="1182" y="940" on="0"/>
        <pt x="1272" y="1014" on="0"/>
      </contour>
      <contour>
        <pt x="1210" y="294" on="0"/>
        <pt x="1302" y="399" on="0"/>
        <pt x="1302" y="542" on="0"/>
        <pt x="1213" y="647" on="0"/>
        <pt x="1043" y="647" on="0"/>
        <pt x="936" y="537" on="0"/>
        <pt x="936" y="393" on="0"/>
        <pt x="1035" y="294" on="0"/>
      </contour>
      <contour>
        <pt x="1087" y="1481" on="1"/>
        <pt x="1615" y="1481" on="0"/>
        <pt x="1774" y="1330" on="1"/>
        <pt x="1857" y="1251" on="0"/>
        <pt x="1857" y="1146" on="1"/>
        <pt x="1857" y="954" on="0"/>
        <pt x="1669" y="839" on="1"/>
        <pt x="1802" y="769" on="0"/>
        <pt x="1951" y="583" on="0"/>
        <pt x="1951" y="450" on="1"/>
        <pt x="1951" y="190" on="0"/>
        <pt x="1477" y="-45" on="0"/>
        <pt x="1071" y="-45" on="1"/>
        <pt x="417" y="-46" on="0"/>
        <pt x="248" y="236" on="1"/>
        <pt x="198" y="320" on="0"/>
        <pt x="198" y="406" on="1"/>
        <pt x="198" y="605" on="0"/>
        <pt x="339" y="704" on="1"/>
        <pt x="423" y="764" on="0"/>
        <pt x="554" y="817" on="1"/>
        <pt x="357" y="911" on="0"/>
        <pt x="357" y="1082" on="1"/>
        <pt x="357" y="1336" on="0"/>
        <pt x="679" y="1430" on="1"/>
        <pt x="856" y="1482" on="0"/>
      </contour>
    </TTGlyph>
    <TTGlyph name="ellipsis" xMin="94" yMin="-49" xMax="1682" yMax="352">
      <contour>
        <pt x="1252" y="-42" on="1"/>
        <pt x="1252" y="-38" on="1"/>
        <pt x="1267" y="321" on="0"/>
        <pt x="1279" y="350" on="0"/>
        <pt x="1296" y="350" on="1"/>
        <pt x="1435" y="350" on="0"/>
        <pt x="1661" y="352" on="1"/>
        <pt x="1684" y="352" on="0"/>
        <pt x="1682" y="328" on="1"/>
        <pt x="1654" y="14" on="1"/>
        <pt x="1649" y="-33" on="0"/>
        <pt x="1635" y="-45" on="0"/>
        <pt x="1624" y="-46" on="1"/>
        <pt x="1520" y="-49" on="0"/>
        <pt x="1263" y="-49" on="1"/>
        <pt x="1252" y="-49" on="0"/>
      </contour>
      <contour>
        <pt x="673" y="-42" on="1"/>
        <pt x="673" y="-38" on="1"/>
        <pt x="688" y="321" on="0"/>
        <pt x="700" y="350" on="0"/>
        <pt x="717" y="350" on="1"/>
        <pt x="856" y="350" on="0"/>
        <pt x="1082" y="352" on="1"/>
        <pt x="1105" y="352" on="0"/>
        <pt x="1103" y="328" on="1"/>
        <pt x="1075" y="14" on="1"/>
        <pt x="1070" y="-33" on="0"/>
        <pt x="1056" y="-45" on="0"/>
        <pt x="1045" y="-46" on="1"/>
        <pt x="942" y="-49" on="0"/>
        <pt x="684" y="-49" on="1"/>
        <pt x="673" y="-49" on="0"/>
      </contour>
      <contour>
        <pt x="94" y="-42" on="1"/>
        <pt x="94" y="-38" on="1"/>
        <pt x="109" y="321" on="0"/>
        <pt x="121" y="350" on="0"/>
        <pt x="138" y="350" on="1"/>
        <pt x="277" y="350" on="0"/>
        <pt x="503" y="352" on="1"/>
        <pt x="526" y="352" on="0"/>
        <pt x="524" y="328" on="1"/>
        <pt x="496" y="14" on="1"/>
        <pt x="491" y="-33" on="0"/>
        <pt x="478" y="-46" on="0"/>
        <pt x="362" y="-49" on="0"/>
        <pt x="105" y="-49" on="1"/>
        <pt x="94" y="-49" on="0"/>
      </contour>
    </TTGlyph>
    <TTGlyph name="emacron" xMin="114" yMin="-36" xMax="1490" yMax="1557">
      <component glyphName="macron" x="129" y="649" flags="0x1004"/>
      <component glyphName="e" x="0" y="0" flags="0x1204"/>
    </TTGlyph>
    <TTGlyph name="emdash" xMin="83" yMin="517" xMax="1275" yMax="820">
      <contour>
        <pt x="705" y="814" on="1"/>
        <pt x="1275" y="820" on="1"/>
        <pt x="1255" y="524" on="1"/>
        <pt x="1017" y="524" on="1"/>
        <pt x="83" y="517" on="1"/>
        <pt x="96" y="814" on="1"/>
      </contour>
    </TTGlyph>
    <TTGlyph name="endash" xMin="99" yMin="517" xMax="932" yMax="790">
      <contour>
        <pt x="930" y="523" on="1"/>
        <pt x="591" y="523" on="1"/>
        <pt x="246" y="517" on="1"/>
        <pt x="99" y="517" on="1"/>
        <pt x="112" y="784" on="1"/>
        <pt x="932" y="790" on="1"/>
      </contour>
    </TTGlyph>
    <TTGlyph name="eogonek" xMin="114" yMin="-566" xMax="1490" yMax="1070">
      <component glyphName="ogonek" x="747" y="22" flags="0x1004"/>
      <component glyphName="e" x="0" y="0" flags="0x1204"/>
    </TTGlyph>
    <TTGlyph name="equal" xMin="96" yMin="257" xMax="887" yMax="1078">
      <contour>
        <pt x="444" y="257" on="1"/>
        <pt x="444" y="257" on="0"/>
        <pt x="98" y="257" on="1"/>
        <pt x="104" y="572" on="1"/>
        <pt x="590" y="572" on="1"/>
        <pt x="872" y="576" on="1"/>
        <pt x="874" y="260" on="1"/>
        <pt x="747" y="257" on="0"/>
      </contour>
      <contour>
        <pt x="235" y="765" on="1"/>
        <pt x="96" y="765" on="1"/>
        <pt x="114" y="1075" on="1"/>
        <pt x="423" y="1075" on="1"/>
        <pt x="887" y="1078" on="1"/>
        <pt x="876" y="774" on="1"/>
        <pt x="413" y="765" on="0"/>
      </contour>
    </TTGlyph>
    <TTGlyph name="eth" xMin="102" yMin="-52" xMax="1711" yMax="1710">
      <contour>
        <pt x="963" y="803" on="1"/>
        <pt x="695" y="803" on="0"/>
        <pt x="695" y="543" on="1"/>
        <pt x="695" y="418" on="0"/>
        <pt x="844" y="265" on="0"/>
        <pt x="1046" y="265" on="0"/>
        <pt x="1161" y="374" on="0"/>
        <pt x="1161" y="605" on="0"/>
        <pt x="1062" y="786" on="1"/>
        <pt x="998" y="803" on="0"/>
      </contour>
      <contour>
        <pt x="781" y="1710" on="1"/>
        <pt x="948" y="1614" on="0"/>
        <pt x="1018" y="1551" on="1"/>
        <pt x="1322" y="1618" on="1"/>
        <pt x="1472" y="1470" on="1"/>
        <pt x="1178" y="1403" on="1"/>
        <pt x="1465" y="1157" on="0"/>
        <pt x="1711" y="757" on="0"/>
        <pt x="1711" y="550" on="1"/>
        <pt x="1711" y="269" on="0"/>
        <pt x="1298" y="-52" on="0"/>
        <pt x="888" y="-52" on="1"/>
        <pt x="404" y="-52" on="0"/>
        <pt x="210" y="210" on="1"/>
        <pt x="102" y="357" on="0"/>
        <pt x="102" y="549" on="1"/>
        <pt x="102" y="667" on="0"/>
        <pt x="215" y="868" on="0"/>
        <pt x="312" y="936" on="1"/>
        <pt x="518" y="1082" on="0"/>
        <pt x="822" y="1082" on="1"/>
        <pt x="883" y="1082" on="0"/>
        <pt x="957" y="1074" on="1"/>
        <pt x="925" y="1129" on="0"/>
        <pt x="828" y="1257" on="0"/>
        <pt x="792" y="1282" on="1"/>
        <pt x="538" y="1210" on="1"/>
        <pt x="395" y="1366" on="1"/>
        <pt x="395" y="1368" on="0"/>
        <pt x="396" y="1368" on="1"/>
        <pt x="662" y="1441" on="1"/>
        <pt x="634" y="1481" on="0"/>
        <pt x="448" y="1650" on="0"/>
        <pt x="446" y="1652" on="1"/>
        <pt x="514" y="1667" on="0"/>
        <pt x="760" y="1710" on="0"/>
        <pt x="779" y="1710" on="1"/>
      </contour>
    </TTGlyph>
    <TTGlyph name="exclam" xMin="237" yMin="-3" xMax="1118" yMax="1638">
      <contour>
        <pt x="276" y="387" on="1"/>
        <pt x="759" y="378" on="1"/>
        <pt x="748" y="241" on="0"/>
        <pt x="723" y="-1" on="1"/>
        <pt x="713" y="-3" on="0"/>
        <pt x="237" y="-3" on="1"/>
      </contour>
      <contour>
        <pt x="352" y="1634" on="1"/>
        <pt x="1118" y="1638" on="1"/>
        <pt x="705" y="570" on="1"/>
        <pt x="369" y="570" on="1"/>
        <pt x="319" y="1601" on="1"/>
        <pt x="320" y="1634" on="0"/>
      </contour>
    </TTGlyph>
    <TTGlyph name="exclamdown" xMin="177" yMin="-541" xMax="1058" yMax="1100">
      <component glyphName="exclam" x="1295" y="1097" scale="-1.0" flags="0x1004"/>
    </TTGlyph>
    <TTGlyph name="f" xMin="104" yMin="-8" xMax="1410" yMax="1519">
      <contour>
        <pt x="921" y="747" on="1"/>
        <pt x="894" y="162" on="0"/>
        <pt x="894" y="124" on="1"/>
        <pt x="891" y="-4" on="1"/>
        <pt x="385" y="-8" on="1"/>
        <pt x="339" y="-8" on="0"/>
        <pt x="294" y="-5" on="1"/>
        <pt x="290" y="84" on="1"/>
        <pt x="293" y="254" on="0"/>
        <pt x="322" y="745" on="1"/>
        <pt x="182" y="745" on="1"/>
        <pt x="123" y="745" on="0"/>
        <pt x="104" y="750" on="1"/>
        <pt x="108" y="855" on="0"/>
        <pt x="126" y="981" on="1"/>
        <pt x="335" y="981" on="1"/>
        <pt x="352" y="1383" on="0"/>
        <pt x="802" y="1487" on="1"/>
        <pt x="940" y="1519" on="0"/>
        <pt x="1252" y="1519" on="0"/>
        <pt x="1410" y="1498" on="1"/>
        <pt x="1410" y="1339" on="0"/>
        <pt x="1398" y="1176" on="1"/>
        <pt x="1314" y="1188" on="0"/>
        <pt x="1164" y="1188" on="0"/>
        <pt x="1041" y="1159" on="0"/>
        <pt x="970" y="1099" on="0"/>
        <pt x="935" y="1032" on="0"/>
        <pt x="922" y="981" on="1"/>
        <pt x="1166" y="981" on="1"/>
        <pt x="1275" y="981" on="0"/>
        <pt x="1350" y="971" on="1"/>
        <pt x="1350" y="871" on="0"/>
        <pt x="1331" y="747" on="1"/>
      </contour>
    </TTGlyph>
</ttFont>
